<svg 
	 viewBox="0 0 2441.6 2491.4" style="enable-background:new 0 0 2441.6 2491.4;" xml:space="preserve">
<g>
	<defs>
		<rect id="SVGID_1_" y="0" width="2441.6" height="2491.4"/>
	</defs>
	<clipPath id="SVGID_2_">
		<use xlink:href="#SVGID_1_"  style="overflow:visible;"/>
	</clipPath>
	<path style="clip-path:url(#SVGID_2_);fill:#4285F4;" d="M2441.6,1273.4c0-102.4-8.3-177.2-26.3-254.7H1245.7V1481h686.5
		c-13.8,114.9-88.6,287.9-254.7,404.2l-2.3,15.5l369.8,286.5l25.6,2.6C2305.9,1972.4,2441.6,1652.6,2441.6,1273.4"/>
	<path style="clip-path:url(#SVGID_2_);fill:#34A853;" d="M1245.7,2491.4c336.3,0,618.7-110.7,824.9-301.7l-393.1-304.5
		c-105.2,73.4-246.4,124.6-431.8,124.6c-329.4,0-609-217.3-708.7-517.7l-14.6,1.2l-384.5,297.6l-5,14
		C337.7,2211.8,758.5,2491.4,1245.7,2491.4"/>
	<path style="clip-path:url(#SVGID_2_);fill:#FBBC05;" d="M537,1492.1c-26.3-77.5-41.5-160.6-41.5-246.4
		c0-85.8,15.2-168.9,40.1-246.4l-0.7-16.5L145.6,680.5l-12.7,6.1C48.4,855.4,0,1045,0,1245.7c0,200.7,48.4,390.3,132.9,559.2
		L537,1492.1"/>
	<path style="clip-path:url(#SVGID_2_);fill:#EB4335;" d="M1245.7,481.7c233.9,0,391.7,101,481.7,185.5l351.6-343.3
		C1863,123.2,1582,0,1245.7,0c-487.2,0-908,279.6-1112.8,686.5l402.8,312.8C636.7,699,916.3,481.7,1245.7,481.7"/>
</g>
</svg>
