<svg viewBox="0 0 46 46">
	<path d="M41.33 1L5.17 1C2.87 1 1 2.87 1 5.17L1 41.33C1 43.63 2.87 45.5 5.17 45.5L41.33 45.5C43.63 45.5 45.5 43.63 45.5 41.33L45.5 5.17C45.5 2.87 43.63 1 41.33 1ZM42.72 41.33C42.72 42.1 42.09 42.72 41.33 42.72L5.17 42.72C4.4 42.72 3.78 42.1 3.78 41.33L3.78 5.17C3.78 4.4 4.4 3.78 5.17 3.78L41.33 3.78C42.09 3.78 42.72 4.4 42.72 5.17L42.72 41.33ZM6.56 6.56L9.34 6.56L9.34 9.34L6.56 9.34L6.56 6.56ZM37.15 6.56L39.94 6.56L39.94 9.34L37.15 9.34L37.15 6.56ZM37.15 37.16L39.94 37.16L39.94 39.94L37.15 39.94L37.15 37.16ZM6.56 37.16L9.34 37.16L9.34 39.94L6.56 39.94L6.56 37.16ZM35.76 16.3C33.46 16.3 31.59 18.16 31.59 20.47L31.59 26.03C31.59 28.33 33.46 30.2 35.76 30.2C38.07 30.2 39.94 28.33 39.94 26.03L39.94 20.47C39.94 18.16 38.07 16.3 35.76 16.3ZM37.15 26.03C37.15 26.8 36.53 27.42 35.76 27.42C35 27.42 34.37 26.8 34.37 26.03L34.37 20.47C34.37 19.7 35 19.08 35.76 19.08C36.53 19.08 37.15 19.7 37.15 20.47L37.15 26.03ZM16.3 16.3C13.99 16.3 12.12 18.16 12.12 20.47L12.12 26.03C12.12 28.33 13.99 30.2 16.3 30.2C18.6 30.2 20.47 28.33 20.47 26.03L20.47 20.47C20.47 18.16 18.6 16.3 16.3 16.3ZM17.69 26.03C17.69 26.8 17.06 27.42 16.3 27.42C15.53 27.42 14.9 26.8 14.9 26.03L14.9 20.47C14.9 19.7 15.53 19.08 16.3 19.08C17.06 19.08 17.69 19.7 17.69 20.47L17.69 26.03ZM27.42 16.3L24.64 16.3C23.1 16.3 21.86 17.54 21.86 19.08L21.86 21.86C21.86 22.35 22 22.83 22.25 23.25C22 23.67 21.86 24.15 21.86 24.64L21.86 27.42C21.86 28.96 23.1 30.2 24.64 30.2L27.42 30.2C28.96 30.2 30.2 28.96 30.2 27.42L30.2 24.64C30.2 24.15 30.06 23.67 29.81 23.25C30.06 22.83 30.2 22.35 30.2 21.86L30.2 19.08C30.2 17.54 28.96 16.3 27.42 16.3ZM27.42 27.42L24.64 27.42L24.64 24.64L27.42 24.64L27.42 27.42ZM27.42 21.86L24.64 21.86L24.64 19.08L27.42 19.08L27.42 21.86ZM7.95 16.3L10.73 16.3L10.73 30.2L7.95 30.2L7.95 16.3Z" />
</svg>
