<svg viewBox="0 0 46 46">
	<path d="M41.33 1L5.17 1C2.87 1 1 2.87 1 5.17L1 41.33C1 43.63 2.87 45.5 5.17 45.5L41.33 45.5C43.63 45.5 45.5 43.63 45.5 41.33L45.5 5.17C45.5 2.87 43.63 1 41.33 1ZM42.72 41.33C42.72 42.1 42.09 42.72 41.33 42.72L5.17 42.72C4.4 42.72 3.78 42.1 3.78 41.33L3.78 5.17C3.78 4.4 4.4 3.78 5.17 3.78L41.33 3.78C42.09 3.78 42.72 4.4 42.72 5.17L42.72 41.33ZM6.56 6.56L9.34 6.56L9.34 9.34L6.56 9.34L6.56 6.56ZM37.15 6.56L39.94 6.56L39.94 9.34L37.15 9.34L37.15 6.56ZM37.15 37.16L39.94 37.16L39.94 39.94L37.15 39.94L37.15 37.16ZM6.56 37.16L9.34 37.16L9.34 39.94L6.56 39.94L6.56 37.16ZM12.8 27.93L12.8 30.22L21.83 30.22L21.83 27.72L16.97 27.72C18.33 26.67 19.44 25.6 20.32 24.5C21.2 23.41 21.63 22.21 21.63 20.93C21.63 19.75 21.27 18.8 20.54 18.07C19.82 17.34 18.74 16.97 17.31 16.97C16.49 16.97 15.73 17.13 15.05 17.46C14.38 17.78 13.83 18.28 13.42 18.97C13 19.65 12.78 20.5 12.76 21.52L15.73 21.52C15.73 20.9 15.86 20.42 16.12 20.08C16.37 19.73 16.73 19.56 17.19 19.56C17.64 19.56 17.99 19.7 18.21 19.98C18.44 20.25 18.56 20.64 18.56 21.13C18.56 21.78 18.32 22.44 17.85 23.13C17.39 23.81 16.81 24.46 16.13 25.09C15.46 25.71 14.53 26.51 13.35 27.48C13.39 27.46 13.2 27.61 12.8 27.93L12.8 27.93ZM34.31 30.4L29.23 23.95L34.13 17.76L30.51 17.76L26.3 23.31L26.3 17.76L23.22 17.76L23.22 30.4L26.3 30.4L26.3 24.82L30.54 30.4L34.31 30.4Z" />
</svg>
