<svg viewBox="0 0 46 46">
	<path d="M41.78 1L5.22 1C2.89 1 1 2.89 1 5.22L1 41.78C1 44.11 2.89 46 5.22 46L41.78 46C44.11 46 46 44.11 46 41.78L46 5.22C46 2.89 44.11 1 41.78 1ZM43.19 41.78C43.19 42.56 42.56 43.19 41.78 43.19L5.22 43.19C4.44 43.19 3.81 42.56 3.81 41.78L3.81 5.22C3.81 4.44 4.44 3.81 5.22 3.81L41.78 3.81C42.56 3.81 43.19 4.44 43.19 5.22L43.19 41.78ZM6.62 6.62L9.44 6.62L9.44 9.44L6.62 9.44L6.62 6.62ZM37.56 6.62L40.37 6.62L40.37 9.44L37.56 9.44L37.56 6.62ZM37.56 37.56L40.37 37.56L40.37 40.37L37.56 40.37L37.56 37.56ZM6.62 37.56L9.44 37.56L9.44 40.37L6.62 40.37L6.62 37.56ZM22.09 16.47L19.28 16.47L19.28 23.5L16.47 23.5L16.47 16.47L13.65 16.47L13.65 24.91C13.65 25.68 14.28 26.31 15.06 26.31L19.28 26.31L19.28 30.53L22.09 30.53L22.09 26.31L23.5 26.31L23.5 23.5L22.09 23.5L22.09 16.47ZM34.34 18.87L32.34 16.88L27.72 21.52L27.72 16.47L24.9 16.47L24.9 30.53L27.72 30.53L27.72 25.48L29.01 24.2L33.65 30.01L35.84 28.25L31.01 22.19L34.34 18.87Z" />
</svg>
