<svg viewBox="0 0 46 46">
	<path d="M41.78 1L5.22 1C2.89 1 1 2.89 1 5.22L1 41.78C1 44.11 2.89 46 5.22 46L41.78 46C44.11 46 46 44.11 46 41.78L46 5.22C46 2.89 44.11 1 41.78 1ZM43.19 41.78C43.19 42.56 42.56 43.19 41.78 43.19L5.22 43.19C4.44 43.19 3.81 42.56 3.81 41.78L3.81 5.22C3.81 4.44 4.44 3.81 5.22 3.81L41.78 3.81C42.56 3.81 43.19 4.44 43.19 5.22L43.19 41.78ZM6.62 6.62L9.43 6.62L9.43 9.44L6.62 9.44L6.62 6.62ZM37.56 6.62L40.37 6.62L40.37 9.44L37.56 9.44L37.56 6.62ZM37.56 37.56L40.37 37.56L40.37 40.37L37.56 40.37L37.56 37.56ZM6.62 37.56L9.43 37.56L9.43 40.37L6.62 40.37L6.62 37.56ZM34.75 16.47C31.64 16.47 29.12 18.99 29.12 22.09L29.12 24.91C29.12 28.01 31.64 30.53 34.75 30.53C37.85 30.53 40.37 28.01 40.37 24.91L40.37 22.09C40.37 18.99 37.85 16.47 34.75 16.47ZM37.56 24.91C37.56 26.46 36.3 27.72 34.75 27.72C33.19 27.72 31.94 26.46 31.94 24.91L31.94 22.09C31.94 20.54 33.19 19.28 34.75 19.28C36.3 19.28 37.56 20.54 37.56 22.09L37.56 24.91ZM15.06 16.47L8.03 16.47C7.25 16.47 6.62 17.1 6.62 17.87L6.62 20.69L9.43 20.69L9.43 19.28L13.65 19.28L13.65 30.53L16.47 30.53L16.47 17.87C16.47 17.1 15.84 16.47 15.06 16.47ZM26.31 16.47L19.28 16.47C18.5 16.47 17.87 17.1 17.87 17.87L17.87 20.69L20.69 20.69L20.69 19.28L24.9 19.28L24.9 22.09L19.28 22.09C18.5 22.09 17.87 22.72 17.87 23.5L17.87 29.12C17.87 29.9 18.5 30.53 19.28 30.53L27.72 30.53L27.72 27.72L20.69 27.72L20.69 24.91L26.31 24.91C27.09 24.91 27.72 24.28 27.72 23.5L27.72 17.87C27.72 17.1 27.09 16.47 26.31 16.47Z" />
</svg>
