<svg viewBox="0 0 88 84">
	<path d="M73.15 2L14.37 2C7 2 1.01 8.04 1.01 15.47L1.01 62.64C1.01 70.07 7 76.11 14.37 76.11L46.1 76.11C47.37 76.11 48.54 75.38 49.1 74.23C49.66 73.07 49.52 71.7 48.74 70.68L40 59.29L64.22 28.23L79.83 47.02L79.83 52.7C79.83 54.56 81.33 56.07 83.17 56.07C85.02 56.07 86.51 54.56 86.51 52.7L86.51 15.47C86.51 8.04 80.52 2 73.15 2ZM66.69 20.72C66.05 19.94 65.09 19.5 64.08 19.52C63.08 19.53 62.13 20.01 61.51 20.8L35.79 53.8L27.03 42.38C26.4 41.56 25.42 41.08 24.39 41.08C24.39 41.08 24.39 41.08 24.38 41.08C23.35 41.08 22.37 41.56 21.74 42.39L14.39 52.03C13.27 53.5 13.54 55.62 15 56.75C16.46 57.89 18.56 57.61 19.69 56.14L24.4 49.96L39.29 69.37L14.37 69.37C10.69 69.37 7.69 66.35 7.69 62.64L7.69 15.47C7.69 11.76 10.69 8.74 14.37 8.74L73.15 8.74C76.84 8.74 79.83 11.76 79.83 15.47L79.83 36.53L66.69 20.72ZM24.39 14.13C18.86 14.13 14.37 18.66 14.37 24.23C14.37 29.81 18.86 34.34 24.39 34.34C29.91 34.34 34.41 29.81 34.41 24.23C34.41 18.66 29.91 14.13 24.39 14.13ZM24.39 27.6C22.55 27.6 21.05 26.09 21.05 24.23C21.05 22.38 22.55 20.86 24.39 20.86C26.23 20.86 27.73 22.38 27.73 24.23C27.73 26.09 26.23 27.6 24.39 27.6ZM86.51 66.17C86.51 68.04 85.02 69.54 83.17 69.54L73.99 69.54L73.99 78.81C73.99 80.67 72.49 82.18 70.65 82.18C68.8 82.18 67.31 80.67 67.31 78.81L67.31 69.54L58.12 69.54C56.28 69.54 54.78 68.04 54.78 66.17C54.78 64.31 56.28 62.81 58.12 62.81L67.31 62.81L67.31 53.54C67.31 51.68 68.8 50.17 70.65 50.17C72.49 50.17 73.99 51.68 73.99 53.54L73.99 62.81L83.17 62.81C85.02 62.81 86.51 64.31 86.51 66.17Z" />
</svg>
