<svg viewBox="0 0 20 20">
	<path d="M9.41 4.91L16.68 4.91L15.82 5.78C15.57 6.03 15.57 6.44 15.82 6.69C15.95 6.81 16.11 6.88 16.28 6.88C16.44 6.88 16.61 6.81 16.73 6.68L18 5.4C18.62 4.78 18.62 3.76 18 3.13L16.73 1.85C16.48 1.59 16.08 1.59 15.82 1.84C15.57 2.09 15.57 2.5 15.82 2.75L16.68 3.62L9.41 3.62C9.05 3.62 8.77 3.91 8.77 4.27C8.77 4.62 9.05 4.91 9.41 4.91ZM18 14.38L16.73 13.09C16.48 12.84 16.08 12.84 15.82 13.09C15.57 13.34 15.57 13.74 15.82 14L16.68 14.87L2.64 14.87C2.29 14.87 2 15.15 2 15.51C2 15.87 2.29 16.15 2.64 16.15L16.68 16.15L15.82 17.02C15.57 17.27 15.57 17.68 15.82 17.93C15.95 18.06 16.11 18.12 16.28 18.12C16.44 18.12 16.61 18.06 16.73 17.93L18 16.65C18.62 16.02 18.62 15 18 14.38ZM2.65 7.94C3 7.94 3.29 7.65 3.29 7.3L3.29 6.01L5.87 6.01L5.87 7.3C5.87 7.65 6.16 7.94 6.51 7.94C6.87 7.94 7.16 7.65 7.16 7.3L7.16 4.24C7.16 2.81 6 1.66 4.58 1.66C3.16 1.66 2 2.81 2 4.24L2 7.3C2 7.65 2.29 7.94 2.65 7.94ZM3.29 4.24C3.29 3.53 3.87 2.95 4.58 2.95C5.29 2.95 5.87 3.53 5.87 4.24L5.87 4.72L3.29 4.72L3.29 4.24ZM2.64 10.52L16.68 10.52L15.82 11.38C15.57 11.64 15.57 12.04 15.82 12.29C15.95 12.42 16.11 12.48 16.28 12.48C16.44 12.48 16.61 12.42 16.73 12.29L18 11.01C18.62 10.38 18.62 9.37 18 8.74L16.73 7.45C16.48 7.2 16.08 7.2 15.82 7.45C15.57 7.7 15.57 8.11 15.82 8.36L16.68 9.23L2.64 9.23C2.29 9.23 2 9.52 2 9.87C2 10.23 2.29 10.52 2.64 10.52Z" />
</svg>
