<svg viewBox="0 0 512 449.96">
	<path d="M202,169v61a20,20,0,1,0,40,0V169a20,20,0,0,0-40,0Z" />
	<path d="M507,365.94a19.84,19.84,0,0,0-2.26-3.89l-44.25-59.74A20,20,0,0,0,442,290H90V80a40,40,0,0,1,40-40H382a40,40,0,0,1,40,40V210a20,20,0,1,0,40,0V80A80.08,80.08,0,0,0,382,0H130A80.08,80.08,0,0,0,50,80V304.37L7.3,362.05A19.84,19.84,0,0,0,5,365.94a60,60,0,0,0,55,84H452a60,60,0,0,0,55-84Zm-38.24,35A19.7,19.7,0,0,1,452,410H326a20,20,0,0,0-20-20H206a20,20,0,0,0-20,20H60a20,20,0,0,1-19-26.23L80.09,331H431.91L471,383.73A19.64,19.64,0,0,1,468.72,400.91Z" />
	<path d="M132,149v81a20,20,0,1,0,40,0V149a20,20,0,0,0-40,0Z" />
	<path d="M272,99V230a20,20,0,1,0,40,0V99a20,20,0,1,0-40,0Z" />
	<path d="M342,200v30a20,20,0,1,0,40,0V200a20,20,0,0,0-40,0Z" />
</svg>
