<svg viewBox="0 0 26 27">
	<path d="M11.4 5.58C11.2 5.49 10.98 5.48 10.77 5.56C10.57 5.63 10.4 5.79 10.31 5.98C10.13 6.39 10.31 6.88 10.72 7.07C10.83 7.12 10.94 7.14 11.06 7.14C11.15 7.14 11.25 7.13 11.34 7.09C11.55 7.02 11.71 6.86 11.8 6.66C11.89 6.47 11.9 6.24 11.82 6.04C11.75 5.83 11.59 5.67 11.4 5.58ZM15.23 5.58C15.03 5.49 14.81 5.48 14.6 5.56C14.4 5.63 14.24 5.79 14.15 5.98C14.06 6.18 14.05 6.41 14.12 6.61C14.2 6.82 14.35 6.98 14.55 7.07C14.66 7.12 14.77 7.14 14.89 7.14C14.99 7.14 15.08 7.13 15.17 7.09C15.38 7.02 15.54 6.86 15.63 6.66C15.82 6.25 15.64 5.77 15.23 5.58ZM3.13 10.54L3.1 10.54C1.96 10.54 1.03 11.47 1.03 12.62L1.03 17.6C1.03 18.75 1.96 19.68 3.1 19.68L3.13 19.68C4.27 19.68 5.2 18.75 5.2 17.6L5.2 12.62C5.2 11.47 4.27 10.54 3.13 10.54ZM3.79 17.6C3.79 17.97 3.49 18.27 3.13 18.27L3.1 18.27C2.73 18.27 2.44 17.97 2.44 17.6L2.44 12.62C2.44 12.25 2.73 11.95 3.1 11.95L3.13 11.95C3.49 11.95 3.79 12.25 3.79 12.62L3.79 17.6ZM22.93 10.54L22.9 10.54C21.76 10.54 20.83 11.47 20.83 12.62L20.83 17.6C20.83 18.75 21.76 19.68 22.9 19.68L22.93 19.68C24.07 19.68 25 18.75 25 17.6L25 12.62C25 11.47 24.07 10.54 22.93 10.54ZM23.6 17.6C23.6 17.97 23.3 18.27 22.93 18.27L22.9 18.27C22.54 18.27 22.24 17.97 22.24 17.6L22.24 12.62C22.24 12.25 22.54 11.95 22.9 11.95L22.93 11.95C23.3 11.95 23.6 12.25 23.6 12.62L23.6 17.6ZM6.17 20.69L8.4 20.69L8.4 23.41C8.4 24.55 9.34 25.48 10.49 25.48C11.64 25.48 12.57 24.55 12.57 23.41L12.57 20.69L13.42 20.69L13.42 23.41C13.42 24.55 14.36 25.48 15.51 25.48C16.65 25.48 17.59 24.55 17.59 23.41L17.59 20.69L19.78 20.69L19.78 10.81L6.17 10.81L6.17 20.69ZM7.57 12.22L18.37 12.22L18.37 19.28L16.18 19.28L16.18 23.41C16.18 23.78 15.88 24.08 15.51 24.08C15.13 24.08 14.83 23.78 14.83 23.41L14.83 19.28L11.17 19.28L11.17 23.41C11.17 23.78 10.86 24.08 10.49 24.08C10.11 24.08 9.81 23.78 9.81 23.41L9.81 19.28L7.57 19.28L7.57 12.22L7.57 12.22ZM19.54 2.35L18.41 1.52L16.93 3.52C15.82 2.73 14.45 2.26 12.97 2.26C11.68 2.26 10.46 2.62 9.43 3.25L8.16 1.52L7.03 2.35L8.31 4.1C6.99 5.33 6.17 7.08 6.17 9.02L6.17 9.73L19.78 9.73L19.78 9.02C19.78 7.27 19.1 5.66 17.99 4.46L19.54 2.35ZM7.62 8.32C7.97 5.7 10.24 3.66 12.97 3.66C15.71 3.66 17.98 5.7 18.33 8.32L7.62 8.32Z" />
</svg>
