<svg viewBox="0 0 37 37">
	<path d="M31.02 6.98C34.1 10.05 36 14.31 36 19C36 23.69 34.1 27.95 31.02 31.02C27.95 34.1 23.69 36 19 36C14.31 36 10.05 34.1 6.98 31.02C3.9 27.95 2 23.69 2 19C2 14.31 3.9 10.05 6.98 6.98C10.05 3.91 14.31 2 19 2C23.69 2 27.95 3.91 31.02 6.98ZM23.86 17.77L33.49 17.77C33.2 14.24 31.65 11.08 29.29 8.72C26.65 6.08 23.02 4.45 19 4.45C14.98 4.45 11.35 6.08 8.72 8.72C6.35 11.08 4.8 14.24 4.51 17.77L14.13 17.77C14.36 16.88 14.83 16.08 15.45 15.46C16.36 14.55 17.62 13.98 19 13.99C20.38 13.98 21.64 14.55 22.55 15.46C23.17 16.08 23.64 16.88 23.86 17.77ZM33.49 20.23L23.86 20.23C23.64 21.12 23.17 21.92 22.55 22.55C21.64 23.45 20.38 24.02 19 24.02C17.62 24.02 16.36 23.45 15.45 22.55C14.82 21.92 14.36 21.12 14.13 20.23L4.51 20.23C4.8 23.76 6.35 26.92 8.72 29.29C11.35 31.92 14.98 33.55 19 33.55C23.02 33.55 26.65 31.92 29.29 29.29C31.65 26.92 33.2 23.76 33.49 20.23ZM21.56 19C21.56 18.29 21.27 17.66 20.81 17.19C20.34 16.72 19.71 16.44 19 16.44C18.29 16.44 17.66 16.72 17.19 17.19C16.72 17.66 16.44 18.29 16.44 19C16.44 19.71 16.72 20.35 17.19 20.81C17.66 21.28 18.29 21.56 19 21.56C19.71 21.56 20.34 21.28 20.81 20.81C21.27 20.35 21.56 19.71 21.56 19ZM19 17.78C19.68 17.78 20.23 18.33 20.23 19C20.23 19.68 19.68 20.23 19 20.23C18.32 20.23 17.77 19.68 17.77 19C17.77 18.33 18.32 17.78 19 17.78Z" />
</svg>
