<svg viewBox="0 0 26 27">
	<path d="M4.12 10.82C1.96 14.34 3.33 19.69 5.73 22.93C6.93 24.55 8.14 26 9.8 26C9.83 26 9.86 26 9.89 26C10.67 25.97 11.24 25.74 11.78 25.53C12.39 25.28 13.03 25.03 14.02 25.03C14.96 25.03 15.56 25.27 16.15 25.51C16.72 25.74 17.31 25.98 18.18 25.97C20.05 25.94 21.2 24.37 22.21 22.98C23.27 21.54 23.8 20.13 23.98 19.6L23.99 19.58C24.02 19.48 23.97 19.38 23.88 19.34C23.87 19.33 23.86 19.33 23.86 19.33C23.53 19.2 20.64 18 20.61 14.74C20.59 12.08 22.78 10.68 23.22 10.42L23.24 10.41C23.29 10.38 23.32 10.34 23.33 10.28C23.34 10.23 23.33 10.18 23.3 10.13C21.78 8.06 19.46 7.75 18.53 7.71C18.39 7.7 18.25 7.69 18.11 7.69C17.02 7.69 15.96 8.08 15.12 8.39C14.54 8.61 14.03 8.79 13.68 8.79C13.29 8.79 12.79 8.6 12.2 8.39C11.42 8.09 10.53 7.76 9.59 7.76C9.56 7.76 9.54 7.76 9.52 7.76C7.33 7.79 5.26 8.97 4.12 10.82ZM18.53 2C17.21 2.05 15.62 2.81 14.67 3.86C13.86 4.73 13.07 6.19 13.28 7.66C13.29 7.75 13.37 7.83 13.47 7.83C13.56 7.84 13.65 7.84 13.74 7.84C15.04 7.84 16.43 7.17 17.39 6.09C18.39 4.95 18.9 3.49 18.75 2.18C18.74 2.07 18.64 2 18.53 2Z" />
</svg>
