<svg viewBox="0 0 28 43">
	<path d="M19.29 23.71L22.21 25.25L20.75 16.65L26.98 10.55L18.36 9.29L14.49 1.48L10.62 9.29L2 10.55L8.23 16.65L6.77 25.25L9.7 23.71L10.69 31.6L4.53 31.6L4.53 41.25L24.46 41.25L24.46 31.6L18.3 31.6L19.29 23.71ZM6.99 12.18L12.17 11.42L14.49 6.73L16.81 11.42L21.99 12.18L18.25 15.84L19.13 21L14.49 18.57L9.86 21L10.74 15.84L6.99 12.18ZM11.9 22.56L14.49 21.2L17.09 22.56L15.95 31.6L13.04 31.6L11.9 22.56ZM22.13 38.92L6.86 38.92L6.86 33.93L22.13 33.93L22.13 38.92ZM11.13 35.26L17.86 35.26L17.86 37.59L11.13 37.59L11.13 35.26Z" />
</svg>
