<svg viewBox="0 0 22 22">
	<path id="Shape 1873" class="shp0" d="M16.1 7.41C16.46 7.41 16.75 7.71 16.74 8.07C16.74 8.43 16.44 8.72 16.08 8.71L15.42 8.7L15.45 7.39L16.1 7.41ZM16.08 8.71C16.44 8.72 16.74 8.43 16.74 8.07L16.73 8.94C16.72 9.3 16.42 9.59 16.06 9.58C15.71 9.58 15.42 9.28 15.42 8.92L15.42 8.7L16.08 8.71ZM2.37 7.17L15.45 7.39L15.42 8.7L2.35 8.48L2.37 7.17ZM16.67 12.65C15.86 12.63 15.13 12.85 14.5 13.26L13.6 13.25L13.62 12.3C14.33 11.78 15.16 11.46 16.05 11.36C16.26 11.34 16.47 11.33 16.69 11.34C19.57 11.39 21.88 13.77 21.83 16.65C21.78 19.54 19.4 21.84 16.51 21.8C14.71 21.77 13.13 20.82 12.22 19.42C11.67 18.58 11.35 17.56 11.37 16.48C11.38 16.12 11.68 15.83 12.04 15.84C12.39 15.84 12.68 16.14 12.68 16.5C12.64 18.66 14.37 20.45 16.53 20.49C18.7 20.52 20.49 18.79 20.52 16.63C20.56 14.47 18.83 12.68 16.67 12.65ZM15.5 13.93C15.5 14.29 15.2 14.58 14.84 14.58L12.93 14.54C13.14 14.55 13.34 14.45 13.47 14.27C13.77 13.86 14.11 13.53 14.5 13.26L14.86 13.27C15.23 13.27 15.51 13.58 15.5 13.93L15.5 13.93ZM12.98 11.28C13.34 11.28 13.63 11.58 13.63 11.94L13.62 12.3C13.16 12.62 12.75 13.02 12.41 13.51C12.33 13.62 12.29 13.75 12.29 13.88L12.32 11.92C12.33 11.56 12.63 11.27 12.98 11.28ZM14.5 13.26C14.11 13.53 13.77 13.86 13.47 14.27C13.34 14.45 13.14 14.55 12.93 14.54C12.87 14.54 12.82 14.53 12.76 14.51C12.74 14.51 12.72 14.51 12.69 14.5C12.53 14.42 12.39 14.29 12.33 14.12C12.32 14.09 12.3 14.05 12.3 14.01C12.29 13.97 12.29 13.92 12.29 13.88C12.29 13.75 12.33 13.62 12.41 13.51C12.75 13.02 13.16 12.62 13.62 12.3L13.6 13.25L14.5 13.26ZM12.76 14.51C12.74 14.51 12.72 14.51 12.69 14.5C12.72 14.51 12.74 14.51 12.76 14.51ZM12.45 4.29C12.93 4.3 13.31 4.7 13.3 5.18C13.3 5.66 12.9 6.04 12.42 6.04C11.94 6.03 11.55 5.63 11.56 5.15C11.57 4.67 11.97 4.28 12.45 4.29ZM12.3 14.01C12.3 14.05 12.32 14.09 12.33 14.12C12.32 14.09 12.3 14.04 12.3 14.01ZM9.89 13.84C10.25 13.84 10.54 14.15 10.53 14.5C10.53 14.86 10.23 15.15 9.87 15.15L2.24 15.02L2.26 13.71L9.89 13.84ZM8.96 4.23C9.44 4.24 9.83 4.64 9.82 5.12C9.81 5.6 9.41 5.98 8.93 5.98C8.45 5.97 8.07 5.57 8.08 5.09C8.08 4.61 8.48 4.23 8.96 4.23ZM5.48 4.18C5.96 4.18 6.34 4.58 6.33 5.06C6.32 5.54 5.93 5.93 5.45 5.92C4.97 5.91 4.58 5.51 4.59 5.03C4.6 4.55 4.99 4.17 5.48 4.18ZM2.26 13.71L2.24 15.02L2.02 15.01C1.67 15.01 1.38 14.71 1.38 14.35C1.39 13.99 1.69 13.7 2.05 13.71L2.26 13.71ZM2.37 7.17L2.35 8.48L1.7 8.47C1.34 8.46 1.05 8.16 1.06 7.81C1.06 7.45 1.36 7.16 1.72 7.16L2.37 7.17ZM14.45 2.15L3.55 1.96C2.95 1.95 2.45 2.43 2.44 3.03L2.37 7.17L1.72 7.16C1.36 7.16 1.06 7.45 1.06 7.81L1.14 3.01C1.16 1.69 2.25 0.63 3.57 0.66L14.47 0.84C15.79 0.86 16.85 1.95 16.82 3.28L16.74 8.07C16.75 7.71 16.46 7.41 16.1 7.41L15.45 7.39L15.52 3.25C15.53 2.65 15.05 2.16 14.45 2.15ZM10.65 20.39C11.01 20.4 11.3 20.7 11.29 21.05C11.29 21.41 10.99 21.7 10.63 21.7L3.22 21.57C1.9 21.55 0.84 20.46 0.87 19.13L1.06 7.81C1.05 8.16 1.34 8.46 1.7 8.47L2.35 8.48L2.26 13.71L2.05 13.71C1.69 13.7 1.39 13.99 1.38 14.35C1.38 14.71 1.67 15.01 2.02 15.01L2.24 15.02L2.17 19.16C2.16 19.76 2.64 20.25 3.24 20.26L10.65 20.39Z" />
</svg>
