<svg viewBox="0 0 21 23">
	<path d="M16.35 12.27L16.35 10.4C16.35 7.67 14.6 5.36 12.2 4.6L12.2 3.76C12.2 2.79 11.44 2 10.5 2C9.56 2 8.8 2.79 8.8 3.76L8.8 4.6C6.4 5.36 4.64 7.67 4.64 10.4L4.64 12.27C4.64 14.66 3.76 16.93 2.16 18.66C2 18.83 1.95 19.08 2.04 19.3C2.13 19.51 2.34 19.65 2.57 19.65L7.72 19.65C7.99 20.99 9.13 22 10.5 22C11.87 22 13.01 20.99 13.27 19.65L18.43 19.65C18.66 19.65 18.86 19.51 18.95 19.3C19.04 19.08 19 18.83 18.84 18.66C17.24 16.93 16.35 14.66 16.35 12.27ZM9.93 3.76C9.93 3.43 10.19 3.17 10.5 3.17C10.81 3.17 11.07 3.43 11.07 3.76L11.07 4.37C10.88 4.35 10.69 4.34 10.5 4.34C10.31 4.34 10.12 4.35 9.93 4.37L9.93 3.76ZM10.5 20.83C9.76 20.83 9.13 20.34 8.9 19.65L12.1 19.65C11.87 20.34 11.24 20.83 10.5 20.83L10.5 20.83ZM3.79 18.48C5.08 16.69 5.78 14.53 5.78 12.27L5.78 10.4C5.78 7.7 7.9 5.51 10.5 5.51C13.1 5.51 15.22 7.7 15.22 10.4L15.22 12.27C15.22 14.53 15.92 16.69 17.21 18.48L3.79 18.48ZM17.86 10.4C17.86 10.72 18.12 10.98 18.43 10.98C18.74 10.98 19 10.72 19 10.4C19 8.05 18.11 5.84 16.51 4.18C16.29 3.95 15.93 3.95 15.71 4.18C15.49 4.41 15.49 4.78 15.71 5.01C17.1 6.45 17.86 8.36 17.86 10.4L17.86 10.4ZM2.57 10.98C2.88 10.98 3.13 10.72 3.13 10.4C3.13 8.36 3.9 6.45 5.29 5.01C5.51 4.78 5.51 4.41 5.29 4.18C5.07 3.95 4.71 3.95 4.49 4.18C2.88 5.84 2 8.05 2 10.4C2 10.72 2.25 10.98 2.57 10.98Z" />
</svg>
