<svg viewBox="0 0 16 19">
	<path d="M11.9 8.67C12.42 8.22 12.83 7.64 13.07 6.96C13.23 6.51 13.32 6.05 13.32 5.57C13.32 3.31 11.48 1.47 9.22 1.47L2.61 1.47C2.27 1.47 2 1.74 2 2.08L2 16.54C2 16.87 2.27 17.15 2.61 17.15L10.54 17.15C11.22 17.15 11.89 17.01 12.44 16.76C12.75 16.61 12.88 16.25 12.74 15.94C12.6 15.64 12.24 15.5 11.93 15.64C11.54 15.82 11.04 15.92 10.54 15.92L3.22 15.92L3.22 2.69L9.22 2.69C10.8 2.69 12.09 3.98 12.09 5.57C12.09 5.9 12.04 6.23 11.92 6.54C11.51 7.68 10.43 8.44 9.22 8.44C9.19 8.44 9.16 8.45 9.13 8.45L5.67 8.45C5.33 8.45 5.06 8.72 5.06 9.06C5.06 9.4 5.33 9.68 5.67 9.68L10.54 9.68C12.26 9.68 13.66 11.08 13.66 12.81C13.66 13.16 13.61 13.5 13.5 13.8C13.4 14.12 13.57 14.47 13.89 14.57C13.95 14.6 14.02 14.61 14.08 14.61C14.34 14.61 14.58 14.44 14.66 14.19C14.81 13.76 14.88 13.3 14.88 12.81C14.88 10.88 13.63 9.24 11.9 8.67Z" />
</svg>
