<svg viewBox="0 0 22 21">
	<path d="M21.4 5.05C21.37 4.84 21.24 4.64 21.03 4.55L11.47 0.09C11.3 0.01 11.1 0.01 10.93 0.09L1.37 4.55C1.16 4.64 1.03 4.83 1 5.05C1 5.06 1 5.12 1 5.12L1 15.95C1 16.21 1.16 16.44 1.4 16.54L10.96 20.36C11.04 20.39 11.12 20.41 11.2 20.41C11.28 20.41 11.36 20.39 11.44 20.36L21 16.54C21.24 16.44 21.4 16.21 21.4 15.95L21.4 5.12C21.4 5.12 21.4 5.06 21.4 5.05ZM11.2 1.37L19.16 5.08L16.09 6.3L7.99 2.87L11.2 1.37ZM6.43 3.59L14.41 6.97L11.2 8.26L3.24 5.08L6.43 3.59ZM2.27 6.06L10.56 9.38L10.56 18.83L2.27 15.52L2.27 6.06ZM11.84 18.83L11.84 9.38L20.13 6.06L20.13 15.52L11.84 18.83Z" />
</svg>
