<svg viewBox="0 0 27 27">
	<path d="M25.31 14.23L21.15 14.23L21.15 12.79C23.24 12.46 24.84 10.64 24.84 8.46L24.84 7.54C24.84 7.16 24.54 6.85 24.15 6.85C23.77 6.85 23.46 7.16 23.46 7.54L23.46 8.46C23.46 9.88 22.47 11.07 21.15 11.38L21.15 10.77C21.15 10.13 20.64 9.61 20 9.61L19.31 9.61L19.31 7.08C19.31 5.62 18.26 4.4 16.88 4.13L17.4 2.97C17.56 2.62 17.4 2.22 17.05 2.06C16.7 1.9 16.29 2.06 16.14 2.41L15.4 4.08L12.6 4.08L11.86 2.41C11.71 2.06 11.3 1.9 10.95 2.06C10.6 2.22 10.44 2.62 10.6 2.97L11.11 4.13C9.73 4.4 8.69 5.62 8.69 7.08L8.69 9.61L8 9.61C7.36 9.61 6.84 10.13 6.84 10.77L6.84 11.38C5.52 11.07 4.54 9.88 4.54 8.46L4.54 7.54C4.54 7.16 4.23 6.85 3.84 6.85C3.46 6.85 3.15 7.16 3.15 7.54L3.15 8.46C3.15 10.64 4.75 12.46 6.84 12.79L6.84 14.23L2.69 14.23C2.31 14.23 2 14.54 2 14.92C2 15.3 2.31 15.61 2.69 15.61L6.84 15.61L6.84 17.05C4.75 17.39 3.15 19.2 3.15 21.38L3.15 22.31C3.15 22.69 3.46 23 3.84 23C4.23 23 4.54 22.69 4.54 22.31L4.54 21.38C4.54 19.97 5.52 18.78 6.84 18.47L6.84 18.85C6.84 22.79 10.05 26 14 26C17.94 26 21.15 22.79 21.15 18.85L21.15 18.47C22.47 18.78 23.46 19.97 23.46 21.38L23.46 22.31C23.46 22.69 23.77 23 24.15 23C24.54 23 24.84 22.69 24.84 22.31L24.84 21.38C24.84 19.2 23.24 17.39 21.15 17.05L21.15 15.61L25.31 15.61C25.69 15.61 26 15.3 26 14.92C26 14.54 25.69 14.23 25.31 14.23ZM10.08 7.08C10.08 6.19 10.8 5.46 11.69 5.46L16.31 5.46C17.2 5.46 17.92 6.19 17.92 7.08L17.92 9.61L10.08 9.61L10.08 7.08ZM19.77 18.85C19.77 22.03 17.18 24.61 14 24.61C10.82 24.61 8.23 22.03 8.23 18.85L8.23 11L13.31 11L13.31 17.69C13.31 18.07 13.62 18.38 14 18.38C14.38 18.38 14.69 18.07 14.69 17.69L14.69 11L19.77 11L19.77 18.85Z" />
</svg>
