<svg viewBox="0 0 21 21">
	<path d="M19.06 14.2C19.44 14.2 19.75 13.89 19.75 13.51L19.75 6.16C19.75 4.63 18.5 3.39 16.98 3.39L16.07 3.39L16.07 2.69C16.07 2.31 15.76 2 15.38 2C15 2 14.69 2.31 14.69 2.69L14.69 3.39L11.53 3.39L11.53 2.69C11.53 2.31 11.22 2 10.84 2C10.46 2 10.15 2.31 10.15 2.69L10.15 3.39L7.03 3.39L7.03 2.69C7.03 2.31 6.72 2 6.33 2C5.95 2 5.64 2.31 5.64 2.69L5.64 3.39L4.77 3.39C3.24 3.39 2 4.63 2 6.16L2 16.98C2 18.5 3.24 19.75 4.77 19.75L16.98 19.75C18.5 19.75 19.75 18.5 19.75 16.98C19.75 16.59 19.44 16.28 19.06 16.28C18.67 16.28 18.36 16.59 18.36 16.98C18.36 17.74 17.74 18.36 16.98 18.36L4.77 18.36C4.01 18.36 3.39 17.74 3.39 16.98L3.39 6.16C3.39 5.39 4.01 4.77 4.77 4.77L5.64 4.77L5.64 5.47C5.64 5.85 5.95 6.16 6.33 6.16C6.72 6.16 7.03 5.85 7.03 5.47L7.03 4.77L10.15 4.77L10.15 5.47C10.15 5.85 10.46 6.16 10.84 6.16C11.22 6.16 11.53 5.85 11.53 5.47L11.53 4.77L14.69 4.77L14.69 5.47C14.69 5.85 15 6.16 15.38 6.16C15.76 6.16 16.07 5.85 16.07 5.47L16.07 4.77L16.98 4.77C17.74 4.77 18.36 5.39 18.36 6.16L18.36 13.51C18.36 13.89 18.67 14.2 19.06 14.2ZM6.33 8.59C6.72 8.59 7.03 8.9 7.03 9.28C7.03 9.66 6.72 9.97 6.33 9.97C5.95 9.97 5.64 9.66 5.64 9.28C5.64 8.9 5.95 8.59 6.33 8.59ZM12.36 8.59C12.75 8.59 13.06 8.9 13.06 9.28C13.06 9.66 12.75 9.97 12.36 9.97C11.98 9.97 11.67 9.66 11.67 9.28C11.67 8.9 11.98 8.59 12.36 8.59ZM15.38 8.59C15.76 8.59 16.07 8.9 16.07 9.28C16.07 9.66 15.76 9.97 15.38 9.97C15 9.97 14.69 9.66 14.69 9.28C14.69 8.9 15 8.59 15.38 8.59ZM6.33 11.6C6.72 11.6 7.03 11.91 7.03 12.3C7.03 12.68 6.72 12.99 6.33 12.99C5.95 12.99 5.64 12.68 5.64 12.3C5.64 11.91 5.95 11.6 6.33 11.6ZM6.33 14.62C6.72 14.62 7.03 14.93 7.03 15.31C7.03 15.69 6.72 16.01 6.33 16.01C5.95 16.01 5.64 15.69 5.64 15.31C5.64 14.93 5.95 14.62 6.33 14.62ZM9.35 8.59C9.73 8.59 10.04 8.9 10.04 9.28C10.04 9.66 9.73 9.97 9.35 9.97C8.97 9.97 8.65 9.66 8.65 9.28C8.65 8.9 8.97 8.59 9.35 8.59ZM9.35 11.6C9.73 11.6 10.04 11.91 10.04 12.3C10.04 12.68 9.73 12.99 9.35 12.99C8.97 12.99 8.65 12.68 8.65 12.3C8.65 11.91 8.97 11.6 9.35 11.6ZM9.35 14.62C9.73 14.62 10.04 14.93 10.04 15.31C10.04 15.69 9.73 16.01 9.35 16.01C8.97 16.01 8.65 15.69 8.65 15.31C8.65 14.93 8.97 14.62 9.35 14.62ZM12.36 11.6C12.75 11.6 13.06 11.91 13.06 12.3C13.06 12.68 12.75 12.99 12.36 12.99C11.98 12.99 11.67 12.68 11.67 12.3C11.67 11.91 11.98 11.6 12.36 11.6ZM15.38 11.6C15.76 11.6 16.07 11.91 16.07 12.3C16.07 12.68 15.76 12.99 15.38 12.99C15 12.99 14.69 12.68 14.69 12.3C14.69 11.91 15 11.6 15.38 11.6ZM12.36 14.62C12.75 14.62 13.06 14.93 13.06 15.31C13.06 15.69 12.75 16.01 12.36 16.01C11.98 16.01 11.67 15.69 11.67 15.31C11.67 14.93 11.98 14.62 12.36 14.62Z" />
</svg>
