<svg viewBox="0 0 22 21">
	<path d="M11.42 4.15C11.43 4.15 11.44 4.15 11.46 4.15C13.17 4.15 14.78 4.81 15.98 6.02C17.2 7.23 17.86 8.85 17.85 10.57C17.85 10.96 18.16 11.28 18.55 11.28C18.55 11.28 18.55 11.28 18.56 11.28C18.94 11.28 19.26 10.97 19.26 10.58C19.27 8.48 18.46 6.5 16.98 5.02C15.5 3.55 13.55 2.74 11.46 2.74C11.44 2.74 11.43 2.74 11.42 2.74C11.03 2.74 10.72 3.06 10.72 3.45C10.72 3.84 11.03 4.15 11.42 4.15ZM20 16.5C19.97 15.81 19.68 15.16 19.18 14.67C18.2 13.73 17.38 13.18 16.59 12.95C15.51 12.64 14.51 12.93 13.62 13.8C13.62 13.8 13.61 13.8 13.61 13.8L12.66 14.75C12.07 14.41 10.92 13.68 9.66 12.43L9.57 12.34C8.32 11.09 7.59 9.93 7.25 9.34L8.2 8.39C8.2 8.39 8.2 8.38 8.2 8.38C9.07 7.49 9.36 6.49 9.05 5.41C8.82 4.62 8.27 3.8 7.33 2.82C6.84 2.32 6.19 2.03 5.5 2C4.8 1.98 4.13 2.22 3.61 2.68L3.59 2.7C3.58 2.71 3.57 2.72 3.56 2.73C2.53 3.76 1.99 5.21 2 6.91C2.01 9.8 3.6 13.1 6.25 15.75C6.25 15.75 6.25 15.75 6.26 15.76C6.75 16.25 7.32 16.75 7.94 17.22C8.24 17.45 8.68 17.4 8.92 17.09C9.16 16.78 9.1 16.34 8.79 16.1C8.22 15.66 7.7 15.21 7.24 14.76C7.24 14.75 7.24 14.75 7.24 14.75C4.85 12.36 3.42 9.43 3.41 6.9C3.4 5.59 3.79 4.5 4.55 3.74L4.55 3.73C5.06 3.27 5.84 3.3 6.31 3.79C8.13 5.68 8 6.57 7.2 7.4L5.89 8.71C5.69 8.92 5.63 9.23 5.75 9.49C5.78 9.57 6.58 11.34 8.58 13.33L8.67 13.42C10.66 15.42 12.43 16.22 12.51 16.25C12.77 16.37 13.08 16.31 13.29 16.11L14.6 14.8C15.43 14 16.32 13.87 18.21 15.69C18.7 16.16 18.73 16.94 18.27 17.45L18.26 17.45C17.51 18.2 16.43 18.59 15.13 18.59C15.12 18.59 15.11 18.59 15.1 18.59C14.06 18.59 12.86 18.3 11.63 17.77C11.27 17.62 10.86 17.78 10.71 18.14C10.55 18.5 10.72 18.91 11.07 19.06C12.5 19.68 13.85 19.99 15.09 20C15.11 20 15.12 20 15.13 20C16.82 20 18.25 19.46 19.27 18.44C19.28 18.43 19.29 18.42 19.3 18.41L19.32 18.39C19.78 17.87 20.02 17.2 20 16.5ZM14.99 7.01C14.23 6.26 13.51 6.06 13.16 5.96C12.79 5.86 12.4 6.08 12.3 6.45C12.19 6.83 12.41 7.21 12.79 7.32C13.07 7.4 13.5 7.51 13.99 8.01C14.47 8.48 14.59 8.91 14.68 9.19L14.69 9.22C14.78 9.53 15.06 9.73 15.36 9.73C15.43 9.73 15.49 9.72 15.56 9.7C15.93 9.59 16.15 9.2 16.04 8.83L16.03 8.79C15.92 8.42 15.72 7.74 14.99 7.01Z" />
</svg>
