<svg viewBox="0 0 37 37">
	<path d="M8.64 19.26C9.37 19.26 9.97 19.86 9.97 20.59C9.97 21.33 9.37 21.92 8.64 21.92C7.91 21.92 7.31 21.33 7.31 20.59C7.31 19.86 7.91 19.26 8.64 19.26ZM34.67 24.38C35.4 24.38 36 23.78 36 23.05L36 17.14C36 16.66 35.74 16.22 35.32 15.98C34.91 15.75 34.4 15.76 33.98 16L28.63 19.24C28.62 17.36 27.63 15.72 26.15 14.78C27.67 13.44 28.63 11.48 28.63 9.3C28.63 5.28 25.35 2 21.32 2C17.31 2 14.04 5.26 14.02 9.27C13.44 6.52 10.99 4.46 8.08 4.46C4.72 4.46 2 7.18 2 10.53C2 12.34 2.79 13.96 4.05 15.08C2.8 16.05 2 17.57 2 19.26L2 30.69C2 33.62 4.38 36 7.31 36L23.32 36C26.24 36 28.63 33.62 28.63 30.69L28.63 30.63L33.99 33.82C34.4 34.06 34.91 34.07 35.33 33.83C35.74 33.6 36 33.16 36 32.68L36 29.69C36 28.96 35.4 28.36 34.67 28.36C33.94 28.36 33.34 28.96 33.34 29.69L33.34 30.34L27.98 27.15C27.57 26.91 27.06 26.91 26.64 27.14C26.23 27.38 25.97 27.82 25.97 28.3L25.97 30.69C25.97 32.15 24.78 33.34 23.32 33.34L7.31 33.34C5.85 33.34 4.66 32.15 4.66 30.69L4.66 19.26C4.66 17.8 5.85 16.61 7.31 16.61L23.32 16.61C24.78 16.61 25.97 17.8 25.97 19.26L25.97 21.59C25.97 22.07 26.23 22.51 26.65 22.75C27.06 22.98 27.58 22.97 27.99 22.73L33.34 19.49L33.34 23.05C33.34 23.78 33.94 24.38 34.67 24.38ZM8.08 13.95C6.19 13.95 4.66 12.42 4.66 10.53C4.66 8.65 6.19 7.11 8.08 7.11C9.96 7.11 11.5 8.65 11.5 10.53C11.5 12.42 9.96 13.95 8.08 13.95ZM13.09 13.95C13.74 13.02 14.12 11.89 14.15 10.68C14.38 11.91 14.93 13.03 15.69 13.95L13.09 13.95ZM21.32 13.95C18.76 13.95 16.68 11.87 16.68 9.3C16.68 6.74 18.76 4.66 21.32 4.66C23.89 4.66 25.97 6.74 25.97 9.3C25.97 11.87 23.89 13.95 21.32 13.95Z" />
</svg>
