<svg viewBox="0 0 27 21">
	<path d="M25.06 12.35C25.58 12.35 26 11.92 26 11.39L26 5.83C26 3.72 24.32 2 22.25 2L5.75 2C3.68 2 2 3.72 2 5.83L2 16.17C2 18.28 3.68 20 5.75 20L22.25 20C24.32 20 26 18.28 26 16.17C26 15.64 25.58 15.21 25.06 15.21C24.54 15.21 24.12 15.64 24.12 16.17C24.12 17.23 23.28 18.08 22.25 18.08L5.75 18.08C4.72 18.08 3.87 17.23 3.87 16.17L3.87 8.99L24.12 8.99L24.12 11.39C24.12 11.92 24.54 12.35 25.06 12.35ZM3.87 7.08L3.87 5.83C3.87 4.77 4.72 3.91 5.75 3.91L22.25 3.91C23.28 3.91 24.12 4.77 24.12 5.83L24.12 7.08L3.87 7.08Z" />
</svg>
