<svg viewBox="0 0 27 27">
	<path d="M23.89 17.51L23.19 17.51L23.19 16.81C23.19 15.65 22.24 14.7 21.08 14.7L14.7 14.7L14.7 13.3C15.36 13.3 16.15 13.3 16.81 13.3C17.2 13.3 17.51 12.98 17.51 12.59C17.51 12.2 17.2 11.89 16.81 11.89L16.11 11.89L16.11 10.48L18.22 10.48C19.38 10.48 20.33 9.54 20.33 8.37L20.33 4.11C20.33 2.95 19.38 2 18.22 2L9.78 2C8.62 2 7.67 2.95 7.67 4.11L7.67 8.37C7.67 9.54 8.62 10.48 9.78 10.48L11.89 10.48L11.89 11.89L11.19 11.89C10.8 11.89 10.48 12.2 10.48 12.59C10.48 12.98 10.8 13.3 11.19 13.3C11.84 13.3 12.63 13.3 13.3 13.3L13.3 14.7L6.92 14.7C5.76 14.7 4.81 15.65 4.81 16.81L4.81 17.51L4.11 17.51C2.95 17.51 2 18.46 2 19.62L2 21.03C2 22.19 2.95 23.14 4.11 23.14L4.81 23.14L4.81 24.59L4.11 24.59C3.72 24.59 3.41 24.91 3.41 25.3C3.41 25.68 3.72 26 4.11 26L6.92 26C7.31 26 7.62 25.68 7.62 25.3C7.62 24.91 7.31 24.59 6.92 24.59L6.22 24.59L6.22 23.14L6.92 23.14C8.08 23.14 9.03 22.19 9.03 21.03L9.03 19.62C9.03 18.46 8.08 17.51 6.92 17.51L6.22 17.51L6.22 16.81C6.22 16.42 6.53 16.11 6.92 16.11L13.3 16.11L13.3 17.51L12.59 17.51C11.43 17.51 10.48 18.46 10.48 19.62L10.48 21.03C10.48 22.19 11.43 23.14 12.59 23.14L13.3 23.14L13.3 24.59L12.59 24.59C12.2 24.59 11.89 24.91 11.89 25.3C11.89 25.68 12.2 26 12.59 26L15.41 26C15.79 26 16.11 25.68 16.11 25.3C16.11 24.91 15.79 24.59 15.41 24.59L14.7 24.59L14.7 23.14L15.41 23.14C16.57 23.14 17.51 22.19 17.51 21.03L17.51 19.62C17.51 18.46 16.57 17.51 15.41 17.51L14.7 17.51L14.7 16.11L21.08 16.11C21.46 16.11 21.78 16.42 21.78 16.81L21.78 17.51L21.08 17.51C19.91 17.51 18.97 18.46 18.97 19.62L18.97 21.03C18.97 22.19 19.91 23.14 21.08 23.14L21.78 23.14L21.78 24.59L21.08 24.59C20.69 24.59 20.37 24.91 20.37 25.3C20.37 25.68 20.69 26 21.08 26L23.89 26C24.28 26 24.59 25.68 24.59 25.3C24.59 24.91 24.28 24.59 23.89 24.59L23.19 24.59L23.19 23.14L23.89 23.14C25.05 23.14 26 22.19 26 21.03L26 19.62C26 18.46 25.05 17.51 23.89 17.51ZM6.92 18.92C7.31 18.92 7.62 19.24 7.62 19.62L7.62 21.03C7.62 21.42 7.31 21.73 6.92 21.73L4.11 21.73C3.72 21.73 3.41 21.42 3.41 21.03L3.41 19.62C3.41 19.24 3.72 18.92 4.11 18.92L6.92 18.92ZM9.78 9.08C9.39 9.08 9.08 8.76 9.08 8.37L9.08 4.11C9.08 3.72 9.39 3.41 9.78 3.41L18.22 3.41C18.61 3.41 18.92 3.72 18.92 4.11L18.92 8.37C18.92 8.76 18.61 9.08 18.22 9.08C16.53 9.08 11.46 9.08 9.78 9.08ZM15.41 18.92C15.79 18.92 16.11 19.24 16.11 19.62L16.11 21.03C16.11 21.42 15.79 21.73 15.41 21.73L12.59 21.73C12.2 21.73 11.89 21.42 11.89 21.03L11.89 19.62C11.89 19.24 12.2 18.92 12.59 18.92L15.41 18.92ZM13.3 11.89L13.3 10.48L14.7 10.48L14.7 11.89L13.3 11.89ZM24.59 21.03C24.59 21.42 24.28 21.73 23.89 21.73L21.08 21.73C20.69 21.73 20.37 21.42 20.37 21.03L20.37 19.62C20.37 19.24 20.69 18.92 21.08 18.92L23.89 18.92C24.28 18.92 24.59 19.24 24.59 19.62L24.59 21.03Z" />
</svg>
