<svg viewBox="0 0 37 36">
	<path d="M20.83 0L16.67 0C15.33 0 14.24 1.09 14.24 2.43L14.24 6.59C14.24 7.92 15.33 9.01 16.67 9.01L20.83 9.01C22.17 9.01 23.26 7.92 23.26 6.59L23.26 2.43C23.26 1.09 22.17 0 20.83 0ZM21.18 6.59C21.18 6.78 21.02 6.93 20.83 6.93L16.67 6.93C16.48 6.93 16.32 6.78 16.32 6.59L16.32 2.43C16.32 2.24 16.48 2.08 16.67 2.08L20.83 2.08C21.02 2.08 21.18 2.24 21.18 2.43L21.18 6.59ZM34.07 13.24L29.91 13.24C28.57 13.24 27.49 14.33 27.49 15.67L27.49 19.83C27.49 21.17 28.57 22.26 29.91 22.26L34.07 22.26C35.41 22.26 36.5 21.17 36.5 19.83L36.5 15.67C36.5 14.33 35.41 13.24 34.07 13.24ZM34.42 19.83C34.42 20.02 34.26 20.18 34.07 20.18L29.91 20.18C29.72 20.18 29.57 20.02 29.57 19.83L29.57 15.67C29.57 15.48 29.72 15.32 29.91 15.32L34.07 15.32C34.26 15.32 34.42 15.48 34.42 15.67L34.42 19.83ZM7.59 22.26C8.92 22.26 10.01 21.17 10.01 19.83L10.01 15.67C10.01 14.33 8.92 13.24 7.59 13.24L3.43 13.24C2.09 13.24 1 14.33 1 15.67L1 19.83C1 21.17 2.09 22.26 3.43 22.26L7.59 22.26ZM3.08 19.83L3.08 15.67C3.08 15.48 3.24 15.32 3.43 15.32L7.59 15.32C7.78 15.32 7.93 15.48 7.93 15.67L7.93 19.83C7.93 20.02 7.78 20.18 7.59 20.18L3.43 20.18C3.24 20.18 3.08 20.02 3.08 19.83ZM20.83 26.49L16.67 26.49C15.33 26.49 14.24 27.57 14.24 28.91L14.24 33.07C14.24 34.41 15.33 35.5 16.67 35.5L20.83 35.5C22.17 35.5 23.26 34.41 23.26 33.07L23.26 28.91C23.26 27.57 22.17 26.49 20.83 26.49ZM21.18 33.07C21.18 33.26 21.02 33.42 20.83 33.42L16.67 33.42C16.48 33.42 16.32 33.26 16.32 33.07L16.32 28.91C16.32 28.72 16.48 28.57 16.67 28.57L20.83 28.57C21.02 28.57 21.18 28.72 21.18 28.91L21.18 33.07ZM26.45 5.55L30.95 5.55L30.95 7.54L30.65 7.24C30.24 6.83 29.58 6.83 29.18 7.24C28.77 7.64 28.77 8.3 29.18 8.71L31.26 10.79C31.46 10.99 31.73 11.09 31.99 11.09C32.26 11.09 32.53 10.99 32.73 10.79L34.81 8.71C35.21 8.3 35.21 7.64 34.81 7.24C34.4 6.83 33.74 6.83 33.34 7.24L33.03 7.54L33.03 4.51C33.03 3.93 32.57 3.47 31.99 3.47L26.45 3.47C25.87 3.47 25.41 3.93 25.41 4.51C25.41 5.08 25.87 5.55 26.45 5.55L26.45 5.55ZM9.71 1.69C9.3 1.29 8.64 1.29 8.24 1.69C7.83 2.1 7.83 2.76 8.24 3.16L8.54 3.47L5.51 3.47C4.93 3.47 4.47 3.93 4.47 4.51L4.47 10.05C4.47 10.63 4.93 11.09 5.51 11.09C6.08 11.09 6.55 10.63 6.55 10.05L6.55 5.55L8.54 5.55L8.24 5.85C7.83 6.26 7.83 6.92 8.24 7.32C8.44 7.53 8.71 7.63 8.97 7.63C9.24 7.63 9.51 7.53 9.71 7.32L11.79 5.24C12.19 4.84 12.19 4.18 11.79 3.77L9.71 1.69ZM11.05 29.95L6.55 29.95L6.55 27.96L6.85 28.26C7.05 28.46 7.32 28.57 7.59 28.57C7.85 28.57 8.12 28.46 8.32 28.26C8.73 27.86 8.73 27.2 8.32 26.79L6.24 24.71C5.84 24.3 5.18 24.3 4.77 24.71L2.69 26.79C2.28 27.2 2.28 27.86 2.69 28.26C3.1 28.67 3.76 28.67 4.16 28.26L4.47 27.96L4.47 30.99C4.47 31.57 4.93 32.03 5.51 32.03L11.05 32.03C11.63 32.03 12.09 31.57 12.09 30.99C12.09 30.42 11.63 29.95 11.05 29.95ZM31.99 24.41C31.42 24.41 30.95 24.87 30.95 25.45L30.95 29.95L28.96 29.95L29.26 29.65C29.67 29.24 29.67 28.58 29.26 28.18C28.86 27.77 28.2 27.77 27.79 28.18L25.71 30.26C25.3 30.66 25.3 31.32 25.71 31.73L27.79 33.81C27.99 34.01 28.26 34.11 28.53 34.11C28.79 34.11 29.06 34.01 29.26 33.81C29.67 33.4 29.67 32.74 29.26 32.34L28.96 32.03L31.99 32.03C32.57 32.03 33.03 31.57 33.03 30.99L33.03 25.45C33.03 24.87 32.57 24.41 31.99 24.41L31.99 24.41Z" />
</svg>
