<svg viewBox="0 0 19 19">
	<path d="M15.66 4.34C14.14 2.83 12.14 2 10 2C7.86 2 5.85 2.83 4.34 4.34C2.83 5.85 2 7.86 2 10C2 12.14 2.83 14.14 4.34 15.66C5.85 17.17 7.86 18 10 18C12.14 18 14.14 17.17 15.66 15.66C17.17 14.14 18 12.14 18 10C18 7.86 17.17 5.85 15.66 4.34ZM10 16.75C6.28 16.75 3.25 13.72 3.25 10C3.25 6.28 6.28 3.25 10 3.25C13.72 3.25 16.75 6.28 16.75 10C16.75 13.72 13.72 16.75 10 16.75ZM9.37 4.5L10.62 4.5L10.62 10.03C10.62 10.38 10.34 10.66 10 10.66C9.65 10.66 9.37 10.38 9.37 10.03L9.37 4.5ZM6.21 9.44L4.57 8.91L4.95 7.72L6.59 8.25L6.21 9.44ZM6.59 11.75L4.95 12.28L4.57 11.09L6.21 10.56L6.59 11.75ZM7.29 5.17L8.3 6.57L7.28 7.3L6.28 5.9L7.29 5.17ZM15.4 8.91L13.76 9.44L13.38 8.25L15.01 7.72L15.4 8.91ZM13.69 5.9L12.69 7.3L11.67 6.57L12.68 5.17L13.69 5.9ZM9.37 13.78L10.62 13.78L10.62 15.5L9.37 15.5L9.37 13.78ZM7.28 12.7L8.3 13.43L7.29 14.83L6.28 14.1L7.28 12.7Z" />
</svg>
