<svg  viewBox="0 0 64.8 64.8">
	<path d="m 32.773438,17.025391 a 1.750175,1.750175 0 0 0 -1.722657,1.77539 v 0.5 a 1.750175,1.750175 0 1 0 3.5,0 v -0.5 a 1.750175,1.750175 0 0 0 -1.777343,-1.77539 z m 0,6.5 a 1.750175,1.750175 0 0 0 -1.722657,1.77539 v 1 a 1.750175,1.750175 0 1 0 3.5,0 v -1 a 1.750175,1.750175 0 0 0 -1.777343,-1.77539 z m 0,7 a 1.750175,1.750175 0 0 0 -1.722657,1.77539 v 1 a 1.750175,1.750175 0 1 0 3.5,0 v -1 a 1.750175,1.750175 0 0 0 -1.777343,-1.77539 z m -0.373047,0.625 a 1.750175,1.750175 0 1 0 0,3.5 h 10.90039 a 1.750175,1.750175 0 1 0 0,-3.5 z M 21.681641,20.732422 a 1.750175,1.750175 0 0 0 -1.21875,3.005859 L 30.662109,33.9375 a 1.750175,1.750175 0 1 0 2.47461,-2.474609 L 22.9375,21.261719 a 1.750175,1.750175 0 0 0 -1.255859,-0.529297 z m 10.71875,-10.082031 c -11.991466,0 -21.75,9.758534 -21.75,21.75 0,11.991465 9.758534,21.75 21.75,21.75 11.991465,0 21.75,-9.758535 21.75,-21.75 0,-11.991466 -9.758535,-21.75 -21.75,-21.75 z m 0,3.5 c 10.099924,0 18.25,8.150075 18.25,18.25 0,10.099924 -8.150076,18.25 -18.25,18.25 -10.099925,0 -18.25,-8.150076 -18.25,-18.25 0,-10.099925 8.150075,-18.25 18.25,-18.25 z" />
</svg>