<svg viewBox="0 0 37 32">
	<path d="M28.8 16.79C29.61 11.98 25.88 7.63 21.05 7.63C18.29 7.63 15.77 9.07 14.35 11.38C10.2 9.45 5.5 12.85 6.03 17.41C3.64 18.5 2 20.89 2 23.66C2 27.45 5.08 30.53 8.87 30.53L28.65 30.53C32.44 30.53 35.52 27.45 35.52 23.66C35.52 19.93 32.52 16.88 28.8 16.79ZM28.65 28.57L8.87 28.57C6.17 28.57 3.96 26.37 3.96 23.66C3.96 21.49 5.36 19.6 7.44 18.97C7.95 18.81 8.24 18.28 8.1 17.77C7.11 14.16 11.22 11.42 14.18 13.54C14.68 13.9 15.4 13.7 15.65 13.13C16.59 10.98 18.71 9.59 21.05 9.59C25.12 9.59 27.96 13.63 26.61 17.45C26.38 18.08 26.86 18.76 27.54 18.76L28.65 18.76C31.36 18.76 33.56 20.96 33.56 23.66C33.56 26.37 31.36 28.57 28.65 28.57ZM27.9 3.64C29.93 4.84 31.63 6.55 32.82 8.59C33.09 9.06 33.69 9.22 34.16 8.94C34.63 8.67 34.79 8.07 34.52 7.6C33.16 5.27 31.22 3.32 28.9 1.95C28.43 1.67 27.83 1.83 27.55 2.3C27.28 2.76 27.43 3.36 27.9 3.64L27.9 3.64ZM26.33 7.29C27.46 8.03 28.44 9.02 29.17 10.15C29.47 10.6 30.07 10.74 30.53 10.44C30.99 10.14 31.11 9.54 30.82 9.08C29.93 7.71 28.78 6.55 27.41 5.65C26.96 5.35 26.35 5.48 26.05 5.93C25.76 6.38 25.88 6.99 26.33 7.29L26.33 7.29ZM22.21 20.22L17.31 17.27C16.65 16.87 15.82 17.35 15.82 18.11L15.82 24C15.82 24.76 16.65 25.23 17.31 24.84L22.21 21.9C22.85 21.52 22.85 20.6 22.21 20.22ZM17.78 22.27L17.78 19.84L19.8 21.06L17.78 22.27Z" />
</svg>
