<svg viewBox="0 0 37 36">
	<path d="M31.45 10.9C30.89 6.61 26.48 3.86 22.4 5.32C20.82 2.67 17.94 1 14.82 1C9.41 1 5.36 5.85 6.07 10.9C3.8 11.31 2 13.29 2 15.72C2 18.43 4.26 20.63 6.97 20.63L30.53 20.63C33.24 20.63 35.5 18.43 35.5 15.72C35.5 13.28 33.68 11.32 31.45 10.9L31.45 10.9ZM30.53 18.66L6.97 18.66C5.34 18.66 3.96 17.32 3.96 15.72C3.96 14.12 5.34 12.78 6.97 12.78L8.52 12.78L8.2 11.55C7.02 7.01 10.51 2.96 14.82 2.96C17.49 2.96 19.94 4.54 21.06 6.99L21.49 7.93L22.4 7.45C25.79 5.71 29.55 8.24 29.55 11.79L29.55 12.78L30.53 12.78C32.16 12.78 33.54 14.12 33.54 15.72C33.54 17.32 32.16 18.66 30.53 18.66ZM13.84 30.74L13.84 22.59L11.88 22.59L11.88 30.74L9.63 28.49L8.24 29.88L12.86 34.5L17.48 29.88L16.09 28.49L13.84 30.74ZM20.02 26.8L21.41 28.19L23.66 25.94L23.66 34.5L25.62 34.5L25.62 25.94L27.87 28.19L29.26 26.8L24.64 22.18L20.02 26.8Z" />
</svg>
