<svg  viewBox="0 0 24 25" >
	<path d="M20.34 16.01C19.6 16.01 18.97 16.46 18.71 17.11L17.52 17.11L17.52 13.41C18.41 13.4 19.23 13.05 19.86 12.42C20.49 11.79 20.83 10.94 20.83 10.04C20.81 8.22 19.3 6.73 17.45 6.73L17.43 6.73C17.16 5.5 16.11 4.55 14.83 4.42C14.7 3.64 14.33 2.93 13.76 2.36C13.03 1.64 12.08 1.24 11.07 1.24C9.02 1.24 7.35 2.84 7.22 4.85C4.99 4.99 3.21 6.85 3.21 9.13C3.21 11.17 4.65 12.88 6.56 13.31L6.56 17.11L5.37 17.11C5.12 16.46 4.49 16.01 3.75 16.01C2.78 16.01 2 16.79 2 17.75C2 18.72 2.78 19.5 3.75 19.5C4.49 19.5 5.12 19.04 5.37 18.4L7.85 18.4L7.85 13.41L9.13 13.41L9.13 19.64C8.49 19.9 8.03 20.53 8.03 21.26C8.03 22.23 8.82 23.01 9.78 23.01C10.74 23.01 11.53 22.23 11.53 21.26C11.53 20.52 11.06 19.89 10.41 19.63L10.41 13.41L13.62 13.41L13.62 19.64C12.98 19.9 12.53 20.53 12.53 21.26C12.53 22.23 13.31 23.01 14.28 23.01C15.24 23.01 16.02 22.23 16.02 21.26C16.02 20.52 15.56 19.89 14.91 19.63L14.91 13.41L16.24 13.41L16.24 18.4L18.71 18.4C18.97 19.04 19.6 19.5 20.34 19.5C21.3 19.5 22.08 18.72 22.08 17.75C22.08 16.79 21.3 16.01 20.34 16.01ZM3.75 18.22C3.49 18.22 3.28 18.01 3.28 17.75C3.28 17.5 3.49 17.29 3.75 17.29C4 17.29 4.21 17.5 4.21 17.75C4.21 18.01 4 18.22 3.75 18.22ZM9.78 21.73C9.52 21.73 9.32 21.52 9.32 21.26C9.32 21.01 9.52 20.8 9.78 20.8C10.04 20.8 10.24 21.01 10.24 21.26C10.24 21.52 10.04 21.73 9.78 21.73ZM14.28 21.73C14.02 21.73 13.81 21.52 13.81 21.26C13.81 21.01 14.02 20.8 14.28 20.8C14.53 20.8 14.74 21.01 14.74 21.26C14.74 21.52 14.53 21.73 14.28 21.73ZM4.49 9.13C4.49 7.47 5.84 6.12 7.5 6.12L8.5 6.12L8.5 5.09C8.5 3.67 9.65 2.52 11.07 2.52C11.74 2.52 12.37 2.79 12.85 3.27C13.33 3.75 13.6 4.38 13.6 5.05L13.6 5.7L14.53 5.69C15.46 5.69 16.22 6.44 16.22 7.37L16.22 8.01L17.45 8.01C18.6 8.01 19.53 8.93 19.54 10.05C19.55 10.61 19.34 11.13 18.95 11.52C18.56 11.91 18.04 12.13 17.49 12.13L7.5 12.13C5.84 12.13 4.49 10.78 4.49 9.13L4.49 9.13ZM20.34 18.22C20.08 18.22 19.87 18.01 19.87 17.75C19.87 17.5 20.08 17.29 20.34 17.29C20.59 17.29 20.8 17.5 20.8 17.75C20.8 18.01 20.59 18.22 20.34 18.22Z" />
</svg>
