<svg viewBox="0 0 23 22">
	<path  d="M18.06 7.59C17.38 4.18 14.08 1.98 10.67 2.66C8.18 3.15 6.24 5.09 5.74 7.58C3.33 7.86 1.59 10.04 1.87 12.45C2.13 14.67 4.01 16.34 6.24 16.34L9.39 16.34C9.73 16.34 10.01 16.06 10.01 15.71C10.01 15.37 9.73 15.09 9.39 15.09L6.24 15.09C4.51 15.08 3.11 13.66 3.12 11.93C3.13 10.2 4.55 8.8 6.28 8.81C6.6 8.81 6.87 8.57 6.91 8.25C7.23 5.49 9.72 3.52 12.48 3.84C14.8 4.11 16.63 5.93 16.89 8.25C16.95 8.57 17.23 8.81 17.55 8.81C19.29 8.81 20.7 10.21 20.7 11.95C20.7 13.68 19.29 15.09 17.55 15.09L14.41 15.09C14.07 15.09 13.79 15.37 13.79 15.71C13.79 16.06 14.07 16.34 14.41 16.34L17.55 16.34C19.98 16.33 21.94 14.35 21.93 11.92C21.91 9.71 20.26 7.85 18.06 7.59ZM14.12 13.8C14.36 14.05 14.76 14.06 15.01 13.81C15.26 13.57 15.27 13.18 15.03 12.93C15.02 12.92 15.01 12.92 15.01 12.91L12.34 10.25C12.1 10 11.7 10 11.46 10.25C11.46 10.25 11.46 10.25 11.46 10.25L8.79 12.91C8.54 13.15 8.53 13.55 8.77 13.8C9.02 14.05 9.41 14.06 9.66 13.81C9.67 13.81 9.67 13.8 9.68 13.8L11.27 12.21L11.27 20.11C11.27 20.46 11.55 20.74 11.9 20.74C12.25 20.74 12.53 20.46 12.53 20.11L12.53 12.21L14.12 13.8Z" />
</svg>
