<svg viewBox="0 0 23 23">
	<path d="M17.49 7.41C16.83 4.13 13.64 2 10.36 2.65C7.96 3.13 6.08 5 5.6 7.4C3.27 7.67 1.6 9.77 1.87 12.1C2.12 14.24 3.93 15.85 6.09 15.85L9.12 15.85C9.45 15.85 9.73 15.58 9.73 15.25C9.73 14.91 9.45 14.64 9.12 14.64L6.09 14.64C4.42 14.63 3.07 13.27 3.08 11.6C3.09 9.92 4.45 8.58 6.13 8.59C6.43 8.59 6.69 8.35 6.73 8.05C7.03 5.39 9.44 3.48 12.1 3.79C14.34 4.05 16.1 5.81 16.36 8.05C16.41 8.36 16.68 8.59 17 8.59C18.67 8.59 20.03 9.94 20.03 11.61C20.03 13.29 18.67 14.64 17 14.64L13.97 14.64C13.63 14.64 13.36 14.91 13.36 15.25C13.36 15.58 13.63 15.85 13.97 15.85L17 15.85C19.34 15.84 21.23 13.93 21.22 11.59C21.2 9.46 19.61 7.67 17.49 7.41ZM9.41 17.46C9.18 17.22 8.8 17.22 8.56 17.45C8.32 17.68 8.31 18.07 8.54 18.31C8.55 18.31 8.55 18.32 8.56 18.32L11.13 20.89C11.36 21.13 11.75 21.13 11.98 20.89C11.98 20.89 11.98 20.89 11.98 20.89L14.56 18.32C14.8 18.09 14.8 17.7 14.57 17.46C14.34 17.22 13.95 17.22 13.71 17.45C13.71 17.45 13.7 17.46 13.7 17.46L12.16 19L12.16 11.38C12.16 11.04 11.89 10.77 11.56 10.77C11.22 10.77 10.95 11.04 10.95 11.38L10.95 19L9.41 17.46Z" />
</svg>
