<svg viewBox="0 0 26 24">
	<path d="M17.54 13.14C17.93 13.14 18.28 12.88 18.39 12.51C18.55 11.96 18.12 11.41 17.54 11.41L16.89 11.41L17.07 10.77C17.23 10.22 16.8 9.67 16.22 9.67C15.82 9.67 15.47 9.93 15.36 10.3L15.04 11.41L13.25 11.41L13.43 10.77C13.59 10.22 13.16 9.67 12.57 9.67C12.18 9.67 11.83 9.93 11.72 10.3L11.4 11.41L10.24 11.41C9.84 11.41 9.49 11.66 9.39 12.04C9.23 12.59 9.65 13.14 10.24 13.14L10.9 13.14L10.41 14.83L9.25 14.83C8.85 14.83 8.51 15.09 8.4 15.46C8.24 16.02 8.66 16.57 9.25 16.57L9.91 16.57L9.73 17.2C9.57 17.75 10 18.3 10.58 18.3C10.98 18.3 11.33 18.04 11.44 17.67L11.76 16.57L13.55 16.57L13.37 17.2C13.21 17.75 13.64 18.3 14.23 18.3C14.62 18.3 14.97 18.04 15.08 17.67L15.4 16.57L16.55 16.57C16.94 16.57 17.29 16.31 17.4 15.93C17.56 15.38 17.14 14.83 16.55 14.83L15.9 14.83L16.39 13.14L17.54 13.14ZM14.05 14.83L12.26 14.83L12.75 13.14L14.54 13.14L14.05 14.83ZM22.07 2L4.66 2C3.19 2 2 3.17 2 4.6L2 18.99C2 20.9 3.59 22.46 5.55 22.46L21.18 22.46C23.14 22.46 24.73 20.9 24.73 18.99C24.73 18.51 24.34 18.13 23.84 18.13C23.35 18.13 22.96 18.51 22.96 18.99C22.96 19.95 22.16 20.73 21.18 20.73L5.55 20.73C4.57 20.73 3.77 19.95 3.77 18.99L3.77 7.24L22.96 7.24L22.96 14.66C22.96 15.14 23.35 15.52 23.84 15.52C24.34 15.52 24.73 15.14 24.73 14.66L24.73 4.6C24.73 3.17 23.54 2 22.07 2ZM18.47 3.73C18.96 3.73 19.36 4.12 19.36 4.6C19.36 5.08 18.96 5.47 18.47 5.47C17.98 5.47 17.58 5.08 17.58 4.6C17.58 4.12 17.98 3.73 18.47 3.73ZM22.91 4.6C22.91 5.08 22.51 5.47 22.02 5.47C21.53 5.47 21.14 5.08 21.14 4.6C21.14 4.12 21.53 3.73 22.02 3.73C22.51 3.73 22.91 4.12 22.91 4.6ZM3.77 4.6C3.77 4.12 4.17 3.73 4.66 3.73L15.96 3.73C15.86 4 15.81 4.3 15.81 4.6C15.81 4.92 15.87 5.23 15.98 5.51L3.77 5.51L3.77 4.6Z" />
</svg>
