<svg viewBox="0 0 18 19">
	<path d="M9.22 13.67C9.14 13.75 9.13 13.84 9.13 13.89C9.13 13.94 9.14 14.03 9.22 14.11L11.35 16.23C11.6 16.48 11.6 16.88 11.36 17.13C11.23 17.26 11.07 17.32 10.91 17.32C10.74 17.32 10.58 17.26 10.46 17.13L8.33 15.01C8.03 14.71 7.86 14.31 7.86 13.89C7.86 13.47 8.03 13.07 8.33 12.77L10.46 10.65C10.71 10.4 11.11 10.4 11.36 10.65C11.6 10.9 11.6 11.3 11.35 11.55L9.22 13.67ZM16.02 12.75L13.89 10.62C13.64 10.38 13.24 10.38 12.99 10.63C12.75 10.87 12.75 11.28 12.99 11.52L15.12 13.65C15.21 13.73 15.22 13.82 15.22 13.87C15.22 13.91 15.21 14.01 15.12 14.09L12.99 16.21C12.75 16.46 12.75 16.86 12.99 17.11C13.12 17.23 13.28 17.29 13.44 17.29C13.6 17.29 13.77 17.23 13.89 17.11L16.02 14.99C16.32 14.69 16.48 14.29 16.48 13.87C16.48 13.44 16.32 13.05 16.02 12.75ZM13.6 3.58L13.6 8.53C13.6 8.89 13.88 9.17 14.23 9.17C14.58 9.17 14.86 8.89 14.86 8.53L14.86 3.58C14.86 2.18 13.73 1.05 12.33 1.05L6.57 1.05C5.92 1.05 5.27 1.31 4.81 1.78L2.72 3.9C2.25 4.36 2 4.98 2 5.64L2 14.75C2 16.15 3.14 17.29 4.53 17.29L7.51 17.29C7.86 17.29 8.15 17.01 8.15 16.66C8.15 16.31 7.86 16.02 7.51 16.02L4.53 16.02C3.84 16.02 3.27 15.45 3.27 14.75L3.27 6.41L5.14 6.41C6.36 6.41 7.36 5.41 7.36 4.19C7.36 3.84 7.07 3.55 6.72 3.55C6.37 3.55 6.09 3.84 6.09 4.19C6.09 4.71 5.66 5.14 5.14 5.14L3.38 5.14C3.43 5.01 3.52 4.89 3.62 4.79L5.71 2.67C5.94 2.45 6.25 2.31 6.57 2.31L12.33 2.31C13.03 2.31 13.6 2.88 13.6 3.58Z" />
</svg>
