<svg viewBox="0 0 15 17">
	<path d="M9.54 16L4.23 16C3 16 2 15.02 2 13.81L2 6.4C2 5.2 3 4.21 4.23 4.21L9.54 4.21C10.77 4.21 11.77 5.2 11.77 6.4L11.77 13.81C11.77 15.02 10.77 16 9.54 16ZM4.23 5.31C3.61 5.31 3.11 5.8 3.11 6.4L3.11 13.81C3.11 14.42 3.61 14.91 4.23 14.91L9.54 14.91C10.16 14.91 10.66 14.42 10.66 13.81L10.66 6.4C10.66 5.8 10.16 5.31 9.54 5.31L4.23 5.31ZM14 12.45L14 4.19C14 2.98 13 2 11.77 2L5.59 2C5.28 2 5.03 2.24 5.03 2.55C5.03 2.85 5.28 3.09 5.59 3.09L11.77 3.09C12.39 3.09 12.89 3.58 12.89 4.19L12.89 12.45C12.89 12.75 13.14 12.99 13.44 12.99C13.75 12.99 14 12.75 14 12.45Z" />
</svg>
