<svg viewBox="0 0 27 27">
	<path d="M23.43 1.95L3.98 1.95C2.83 1.95 1.9 2.88 1.9 4.03L1.9 17.95C1.9 19.09 2.83 20.02 3.98 20.02L10.2 20.02L10.2 21.41L8.98 21.41C8.19 21.41 7.48 21.85 7.13 22.55L6.12 24.56C5.9 25.01 6.23 25.56 6.74 25.56L20.67 25.56C21.18 25.56 21.51 25.01 21.29 24.56L20.28 22.55C19.95 21.88 19.15 21.41 18.34 21.41L17.12 21.41L17.12 20.02L23.43 20.02C24.58 20.02 25.51 19.09 25.51 17.95L25.51 4.03C25.51 2.88 24.58 1.95 23.43 1.95ZM18.34 22.79C18.62 22.79 18.94 22.96 19.05 23.17L19.55 24.17L7.86 24.17L8.36 23.17C8.48 22.94 8.72 22.79 8.98 22.79L18.34 22.79ZM11.58 21.41L11.58 20.02L15.73 20.02L15.73 21.41L11.58 21.41ZM24.12 17.95C24.12 18.33 23.81 18.64 23.43 18.64L3.98 18.64C3.6 18.64 3.28 18.33 3.28 17.95L3.28 17.26L24.12 17.26L24.12 17.95ZM24.12 15.87L3.28 15.87L3.28 4.03C3.28 3.64 3.6 3.33 3.98 3.33L23.43 3.33C23.81 3.33 24.12 3.64 24.12 4.03L24.12 15.87ZM13.66 4.72C10.99 4.72 8.82 6.89 8.82 9.56C8.82 12.23 10.99 14.4 13.66 14.4C16.33 14.4 18.5 12.23 18.5 9.56C18.5 6.89 16.33 4.72 13.66 4.72ZM13.66 13.02C11.75 13.02 10.2 11.46 10.2 9.56C10.2 7.89 11.39 6.49 12.97 6.17L12.97 9.56C12.97 9.94 13.28 10.24 13.66 10.24L17.05 10.24C16.73 11.82 15.33 13.02 13.66 13.02ZM14.35 8.87L14.35 6.17C15.7 6.45 16.77 7.51 17.05 8.87L14.35 8.87Z" />
</svg>
