<svg viewBox="0 0 22 24">
	<path d="M1 0.57L1 18.12L10.44 18.12L10.44 19.58C9.87 19.79 9.41 20.24 9.21 20.82L2.35 20.82L2.35 22.17L9.21 22.17C9.48 22.95 10.23 23.52 11.11 23.52C11.99 23.52 12.74 22.95 13.02 22.17L19.88 22.17L19.88 20.82L13.02 20.82C12.82 20.24 12.36 19.79 11.79 19.58L11.79 18.12L21.23 18.12C21.23 17.09 21.23 1.61 21.23 0.57L1 0.57ZM11.11 22.17C10.74 22.17 10.44 21.86 10.44 21.49C10.44 21.12 10.74 20.82 11.11 20.82C11.48 20.82 11.79 21.12 11.79 21.49C11.79 21.86 11.48 22.17 11.11 22.17ZM19.88 16.77L2.35 16.77L2.35 12.72L19.88 12.72L19.88 16.77ZM19.88 11.37L2.35 11.37L2.35 7.32L19.88 7.32L19.88 11.37ZM2.35 5.97L2.35 1.92L19.88 1.92L19.88 5.97L2.35 5.97ZM3.7 3.27L9.09 3.27L9.09 4.62L3.7 4.62L3.7 3.27ZM11.79 3.27L13.14 3.27L13.14 4.62L11.79 4.62L11.79 3.27ZM14.48 3.27L15.83 3.27L15.83 4.62L14.48 4.62L14.48 3.27ZM17.18 3.27L18.53 3.27L18.53 4.62L17.18 4.62L17.18 3.27ZM3.7 8.67L9.09 8.67L9.09 10.02L3.7 10.02L3.7 8.67ZM11.79 8.67L13.14 8.67L13.14 10.02L11.79 10.02L11.79 8.67ZM14.48 8.67L15.83 8.67L15.83 10.02L14.48 10.02L14.48 8.67ZM17.18 8.67L18.53 8.67L18.53 10.02L17.18 10.02L17.18 8.67ZM3.7 14.07L9.09 14.07L9.09 15.42L3.7 15.42L3.7 14.07ZM11.79 14.07L13.14 14.07L13.14 15.42L11.79 15.42L11.79 14.07ZM14.48 14.07L15.83 14.07L15.83 15.42L14.48 15.42L14.48 14.07ZM17.18 14.07L18.53 14.07L18.53 15.42L17.18 15.42L17.18 14.07Z" />
</svg>
