<svg viewBox="0 0 16 18">
	<path d="M13.88 4.07L10.5 4.07L10.5 3.42C10.5 2.5 9.74 1.75 8.82 1.75L6.87 1.75C5.94 1.75 5.19 2.5 5.19 3.42L5.19 4.07L1.81 4.07C1.5 4.07 1.25 4.32 1.25 4.63C1.25 4.94 1.5 5.19 1.81 5.19L2.39 5.19L3.07 14.02C3.07 14.03 3.07 14.03 3.07 14.03C3.12 14.59 3.37 15.1 3.79 15.48C4.2 15.86 4.74 16.06 5.29 16.06L10.39 16.06C11.56 16.06 12.51 15.2 12.62 14.05C12.65 13.74 12.42 13.47 12.11 13.44C11.8 13.41 11.53 13.64 11.5 13.94C11.45 14.52 10.97 14.95 10.39 14.95L5.29 14.95C4.71 14.95 4.24 14.51 4.18 13.93L3.51 5.19L12.18 5.19L11.7 11.38C11.68 11.69 11.91 11.96 12.21 11.98C12.23 11.98 12.24 11.98 12.26 11.98C12.55 11.98 12.79 11.76 12.82 11.47L13.3 5.19L13.88 5.19C14.19 5.19 14.44 4.94 14.44 4.63C14.44 4.32 14.19 4.07 13.88 4.07ZM9.38 4.07L6.31 4.07L6.31 3.42C6.31 3.12 6.56 2.86 6.87 2.86L8.82 2.86C9.13 2.86 9.38 3.12 9.38 3.42L9.38 4.07ZM5.3 6.31C5 6.32 4.76 6.58 4.77 6.89L5.05 13.29C5.06 13.59 5.31 13.83 5.61 13.83C5.62 13.83 5.62 13.83 5.63 13.83C5.94 13.81 6.18 13.55 6.17 13.24L5.89 6.84C5.87 6.53 5.61 6.29 5.3 6.31ZM9.8 6.84L9.52 13.24C9.51 13.55 9.75 13.81 10.05 13.83C10.06 13.83 10.07 13.83 10.08 13.83C10.38 13.83 10.62 13.59 10.64 13.29L10.92 6.89C10.93 6.58 10.69 6.32 10.38 6.31C10.07 6.29 9.81 6.53 9.8 6.84ZM7.28 6.86L7.28 13.27C7.28 13.58 7.53 13.83 7.84 13.83C8.15 13.83 8.4 13.58 8.4 13.27L8.4 6.86C8.4 6.55 8.15 6.3 7.84 6.3C7.53 6.3 7.28 6.55 7.28 6.86Z" />
</svg>
