<svg viewBox="0 0 44 40">
	<path d="M40.69 26.04C41.56 26.04 42.26 25.34 42.26 24.47L42.26 17.56C42.26 14.09 39.44 11.27 35.97 11.27L32.75 11.27L32.75 8.28C32.75 4.82 29.93 2 26.46 2L8.29 2C4.82 2 2 4.82 2 8.28L2 20C2 23.47 4.82 26.29 8.29 26.29L15.92 26.29L15.92 29.43L12.3 29.43C11.43 29.43 10.73 30.13 10.73 31C10.73 31.87 11.43 32.57 12.3 32.57L22.22 32.57C22.35 35.92 25.12 38.61 28.5 38.61L35.97 38.61C39.44 38.61 42.26 35.79 42.26 32.33C42.26 31.46 41.56 30.75 40.69 30.75C39.82 30.75 39.12 31.46 39.12 32.33C39.12 34.06 37.71 35.47 35.97 35.47L28.5 35.47C26.77 35.47 25.36 34.06 25.36 32.33L25.36 17.56C25.36 15.82 26.77 14.41 28.5 14.41L35.97 14.41C37.71 14.41 39.12 15.82 39.12 17.56L39.12 24.47C39.12 25.34 39.82 26.04 40.69 26.04ZM19.06 26.29L22.21 26.29L22.21 29.43L19.06 29.43L19.06 26.29ZM22.21 17.56L22.21 23.14L8.29 23.14C6.56 23.14 5.14 21.73 5.14 20L5.14 8.28C5.14 6.55 6.56 5.14 8.29 5.14L26.46 5.14C28.19 5.14 29.6 6.55 29.6 8.28L29.6 11.27L28.5 11.27C25.03 11.27 22.21 14.09 22.21 17.56ZM33.77 29.89C34.64 29.89 35.34 30.59 35.34 31.46C35.34 32.33 34.64 33.03 33.77 33.03L30.7 33.03C29.84 33.03 29.13 32.33 29.13 31.46C29.13 30.59 29.84 29.89 30.7 29.89L33.77 29.89Z" />
</svg>
