<svg viewBox="0 0 25 25">
	<path d="M22.19 16.19L20.78 16.19C20.48 16.19 20.18 16.14 19.91 16.05L15.28 23.26L14.67 24.1L14.62 24.16C14.09 24.7 13.38 25 12.61 25C11.06 25 9.8 23.74 9.8 22.19C9.8 21.87 9.85 21.57 9.95 21.27L9.97 21.22L10 21.16C10.15 20.86 10.3 20.55 10.47 20.22C10.89 19.38 11.58 18 11.69 17.59C11.62 17.1 10.96 16.8 10.49 16.8L4.33 16.8C2.85 16.8 1.66 15.6 1.66 14.12C1.66 13.64 1.79 13.17 2.03 12.76C1.39 12.27 1 11.5 1 10.66C1 9.99 1.24 9.35 1.68 8.86C1.8 8.73 1.92 8.61 2.06 8.51C1.83 8.11 1.71 7.66 1.71 7.19C1.71 6.17 2.28 5.29 3.12 4.83C2.96 4.5 2.87 4.13 2.87 3.75C2.87 2.15 4 1 5.56 1L14.73 1C15.25 1 15.67 1.42 15.67 1.94C15.67 2.46 15.25 2.87 14.73 2.87L5.56 2.87C4.83 2.87 4.75 3.48 4.75 3.75C4.75 4.13 5.08 4.34 5.18 4.4C5.7 4.69 5.78 5.1 5.78 5.33C5.78 5.92 5.27 6.39 4.61 6.39L4.4 6.39C3.95 6.39 3.58 6.75 3.58 7.19C3.58 7.47 3.74 7.73 3.99 7.87C4 7.88 4.02 7.89 4.03 7.9C4.45 8.12 4.66 8.44 4.66 8.85C4.66 9.21 4.42 9.82 3.53 9.87C3.18 9.89 2.87 10.25 2.87 10.66C2.87 11.02 3.13 11.34 3.48 11.43C4.04 11.57 4.42 12.01 4.42 12.53C4.42 12.79 4.33 13.16 3.88 13.47C3.66 13.62 3.53 13.86 3.53 14.12C3.53 14.56 3.89 14.92 4.33 14.92L10.49 14.92C11.92 14.92 13.5 15.94 13.57 17.58L13.57 17.61C13.57 18.17 13.16 19.05 12.15 21.06C11.99 21.37 11.85 21.66 11.71 21.93C11.69 22.01 11.68 22.1 11.68 22.19C11.68 22.7 12.1 23.12 12.61 23.12C12.85 23.12 13.07 23.04 13.24 22.89L13.71 22.22L18.42 14.9C18.13 14.46 17.97 13.94 17.97 13.37L17.97 3.81C17.97 2.26 19.23 1 20.78 1L22.19 1C23.74 1 25 2.26 25 3.81L25 13.37C25 14.93 23.74 16.19 22.19 16.19ZM23.12 3.81C23.12 3.3 22.7 2.87 22.19 2.87L20.78 2.87C20.26 2.87 19.84 3.3 19.84 3.81L19.84 13.37C19.84 13.89 20.26 14.31 20.78 14.31L22.19 14.31C22.7 14.31 23.12 13.89 23.12 13.37L23.12 3.81Z" />
</svg>
