<svg viewBox="0 0 17 17">
	<path d="M3.62 13.47C2.61 12.26 2 10.7 2 9C2 5.14 5.14 2 9 2C12.86 2 16 5.14 16 9C16 10.22 15.68 11.41 15.08 12.46C14.9 12.78 14.49 12.89 14.17 12.71C13.85 12.53 13.74 12.12 13.93 11.8C14.41 10.95 14.67 9.98 14.67 9C14.67 5.87 12.12 3.33 9 3.33C5.87 3.33 3.33 5.87 3.33 9C3.33 12.12 5.87 14.67 9 14.67C9.97 14.67 10.93 14.42 11.77 13.94C12.09 13.76 12.5 13.88 12.68 14.2C12.86 14.52 12.75 14.92 12.43 15.1C11.38 15.69 10.2 16 9 16C7.32 16 5.77 15.4 4.56 14.41M11.49 6.48L8.74 10.37C8.65 10.47 8.54 10.49 8.47 10.5C8.41 10.5 8.29 10.49 8.19 10.39C8.18 10.39 8.18 10.39 8.18 10.39L6.42 8.78C6.14 8.53 5.72 8.55 5.47 8.82C5.23 9.09 5.24 9.51 5.52 9.76L7.27 11.37C7.59 11.67 8.01 11.83 8.45 11.83C8.49 11.83 8.53 11.83 8.56 11.83C9.04 11.8 9.49 11.57 9.79 11.19C9.79 11.18 9.8 11.17 9.81 11.16L12.58 7.25C12.79 6.95 12.72 6.54 12.42 6.32C12.12 6.11 11.7 6.18 11.49 6.48Z" />
</svg>
