<svg viewBox="0 0 37 32">
	<path d="M35.53 3.62C35.41 3.55 32.68 1.72 25.97 1.72C19.27 1.72 16.54 3.55 16.42 3.62C16.15 3.81 15.99 4.12 15.99 4.45L15.99 6.45C14.46 6.76 12.42 7.36 9.89 8.55C3.82 11.4 2.11 14.21 2.05 14.33C1.88 14.62 1.86 14.97 2 15.27L6.09 23.98C8.1 28.27 12.37 30.87 16.93 30.87C17.93 30.87 18.96 30.75 19.97 30.48C19.97 30.48 19.98 30.48 19.98 30.48L19.98 30.48C20.09 30.45 20.2 30.4 20.3 30.33C22.08 29.05 23.42 27.36 24.26 25.48C24.76 25.64 25.27 25.77 25.79 25.86C25.82 25.87 25.85 25.87 25.88 25.87L25.88 25.87C25.91 25.88 25.94 25.88 25.97 25.88C26.04 25.88 26.1 25.87 26.16 25.86C31.84 24.82 35.96 19.86 35.96 14.08L35.96 4.45C35.96 4.12 35.8 3.81 35.53 3.62ZM7.91 23.13L4.08 14.96C4.75 14.17 6.62 12.31 10.74 10.37C14.86 8.44 17.49 8.19 18.52 8.18L22.35 16.35C24.37 20.65 23.07 25.76 19.28 28.58C14.68 29.7 9.93 27.43 7.91 23.13ZM33.95 14.08C33.95 18.83 30.61 22.91 25.97 23.85C25.62 23.77 25.27 23.68 24.93 23.58C25.41 21.7 25.44 19.71 24.98 17.78C26.22 17.43 27.62 17.75 28.6 18.73C28.79 18.92 29.05 19.02 29.31 19.02C29.56 19.02 29.82 18.92 30.02 18.73C30.41 18.33 30.41 17.7 30.02 17.3C28.48 15.77 26.29 15.29 24.34 15.87C24.29 15.74 24.23 15.62 24.18 15.49L22.54 12.02C23.36 12.01 24.12 11.69 24.69 11.12C25.09 10.72 25.09 10.09 24.69 9.69C24.3 9.3 23.67 9.3 23.27 9.69C23.07 9.89 22.8 10.01 22.52 10.01C22.23 10.01 21.97 9.89 21.77 9.69C21.64 9.57 21.49 9.48 21.34 9.44L20.09 6.78C19.95 6.48 19.67 6.27 19.34 6.21C19.29 6.21 18.84 6.14 18 6.19L18 5.06C18.93 4.63 21.41 3.73 25.97 3.73C30.53 3.73 33.01 4.62 33.95 5.06L33.95 14.08ZM29.86 12.02C30.68 12.02 31.45 11.7 32.03 11.12C32.43 10.72 32.43 10.09 32.03 9.69C31.64 9.3 31.01 9.3 30.61 9.69C30.41 9.89 30.14 10.01 29.86 10.01C29.57 10.01 29.31 9.89 29.1 9.69C28.71 9.3 28.08 9.3 27.68 9.69C27.29 10.09 27.29 10.72 27.68 11.12C28.26 11.7 29.04 12.02 29.86 12.02ZM13.02 18.25C13.21 17.73 12.94 17.15 12.42 16.96C11.64 16.68 10.81 16.72 10.06 17.07C9.32 17.42 8.76 18.04 8.48 18.81C8.29 19.33 8.56 19.91 9.08 20.1C9.19 20.14 9.31 20.16 9.42 20.16C9.83 20.16 10.22 19.9 10.37 19.49C10.46 19.23 10.66 19.01 10.92 18.89C11.18 18.77 11.46 18.76 11.73 18.85C12.25 19.04 12.83 18.77 13.02 18.25ZM15.73 16.98C15.84 17.02 15.95 17.04 16.07 17.04C16.48 17.04 16.86 16.78 17.01 16.37C17.11 16.11 17.3 15.89 17.56 15.77C17.82 15.65 18.11 15.64 18.38 15.73C18.9 15.92 19.48 15.65 19.66 15.13C19.85 14.61 19.58 14.03 19.06 13.84C17.46 13.27 15.7 14.09 15.12 15.69C14.93 16.21 15.2 16.79 15.73 16.98ZM20.16 20.92C20.34 20.4 20.07 19.83 19.55 19.64C19.03 19.45 18.45 19.72 18.26 20.24C17.57 22.16 15.44 23.16 13.52 22.47C12.99 22.28 12.42 22.55 12.23 23.07C12.04 23.6 12.31 24.17 12.83 24.36C13.47 24.59 14.13 24.7 14.77 24.7C17.11 24.7 19.32 23.25 20.16 20.92Z" />
</svg>
