<svg viewBox="0 0 45 43">
	<path d="M38.79 9.77C38.78 9.76 38.78 9.75 38.78 9.74C38.73 9.66 38.67 9.6 38.62 9.53C38.25 9.03 37.85 8.54 37.44 8.07C37.32 7.94 37.21 7.82 37.09 7.69C36.66 7.23 36.22 6.8 35.75 6.38C35.66 6.3 35.58 6.22 35.49 6.15C34.33 5.16 33.07 4.3 31.71 3.6C31.66 3.57 31.6 3.55 31.55 3.52C30.94 3.21 30.33 2.94 29.7 2.69C29.55 2.64 29.42 2.59 29.29 2.55C28.73 2.35 28.16 2.17 27.58 2.02C27.41 1.98 27.24 1.93 27.07 1.89C26.5 1.76 25.93 1.65 25.34 1.57C25.17 1.55 24.99 1.51 24.82 1.49C23.32 1.31 21.8 1.31 20.3 1.49C20.12 1.51 19.95 1.55 19.77 1.57C19.19 1.65 18.62 1.76 18.05 1.89C17.88 1.93 17.71 1.98 17.54 2.02C16.95 2.17 16.39 2.35 15.83 2.55C15.69 2.6 15.56 2.65 15.42 2.69C14.79 2.94 14.17 3.21 13.57 3.52C13.52 3.55 13.46 3.57 13.4 3.6C12.05 4.3 10.78 5.16 9.61 6.15C9.53 6.22 9.45 6.3 9.36 6.38C8.88 6.8 8.44 7.23 8.01 7.69C7.9 7.82 7.78 7.94 7.67 8.07C7.25 8.54 6.86 9.03 6.49 9.53C6.43 9.6 6.37 9.66 6.32 9.74C6.32 9.75 6.31 9.76 6.31 9.77C1.4 16.65 1.4 25.89 6.31 32.76C6.31 32.78 6.32 32.79 6.32 32.8C6.37 32.87 6.43 32.94 6.49 33.01C6.86 33.51 7.25 34 7.67 34.47C7.78 34.6 7.9 34.72 8.01 34.85C8.44 35.31 8.89 35.74 9.36 36.16C9.45 36.24 9.53 36.32 9.61 36.39C10.77 37.38 12.04 38.24 13.39 38.94C13.45 38.97 13.5 38.99 13.56 39.02C14.16 39.33 14.78 39.6 15.41 39.85C15.55 39.9 15.68 39.94 15.82 39.99C16.38 40.19 16.95 40.37 17.52 40.52C17.69 40.56 17.87 40.61 18.04 40.65C18.61 40.78 19.18 40.88 19.76 40.97C19.94 40.99 20.11 41.03 20.29 41.05C21.79 41.23 23.3 41.23 24.8 41.05C24.98 41.03 25.16 40.99 25.33 40.97C25.91 40.88 26.49 40.78 27.05 40.65C27.23 40.61 27.4 40.56 27.57 40.52C28.15 40.37 28.72 40.19 29.28 39.99C29.42 39.94 29.55 39.89 29.68 39.85C30.31 39.6 30.93 39.33 31.53 39.02C31.59 38.99 31.65 38.97 31.7 38.94C33.05 38.24 34.32 37.38 35.48 36.39C35.57 36.32 35.65 36.24 35.73 36.16C36.21 35.74 36.66 35.31 37.08 34.85C37.2 34.72 37.31 34.6 37.42 34.47C37.84 34 38.23 33.51 38.61 33.01C38.66 32.94 38.72 32.87 38.77 32.8C38.77 32.79 38.78 32.78 38.79 32.76C43.7 25.89 43.7 16.65 38.79 9.77ZM37.16 12.47C38.52 14.71 39.34 17.23 39.56 19.85L31.04 19.85C30.93 18.15 30.66 16.47 30.24 14.83C32.65 14.37 34.98 13.58 37.16 12.47ZM26.17 4.59C26.25 4.61 26.33 4.63 26.41 4.65C26.92 4.77 27.43 4.91 27.92 5.08C28 5.1 28.07 5.13 28.14 5.16C28.63 5.33 29.12 5.52 29.59 5.73C29.67 5.77 29.75 5.81 29.83 5.85C30.29 6.06 30.73 6.3 31.16 6.55L31.45 6.72C31.86 6.97 32.25 7.24 32.64 7.52C32.74 7.6 32.84 7.67 32.94 7.75C33.32 8.03 33.68 8.33 34.03 8.66C34.12 8.74 34.21 8.82 34.3 8.91C34.67 9.25 35.02 9.62 35.35 10C35.39 10.05 35.44 10.09 35.48 10.14C33.56 11.06 31.51 11.72 29.41 12.09C28.44 9.42 27.15 6.86 25.58 4.49C25.78 4.53 25.98 4.55 26.17 4.59ZM16.91 19.85C17.02 18.31 17.28 16.78 17.69 15.29C19.31 15.48 20.93 15.58 22.55 15.58C24.18 15.58 25.8 15.48 27.42 15.29C27.82 16.78 28.09 18.3 28.2 19.85L16.91 19.85ZM28.2 22.69C28.08 24.23 27.82 25.76 27.41 27.25C25.8 27.05 24.18 26.96 22.55 26.96C20.93 26.96 19.3 27.05 17.69 27.25C17.28 25.76 17.02 24.23 16.91 22.69L28.2 22.69ZM22.55 5.12C24.17 7.42 25.51 9.9 26.52 12.52C25.2 12.66 23.88 12.73 22.55 12.73C21.23 12.73 19.91 12.66 18.59 12.52C19.61 9.9 20.94 7.42 22.55 5.12ZM9.76 10C10.09 9.62 10.44 9.25 10.8 8.91C10.89 8.82 10.99 8.74 11.08 8.66C11.43 8.34 11.79 8.03 12.17 7.74C12.27 7.67 12.37 7.6 12.47 7.52C12.85 7.24 13.25 6.97 13.66 6.72L13.95 6.55C14.38 6.29 14.82 6.06 15.27 5.85C15.36 5.81 15.44 5.77 15.52 5.73C15.99 5.51 16.47 5.32 16.96 5.16C17.04 5.13 17.11 5.1 17.19 5.08C17.68 4.91 18.18 4.77 18.7 4.65C18.78 4.63 18.85 4.6 18.93 4.59C19.13 4.54 19.33 4.52 19.53 4.49C17.96 6.86 16.67 9.42 15.7 12.09C13.59 11.72 11.55 11.06 9.63 10.14C9.67 10.09 9.71 10.05 9.76 10ZM7.95 12.47C10.13 13.58 12.46 14.37 14.87 14.83C14.44 16.47 14.17 18.15 14.07 19.85L5.54 19.85C5.76 17.23 6.58 14.71 7.95 12.47ZM7.95 30.07C6.58 27.83 5.76 25.31 5.54 22.69L14.07 22.69C14.18 24.39 14.44 26.07 14.87 27.71C12.46 28.16 10.13 28.96 7.95 30.07ZM18.93 37.95C18.85 37.93 18.77 37.91 18.7 37.89C18.19 37.77 17.68 37.63 17.19 37.46C17.11 37.44 17.04 37.41 16.96 37.38C16.47 37.21 15.99 37.02 15.52 36.81C15.44 36.77 15.35 36.73 15.27 36.69C14.82 36.48 14.38 36.24 13.95 35.99L13.66 35.82C13.25 35.57 12.85 35.3 12.46 35.02C12.37 34.94 12.27 34.87 12.17 34.79C11.79 34.51 11.42 34.2 11.08 33.88C10.99 33.8 10.89 33.72 10.8 33.63C10.44 33.28 10.09 32.92 9.75 32.54C9.71 32.49 9.67 32.44 9.62 32.4C11.55 31.48 13.59 30.82 15.69 30.45C16.67 33.12 17.95 35.68 19.53 38.05C19.33 38.01 19.13 37.99 18.93 37.95ZM22.55 37.42C20.93 35.12 19.6 32.64 18.59 30.02C21.22 29.73 23.88 29.73 26.52 30.02L26.52 30.02C25.5 32.64 24.17 35.12 22.55 37.42ZM35.35 32.54C35.02 32.92 34.67 33.29 34.3 33.63C34.21 33.72 34.12 33.8 34.03 33.88C33.68 34.2 33.31 34.51 32.94 34.8C32.84 34.87 32.74 34.94 32.64 35.02C32.25 35.3 31.85 35.57 31.44 35.82L31.16 35.99C30.73 36.24 30.29 36.48 29.83 36.69C29.75 36.73 29.67 36.77 29.59 36.81C29.11 37.03 28.63 37.21 28.14 37.38C28.07 37.41 28 37.44 27.92 37.46C27.42 37.63 26.92 37.77 26.41 37.89C26.33 37.91 26.25 37.93 26.17 37.95C25.98 37.99 25.77 38.01 25.58 38.05C27.15 35.68 28.43 33.12 29.41 30.45C31.51 30.82 33.55 31.48 35.48 32.4C35.44 32.45 35.39 32.49 35.35 32.54ZM37.16 30.07C34.98 28.96 32.65 28.16 30.24 27.71C30.67 26.07 30.93 24.39 31.04 22.69L39.56 22.69C39.34 25.31 38.52 27.83 37.16 30.07Z" />
</svg>
