<svg  viewBox="0 0 27 27" >
	
				<path  d="M24.59 3.41C23.69 2.5 22.48 2 21.2 2C19.91 2 18.71 2.5 17.8 3.41L4.38 16.83C4.27 16.94 4.18 17.08 4.14 17.24L2.03 24.81C1.94 25.14 2.03 25.49 2.28 25.73C2.45 25.9 2.69 26 2.94 26C3.02 26 3.11 25.99 3.19 25.96L10.77 23.81C11.08 23.72 11.33 23.47 11.42 23.15C11.5 22.83 11.41 22.48 11.17 22.25L6.4 17.46L17.52 6.34L21.66 10.47L13.14 18.97C12.78 19.33 12.78 19.92 13.14 20.29C13.51 20.66 14.1 20.66 14.47 20.29L24.59 10.2C25.5 9.29 26 8.08 26 6.8C26 5.52 25.5 4.31 24.59 3.41ZM8.72 22.44L4.29 23.7L5.53 19.24L8.72 22.44ZM23.27 8.87L22.99 9.15L18.85 5.01L19.13 4.73C19.68 4.18 20.42 3.87 21.2 3.87C21.98 3.87 22.71 4.18 23.27 4.73C23.82 5.28 24.12 6.02 24.12 6.8C24.12 7.58 23.82 8.32 23.27 8.87Z" />
		
</svg>
