<svg viewBox="0 0 27 27" >
	<path d="M25.69 10.39L22.25 7.87L22.25 5.75C22.25 5.34 21.91 5 21.5 5L18.33 5L14.44 2.14C14.18 1.95 13.82 1.95 13.56 2.14L9.66 5L6.5 5C6.08 5 5.75 5.34 5.75 5.75L5.75 7.87L2.31 10.39C2.11 10.53 2 10.76 2 11L2 23.75C2 24.99 3.01 26 4.25 26L23.75 26C24.99 26 26 24.99 26 23.75L26 11C26 10.76 25.89 10.53 25.69 10.39ZM22.25 9.73L23.9 10.94L22.25 11.92L22.25 9.73ZM14 3.68L15.8 5L12.2 5L14 3.68ZM7.25 6.5L20.75 6.5L20.75 12.82L14 16.87L7.25 12.82L7.25 6.5ZM5.75 9.73L5.75 11.93L4.1 10.94L5.75 9.73ZM3.5 23.44L3.5 12.33L10.44 16.5L3.5 23.44ZM4.56 24.5L11.75 17.28L13.59 18.39C13.83 18.52 14.11 18.52 14.34 18.39L16.25 17.28L23.44 24.5L4.56 24.5ZM24.5 23.44L17.55 16.5L24.5 12.33L24.5 23.44ZM9.5 8.75L18.5 8.75L18.5 10.25L9.5 10.25L9.5 8.75ZM11 11.75L17 11.75L17 13.25L11 13.25L11 11.75Z" />
</svg>
