<svg viewBox="0 0 28 23">
	<path d="M14 14.96C13.58 14.96 13.25 14.63 13.25 14.22L13.25 9.03C13.25 8.63 13.58 8.29 14 8.29C14.41 8.29 14.75 8.63 14.75 9.03L14.75 14.22C14.75 14.63 14.41 14.96 14 14.96ZM25.68 18.68L16.35 3.31C15.29 1.56 12.71 1.56 11.65 3.31L2.32 18.68C1.43 20.13 2.5 22 4.22 22L23.78 22C25.5 22 26.56 20.13 25.68 18.68L25.68 18.68ZM23.78 20.52L4.22 20.52C3.66 20.52 3.32 19.91 3.6 19.44L12.94 4.07C13.42 3.28 14.58 3.28 15.06 4.07L24.4 19.44C24.68 19.91 24.34 20.52 23.78 20.52ZM14 15.7C14.62 15.7 15.12 16.2 15.12 16.81C15.12 17.43 14.62 17.92 14 17.92C13.38 17.92 12.87 17.43 12.87 16.81C12.87 16.2 13.38 15.7 14 15.7Z" />
</svg>
