<svg viewBox="0 0 41 41">
	<path d="M20.08 8.77L17.87 8.77L17.87 17.97L11.83 17.97L11.83 20.19L20.08 20.19L20.08 8.77ZM34.35 21.67C35.93 13.09 30.25 4.85 21.67 3.27C13.08 1.69 4.85 7.37 3.27 15.95C1.69 24.53 7.36 32.77 15.95 34.35C17.84 34.7 19.78 34.7 21.67 34.35C24.65 38.36 30.33 39.2 34.35 36.21C38.36 33.22 39.19 27.54 36.2 23.53C35.68 22.82 35.05 22.19 34.35 21.67ZM18.81 32.4C11.3 32.4 5.22 26.31 5.22 18.81C5.22 11.31 11.3 5.22 18.81 5.22C26.31 5.22 32.4 11.31 32.4 18.81C32.4 19.37 32.37 19.94 32.3 20.5C27.66 18.62 22.38 20.85 20.5 25.48C19.61 27.67 19.61 30.11 20.5 32.3C19.94 32.37 19.37 32.4 18.81 32.4ZM28.92 35.78C25.14 35.78 22.07 32.71 22.07 28.92C22.07 25.14 25.14 22.07 28.92 22.07C32.71 22.07 35.77 25.14 35.77 28.92C35.77 28.92 35.77 28.93 35.77 28.93C35.77 32.71 32.7 35.77 28.92 35.78L28.92 35.78ZM27.82 24.18L30.03 24.18L30.03 31.09L27.82 31.09L27.82 24.18ZM27.82 31.92L30.03 31.92L30.03 34.04L27.82 34.04L27.82 31.92Z" />
</svg>
