<svg viewBox="0 0 20 19">
	<path d="M15.69 6.88C15.33 6.88 15.02 7.19 15.02 7.55L15.02 15.48C15.02 16.13 14.48 16.67 13.83 16.67L4.53 16.67C3.88 16.67 3.34 16.13 3.34 15.48L3.34 6.2C3.34 5.55 3.88 5.01 4.53 5.01L12.31 5.01C12.67 5.01 12.98 4.7 12.98 4.34C12.98 3.98 12.67 3.67 12.31 3.67L4.53 3.67C3.14 3.67 2 4.81 2 6.2L2 15.48C2 16.86 3.14 18 4.53 18L13.83 18C15.22 18 16.36 16.86 16.36 15.48L16.36 7.55C16.36 7.19 16.07 6.88 15.69 6.88ZM13.38 2C13.02 2 12.71 2.3 12.71 2.67C12.71 3.03 13.02 3.33 13.38 3.33L15.65 3.33L9.42 9.55C9.17 9.8 9.17 10.23 9.42 10.49C9.55 10.61 9.73 10.68 9.89 10.68C10.05 10.68 10.23 10.61 10.36 10.49L16.66 4.2L16.66 6.47C16.66 6.83 16.97 7.13 17.33 7.13C17.69 7.13 18 6.83 18 6.47L18 2L13.38 2Z" />
</svg>
