<svg viewBox="0 0 20 16">
	<path d="M10.04 6.79C10.71 6.79 11.26 7.33 11.26 8C11.26 8.67 10.71 9.21 10.04 9.21C9.36 9.21 8.82 8.67 8.82 8C8.82 7.33 9.36 6.79 10.04 6.79ZM10.04 4.47C8.07 4.47 6.47 6.06 6.47 8C6.47 9.95 8.07 11.53 10.04 11.53C12 11.53 13.6 9.95 13.6 8C13.6 6.06 12 4.47 10.04 4.47ZM10.04 10.29C8.76 10.29 7.72 9.26 7.72 8C7.72 6.74 8.76 5.71 10.04 5.71C11.31 5.71 12.35 6.74 12.35 8C12.35 9.26 11.31 10.29 10.04 10.29ZM17.6 6.65C17.27 6.15 16.33 4.85 14.81 3.72C13.26 2.58 11.65 2 10.02 2C8.39 2 6.78 2.58 5.23 3.72C3.69 4.84 2.75 6.14 2.42 6.64C1.87 7.47 1.87 8.53 2.42 9.36C2.75 9.86 3.69 11.16 5.23 12.28C6.78 13.42 8.39 14 10.02 14C12.53 14 14.55 12.62 15.8 11.45C16.05 11.22 16.07 10.83 15.83 10.58C15.59 10.33 15.2 10.32 14.95 10.55C13.86 11.56 12.12 12.76 10.02 12.76C6.98 12.76 4.47 10.2 3.46 8.68C3.19 8.27 3.19 7.73 3.46 7.32C4.47 5.8 6.98 3.24 10.02 3.24C13.05 3.24 15.56 5.81 16.55 7.33C16.82 7.74 16.82 8.27 16.55 8.68C16.37 8.96 16.45 9.35 16.74 9.53C17.03 9.72 17.41 9.64 17.6 9.35C18.14 8.53 18.14 7.47 17.6 6.65Z" />
</svg>
