<svg viewBox="0 0 458.38 523.99">
	<path d="M412.09,392.37l-1.83-.53c-26.47-7.13-35.42-13.94-47.2-18.44C354,370,346.4,366.71,340,363.71a344.65,344.65,0,0,0,45-10.56c30.2-9.53,41.44-19.37,42.62-20.47l8.88-8.22-9.27-7.78c-22.74-19.12-27.15-63.41-31.84-110.29C390.78,160,386,112.1,364.17,73.6,338.48,28.28,294.34,6.17,229.17,6c-65.11.17-109.25,22.28-134.95,67.59C72.39,112.09,67.61,160,63,206.4c-4.67,46.87-9.09,91.16-31.84,110.28l-9.25,7.78,8.87,8.22c1.18,1.1,12.43,10.94,42.63,20.47a343.88,343.88,0,0,0,45,10.56c-6.39,3-14,6.25-23.06,9.69-11.78,4.5-20.74,11.31-47.21,18.44l-1.81.53A58.46,58.46,0,0,0,6,447.87V518H452.38V447.87A58.44,58.44,0,0,0,412.09,392.37ZM374.18,208.52c4.49,45,8.75,87.76,29.52,114.26a163.5,163.5,0,0,1-27.8,10.84c-19.75,6-41.89,9.91-64,12.44a22.67,22.67,0,0,1-4.27-5.47c-.09-.19-.17-.41-.26-.59l-.1-12.63C340,295,366.74,247.13,366.74,197a180.17,180.17,0,0,0-2.84-32.25q2.7.35,5.42.62C371.29,179.65,372.74,194.16,374.18,208.52Zm-72.61,93.79c-12.25,13.93-26,25.62-39.68,33.75-12.24,7.28-23.85,11.28-32.69,11.28s-20.45-4-32.69-11.28c-13.72-8.13-27.43-19.81-39.68-33.75C129.05,270.64,113.09,232.43,113,197.4a233.78,233.78,0,0,0,56.11-20.29c25.49-12.9,51-30.84,75.8-53.31,2.73-2.47,5.37-4.93,8-7.39,16.54,12.46,48.9,33.73,88.31,44A155.28,155.28,0,0,1,345.42,197C345.42,232.18,329.43,270.53,301.57,302.31Zm44-218.19c9.93,17.5,16,37.84,20.14,59.39-42-5.75-78.87-28.77-97.54-42.36A452.44,452.44,0,0,0,312.32,48C326,56.94,336.93,68.81,345.6,84.12Zm-232.82,0c10.22-18,23.56-31.3,40.8-40.6,19.73-10.66,45.18-16.11,75.59-16.18,24.78.06,46.25,3.68,64,10.76a461.84,461.84,0,0,1-63,70.22c-23.38,21.11-47.25,37.89-71,49.88-24.25,12.25-48.39,19.48-72,21.58C91.3,145.12,97.42,111.22,112.78,84.12ZM82.5,333.62a163.33,163.33,0,0,1-27.81-10.84c20.76-26.5,25-69.29,29.53-114.27.23-2.38.47-4.75.72-7.15q3.38-.23,6.76-.57c1.28,48.71,27.52,95,59.44,126.58L151.06,340c-.09.18-.17.4-.26.59a22.67,22.67,0,0,1-4.27,5.47C124.39,343.53,102.23,339.59,82.5,333.62Zm348.56,163H27.34V447.87a37.21,37.21,0,0,1,25.33-35.16l1.19-.34a206,206,0,0,0,39.81-14.88c3.42-1.62,6.38-3.06,9.27-4.15,23.87-9.1,56.76-23.44,66.81-43,.39-.78.67-1.41.83-1.78l1.47-3.25c19.82,14.69,40.2,23.31,57.15,23.31s37.33-8.62,57.15-23.31l1.47,3.25c.14.34.42,1,.8,1.75,10,19.53,42.95,33.9,66.86,43,2.86,1.09,5.81,2.53,9.23,4.15a206.34,206.34,0,0,0,39.83,14.88l1.19.34a37.24,37.24,0,0,1,25.33,35.16v48.78Z" />
</svg>
