<svg viewBox="0 0 16 19">
	<path d="M15.87 10.99L14.53 7.64L15.87 4.29C15.93 4.12 15.91 3.94 15.81 3.79C15.72 3.64 15.55 3.56 15.37 3.56L9.16 3.56L9.16 2.31C9.16 2.02 8.92 1.78 8.63 1.78L2.06 1.78L2.06 0.86C2.06 0.56 1.83 0.32 1.53 0.32C1.24 0.32 1 0.56 1 0.86C1 3.08 1 16.08 1 17.97C1 18.27 1.24 18.51 1.53 18.51C1.83 18.51 2.06 18.27 2.06 17.97L2.06 9.95L6.32 9.95L6.32 11.19C6.32 11.48 6.56 11.72 6.86 11.72L15.37 11.72C15.55 11.72 15.72 11.64 15.81 11.49C15.91 11.34 15.93 11.16 15.87 10.99ZM8.1 8.88C7.49 8.88 2.72 8.88 2.06 8.88L2.06 2.85L8.1 2.85C8.1 3.46 8.1 8.22 8.1 8.88ZM8.14 10.66L9.01 9.79C9.11 9.69 9.16 9.55 9.16 9.41L9.16 4.62L14.59 4.62L13.46 7.44C13.41 7.57 13.41 7.71 13.46 7.84L14.59 10.66L8.14 10.66Z" />
</svg>
