<svg viewBox="0 0 21 18">
	<path d="M20.46 7.14C20.06 6.58 19.41 6.24 18.72 6.24L18.03 6.24L18.03 5.55C18.03 4.26 16.99 3.22 15.7 3.22L9.95 3.22C9.67 3.22 9.41 3.07 9.27 2.82L8.81 1.99C8.4 1.27 7.62 0.81 6.78 0.81L3.33 0.81C2.04 0.81 1 1.85 1 3.14L1 15.63C1 16.91 2.04 17.95 3.33 17.95L15.48 17.95C16.8 17.95 17.98 17.11 18.41 15.86C18.55 15.45 18.34 15.01 17.93 14.87C17.53 14.74 17.09 14.95 16.95 15.36C16.73 15.98 16.14 16.4 15.48 16.4L5.54 16.4C5.54 16.4 5.54 16.39 5.55 16.38L8.36 8.19C8.44 7.95 8.67 7.79 8.92 7.79L18.72 7.79C18.92 7.79 19.09 7.88 19.2 8.04C19.31 8.2 19.34 8.39 19.28 8.57L18.15 11.85C18.01 12.25 18.23 12.69 18.63 12.83C19.04 12.97 19.48 12.76 19.62 12.35L20.75 9.07C20.97 8.42 20.86 7.7 20.46 7.14ZM6.89 7.69L4.08 15.88C3.97 16.19 3.68 16.4 3.34 16.4L3.33 16.4C2.9 16.4 2.55 16.06 2.55 15.63L2.55 3.14C2.55 2.71 2.9 2.36 3.33 2.36L6.78 2.36C7.06 2.36 7.32 2.51 7.46 2.75L7.92 3.58C8.33 4.31 9.11 4.77 9.95 4.77L15.7 4.77C16.13 4.77 16.48 5.12 16.48 5.54L16.48 6.24L8.92 6.24C8 6.24 7.19 6.82 6.89 7.69Z" />
</svg>
