<svg viewBox="0 0 23 20">
	<path d="M21.19 3.61L5.09 3.61L5.09 2.45C5.09 2.02 4.75 1.67 4.31 1.67L2.78 1.67C2.35 1.67 2 2.02 2 2.45C2 2.88 2.35 3.23 2.78 3.23L3.53 3.23L3.53 17.41C3.53 17.84 3.88 18.19 4.31 18.19C4.75 18.19 5.09 17.84 5.09 17.41L5.09 15.87L21.19 15.87C21.62 15.87 21.97 15.52 21.97 15.09L21.97 4.39C21.97 3.96 21.62 3.61 21.19 3.61ZM20.41 14.31L5.09 14.31L5.09 5.17L20.41 5.17L20.41 14.31ZM11.23 17.41C11.23 17.84 10.88 18.19 10.45 18.19L7.38 18.19C6.95 18.19 6.6 17.84 6.6 17.41C6.6 16.98 6.95 16.63 7.38 16.63L10.45 16.63C10.88 16.63 11.23 16.98 11.23 17.41ZM20.44 17.41C20.44 17.84 20.09 18.19 19.66 18.19L13.52 18.19C13.09 18.19 12.74 17.84 12.74 17.41C12.74 16.98 13.09 16.63 13.52 16.63L19.66 16.63C20.09 16.63 20.44 16.98 20.44 17.41ZM16.59 12.82C18.29 12.82 19.67 11.44 19.67 9.74C19.67 8.04 18.29 6.66 16.59 6.66C14.89 6.66 13.51 8.04 13.51 9.74C13.51 11.44 14.89 12.82 16.59 12.82ZM16.59 8.22C17.43 8.22 18.11 8.9 18.11 9.74C18.11 10.58 17.43 11.26 16.59 11.26C15.75 11.26 15.07 10.58 15.07 9.74C15.07 8.9 15.75 8.22 16.59 8.22ZM8.92 12.82C10.62 12.82 12 11.44 12 9.74C12 8.04 10.62 6.66 8.92 6.66C7.22 6.66 5.84 8.04 5.84 9.74C5.84 11.44 7.22 12.82 8.92 12.82ZM8.92 8.22C9.76 8.22 10.44 8.9 10.44 9.74C10.44 10.58 9.76 11.26 8.92 11.26C8.08 11.26 7.4 10.58 7.4 9.74C7.4 8.9 8.08 8.22 8.92 8.22Z" />
</svg>
