<svg viewBox="0 0 19 19">
	<path d="M15.08 2L12.78 2C11.44 2 10.35 3.09 10.35 4.42L10.35 6.72C10.35 8.06 11.44 9.14 12.78 9.14L15.08 9.14C16.41 9.14 17.5 8.06 17.5 6.72L17.5 4.42C17.5 3.09 16.41 2 15.08 2ZM16.29 6.72C16.29 7.39 15.75 7.93 15.08 7.93L12.78 7.93C12.11 7.93 11.57 7.39 11.57 6.72L11.57 4.42C11.57 3.75 12.11 3.21 12.78 3.21L15.08 3.21C15.75 3.21 16.29 3.75 16.29 4.42L16.29 6.72ZM6.72 2L4.42 2C3.09 2 2 3.09 2 4.42L2 6.72C2 8.06 3.09 9.14 4.42 9.14L6.72 9.14C8.06 9.14 9.14 8.06 9.14 6.72L9.14 4.42C9.14 3.09 8.06 2 6.72 2ZM7.93 6.72C7.93 7.39 7.39 7.93 6.72 7.93L4.42 7.93C3.75 7.93 3.21 7.39 3.21 6.72L3.21 4.42C3.21 3.75 3.75 3.21 4.42 3.21L6.72 3.21C7.39 3.21 7.93 3.75 7.93 4.42L7.93 6.72ZM6.72 10.36L4.42 10.36C3.09 10.36 2 11.44 2 12.78L2 15.08C2 16.41 3.09 17.5 4.42 17.5L6.72 17.5C8.06 17.5 9.14 16.41 9.14 15.08L9.14 12.78C9.14 11.44 8.06 10.36 6.72 10.36ZM7.93 15.08C7.93 15.75 7.39 16.29 6.72 16.29L4.42 16.29C3.75 16.29 3.21 15.75 3.21 15.08L3.21 12.78C3.21 12.11 3.75 11.57 4.42 11.57L6.72 11.57C7.39 11.57 7.93 12.11 7.93 12.78L7.93 15.08ZM16.89 14.47C16.56 14.47 16.29 14.74 16.29 15.08C16.29 15.75 15.75 16.29 15.08 16.29L12.78 16.29C12.11 16.29 11.57 15.75 11.57 15.08L11.57 12.78C11.57 12.11 12.11 11.57 12.78 11.57L15.08 11.57C15.56 11.57 15.99 11.85 16.19 12.29C16.32 12.6 16.68 12.74 16.99 12.6C17.29 12.47 17.43 12.11 17.3 11.81C16.91 10.93 16.04 10.36 15.08 10.36L12.78 10.36C11.44 10.36 10.35 11.44 10.35 12.78L10.35 15.08C10.35 16.41 11.44 17.5 12.78 17.5L15.08 17.5C16.41 17.5 17.5 16.41 17.5 15.08C17.5 14.74 17.23 14.47 16.89 14.47Z" />
</svg>
