<svg viewBox="0 0 46 46">
	<path d="M41.33 1L5.17 1C2.87 1 1 2.87 1 5.17L1 41.33C1 43.63 2.87 45.5 5.17 45.5L41.33 45.5C43.63 45.5 45.5 43.63 45.5 41.33L45.5 5.17C45.5 2.87 43.63 1 41.33 1ZM42.72 41.33C42.72 42.1 42.09 42.72 41.33 42.72L5.17 42.72C4.4 42.72 3.78 42.1 3.78 41.33L3.78 5.17C3.78 4.4 4.4 3.78 5.17 3.78L41.33 3.78C42.09 3.78 42.72 4.4 42.72 5.17L42.72 41.33ZM6.56 6.56L9.34 6.56L9.34 9.34L6.56 9.34L6.56 6.56ZM37.15 6.56L39.94 6.56L39.94 9.34L37.15 9.34L37.15 6.56ZM37.15 37.16L39.94 37.16L39.94 39.94L37.15 39.94L37.15 37.16ZM6.56 37.16L9.34 37.16L9.34 39.94L6.56 39.94L6.56 37.16ZM18.86 16.84L18.86 21.79L14.07 21.79L14.07 16.84L10.99 16.84L10.99 29.48L14.07 29.48L14.07 24.28L18.86 24.28L18.86 29.48L21.93 29.48L21.93 16.84L18.86 16.84ZM28.72 16.84L23.99 16.84L23.99 29.48L28.72 29.48C30.04 29.48 31.2 29.21 32.2 28.69C33.2 28.16 33.98 27.41 34.53 26.45C35.07 25.49 35.34 24.4 35.34 23.16C35.34 21.91 35.07 20.81 34.53 19.86C33.98 18.9 33.21 18.16 32.21 17.63C31.22 17.11 30.05 16.84 28.72 16.84L28.72 16.84ZM28.52 26.81L27.06 26.81L27.06 19.47L28.52 19.47C29.69 19.47 30.59 19.79 31.24 20.44C31.89 21.09 32.21 22 32.21 23.16C32.21 24.32 31.89 25.22 31.24 25.86C30.59 26.5 29.69 26.81 28.52 26.81L28.52 26.81Z" />
</svg>
