<svg viewBox="0 0 12 20">
	<path d="M7.69 4.6C7.34 4.53 7 4.75 6.92 5.09L4.37 16.97L2.64 16.97C2.29 16.97 2 17.26 2 17.61C2 17.97 2.29 18.25 2.64 18.25L4.88 18.25C4.88 18.25 4.89 18.25 4.89 18.25C4.89 18.25 4.89 18.25 4.89 18.25L7.04 18.25C7.39 18.25 7.68 17.97 7.68 17.61C7.68 17.26 7.39 16.97 7.04 16.97L5.68 16.97L8.18 5.36C8.25 5.02 8.03 4.68 7.69 4.6ZM10.28 1.83L5.88 1.83C5.53 1.83 5.24 2.11 5.24 2.47C5.24 2.82 5.53 3.11 5.88 3.11L10.28 3.11C10.63 3.11 10.92 2.82 10.92 2.47C10.92 2.11 10.63 1.83 10.28 1.83Z" />
</svg>
