<svg viewBox="0 0 39 33">
	<path d="M37.07 9.52C37.05 9.09 36.77 8.71 36.35 8.57C36.14 8.51 36.37 8.53 29.06 8.53C26.4 4.53 21.87 1.96 16.8 1.96C8.64 1.96 2 8.56 2 16.67C2 24.78 8.64 31.38 16.8 31.38C21.88 31.38 26.4 28.8 29.06 24.81L36.04 24.81C36.61 24.81 37.07 24.35 37.07 23.78C37.07 11.29 37.07 9.6 37.07 9.52L37.07 9.52ZM33.1 10.58L27.06 15.36L20.89 10.58L33.1 10.58ZM16.8 29.33C9.77 29.33 4.05 23.65 4.05 16.67C4.05 9.69 9.77 4.01 16.8 4.01C20.6 4.01 24.11 5.67 26.5 8.53C17.29 8.53 17.9 8.52 17.82 8.53C17.32 8.56 16.91 8.96 16.87 9.46C16.86 9.54 16.86 9.1 16.86 15.09L11.86 15.09C11.3 15.09 10.84 15.55 10.84 16.12C10.84 16.69 11.3 17.15 11.86 17.15L16.86 17.15L16.86 23.78C16.86 24.35 17.32 24.81 17.89 24.81L26.5 24.81C24.11 27.67 20.6 29.33 16.8 29.33ZM18.92 22.76L18.92 11.65L26.44 17.48C26.81 17.77 27.34 17.77 27.71 17.47L35.02 11.68L35.02 22.76L18.92 22.76ZM10.77 12.77L12.41 12.77C12.98 12.77 13.44 12.31 13.44 11.74C13.44 11.17 12.98 10.72 12.41 10.72L10.77 10.72C10.2 10.72 9.74 11.17 9.74 11.74C9.74 12.31 10.2 12.77 10.77 12.77ZM11.86 19.47L8.58 19.47C8.01 19.47 7.55 19.93 7.55 20.5C7.55 21.07 8.01 21.53 8.58 21.53L11.86 21.53C12.43 21.53 12.89 21.07 12.89 20.5C12.89 19.93 12.43 19.47 11.86 19.47Z" />
</svg>
