<svg viewBox="0 0 39 38">
	<path d="M36.84 16.16L31.01 11.05L31.01 8.68C31.01 8.11 30.55 7.65 29.98 7.65L27.16 7.65C27.13 7.62 21.68 2.2 21.64 2.16C20.35 1.04 18.48 1.25 17.51 2.21L12.03 7.65L9.22 7.65C8.65 7.65 8.19 8.11 8.19 8.68L8.19 11.05L2.35 16.16C2.13 16.35 2 16.64 2 16.93L2 33.5C2 35.21 3.39 36.6 5.09 36.6L34.1 36.6C35.81 36.6 37.2 35.21 37.2 33.5L37.2 16.93C37.2 16.64 37.07 16.35 36.84 16.16ZM31.01 13.79L34.6 16.93L31.01 20.07L31.01 13.79ZM18.93 3.7C19.32 3.38 19.88 3.38 20.26 3.7L24.24 7.65L14.96 7.65L18.93 3.7ZM10.25 9.71L28.95 9.71L28.95 21.88L25.52 24.88L21.63 21.47C20.47 20.45 18.72 20.45 17.56 21.47L13.67 24.88L10.25 21.88L10.25 9.71ZM8.19 13.79L8.19 20.07L4.6 16.93L8.19 13.79ZM4.06 33.29L4.06 19.21L12.11 26.25L4.06 33.29ZM5.77 34.53L18.92 23.02C19.31 22.68 19.89 22.68 20.28 23.02L33.42 34.53L5.77 34.53L5.77 34.53ZM35.13 33.29L27.09 26.25L35.13 19.21L35.13 33.29ZM25.85 11.78L13.34 11.78C12.77 11.78 12.31 12.24 12.31 12.81C12.31 13.38 12.77 13.84 13.34 13.84L25.85 13.84C26.42 13.84 26.88 13.38 26.88 12.81C26.88 12.24 26.42 11.78 25.85 11.78ZM25.85 15.9L13.34 15.9C12.77 15.9 12.31 16.36 12.31 16.93C12.31 17.5 12.77 17.96 13.34 17.96L25.85 17.96C26.42 17.96 26.88 17.5 26.88 16.93C26.88 16.36 26.42 15.9 25.85 15.9Z" />
</svg>
