<svg viewBox="0 0 28 27">
	<path d="M16.84 17.82L14.84 17.82L14.84 8.78C14.84 8.61 14.71 8.47 14.54 8.47L14 8.47C13.83 8.47 13.68 8.62 13.68 8.79L13.68 18.6C13.68 18.8 13.85 18.96 14.05 18.96L16.84 18.96C17.02 18.96 17.17 18.81 17.17 18.62L17.17 18.15C17.17 17.97 17.02 17.82 16.84 17.82ZM23.68 13.16L17.3 13.16C17.11 13.16 16.95 13.32 16.95 13.51L16.95 13.97C16.95 14.15 17.1 14.29 17.28 14.29L23.01 14.29L23.01 14.33C22.49 21.75 13.41 25.26 8.06 19.92C4.63 16.5 4.63 10.94 8.06 7.52C9.72 5.86 11.92 4.95 14.26 4.95C14.56 4.95 14.65 4.97 14.75 4.86C14.81 4.81 14.84 4.73 14.84 4.65L14.84 4.12C14.84 3.95 14.71 3.81 14.54 3.81C14.44 3.81 14.33 3.81 14.26 3.81C8.8 3.81 4.35 8.26 4.35 13.72C4.35 16.36 5.38 18.85 7.26 20.73C11.13 24.62 17.42 24.58 21.27 20.73C23.14 18.85 24.17 16.36 24.17 13.72C24.17 13.34 23.93 13.16 23.68 13.16ZM10.52 8.02C9.44 8.02 8.56 8.9 8.56 9.99C8.56 11.07 9.44 11.94 10.52 11.94C11.61 11.94 12.49 11.07 12.49 9.99C12.49 8.9 11.61 8.02 10.52 8.02ZM10.52 10.83C10.06 10.83 9.68 10.45 9.68 9.99C9.68 9.52 10.06 9.14 10.52 9.14C10.99 9.14 11.37 9.52 11.37 9.99C11.37 10.45 10.99 10.83 10.52 10.83ZM26.45 12.36C25.82 6.68 21.31 2.17 15.63 1.54C15.32 1.5 15.05 1.72 15.01 2.03C14.98 2.34 15.2 2.61 15.5 2.65C20.63 3.22 24.77 7.35 25.34 12.48C25.37 12.79 25.65 13.01 25.96 12.97C26.26 12.94 26.48 12.66 26.45 12.36ZM25.96 14.47C25.65 14.44 25.37 14.66 25.34 14.97C24.71 20.61 19.95 24.87 14.25 24.87C8.11 24.87 3.12 19.87 3.12 13.72C3.12 8.03 7.37 3.27 13.02 2.65C13.33 2.61 13.55 2.34 13.51 2.03C13.48 1.72 13.2 1.5 12.9 1.54C6.74 2.21 2 7.43 2 13.72C2 20.48 7.5 25.99 14.26 25.99C20.52 25.99 25.76 21.3 26.45 15.09C26.48 14.78 26.26 14.51 25.96 14.47Z" />
</svg>
