<svg viewBox="0 0 25 25">
	<path d="M3.81 9.81L5.22 9.81C5.52 9.81 5.82 9.86 6.09 9.95L10.72 2.74L11.33 1.9L11.38 1.84C11.91 1.3 12.62 1 13.39 1C14.94 1 16.2 2.26 16.2 3.81C16.2 4.12 16.15 4.43 16.05 4.73L16.03 4.78L16 4.84C15.85 5.13 15.7 5.45 15.53 5.78C15.11 6.62 14.41 8 14.31 8.41C14.38 8.9 15.04 9.2 15.5 9.2L21.67 9.2C23.14 9.2 24.34 10.4 24.34 11.87C24.34 12.36 24.21 12.83 23.97 13.24C24.6 13.73 25 14.5 25 15.34C25 16.01 24.76 16.65 24.32 17.14C24.2 17.27 24.07 17.39 23.94 17.49C24.17 17.89 24.29 18.34 24.29 18.81C24.29 19.83 23.72 20.71 22.88 21.17C23.04 21.5 23.12 21.87 23.12 22.25C23.12 23.85 22 25 20.44 25L11.26 25C10.75 25 10.33 24.58 10.33 24.06C10.33 23.54 10.75 23.12 11.26 23.12L20.44 23.12C21.17 23.12 21.25 22.52 21.25 22.25C21.25 21.87 20.92 21.66 20.82 21.6C20.3 21.31 20.22 20.89 20.22 20.67C20.22 20.08 20.73 19.61 21.39 19.61L21.6 19.61C22.05 19.61 22.42 19.25 22.42 18.81C22.42 18.53 22.26 18.27 22.01 18.12C22 18.12 21.98 18.11 21.97 18.1C21.55 17.88 21.34 17.56 21.34 17.14C21.34 16.79 21.58 16.18 22.46 16.13C22.82 16.11 23.12 15.75 23.12 15.34C23.12 14.98 22.87 14.66 22.52 14.57C21.96 14.43 21.58 13.99 21.58 13.47C21.58 13.21 21.67 12.84 22.12 12.53C22.34 12.38 22.47 12.13 22.47 11.87C22.47 11.44 22.11 11.08 21.67 11.08L15.5 11.08C14.08 11.08 12.49 10.06 12.43 8.42L12.43 8.39C12.43 7.83 12.84 6.95 13.85 4.94C14.01 4.63 14.15 4.34 14.29 4.07C14.31 3.99 14.32 3.9 14.32 3.81C14.32 3.3 13.9 2.87 13.39 2.87C13.15 2.87 12.93 2.96 12.76 3.11L12.29 3.78L7.58 11.1C7.87 11.54 8.03 12.06 8.03 12.62L8.03 22.19C8.03 23.74 6.77 25 5.22 25L3.81 25C2.26 25 1 23.74 1 22.19L1 12.62C1 11.07 2.26 9.81 3.81 9.81ZM2.87 22.19C2.87 22.7 3.3 23.12 3.81 23.12L5.22 23.12C5.73 23.12 6.16 22.7 6.16 22.19L6.16 12.62C6.16 12.11 5.73 11.69 5.22 11.69L3.81 11.69C3.3 11.69 2.87 12.11 2.87 12.62L2.87 22.19Z" />
</svg>
