<svg viewBox="0 0 21 21">
	<path d="M6.54 5.48L4.93 3.83C4.66 3.55 4.21 3.55 3.93 3.82C3.66 4.09 3.65 4.53 3.92 4.81L5.54 6.46C5.68 6.6 5.86 6.68 6.04 6.68C6.22 6.68 6.4 6.61 6.53 6.47C6.81 6.2 6.82 5.76 6.54 5.48ZM8.5 2C8.12 2 7.8 2.31 7.8 2.7L7.8 5.06C7.8 5.45 8.12 5.76 8.5 5.76C8.89 5.76 9.21 5.45 9.21 5.06L9.21 2.7C9.21 2.31 8.89 2 8.5 2ZM5.06 7.69L2.7 7.69C2.31 7.69 2 8.01 2 8.4C2 8.79 2.31 9.1 2.7 9.1L5.06 9.1C5.45 9.1 5.76 8.79 5.76 8.4C5.76 8.01 5.45 7.69 5.06 7.69ZM18.08 17.19L16.46 15.54C16.19 15.26 15.74 15.25 15.47 15.52C15.19 15.8 15.18 16.24 15.45 16.52L17.07 18.17C17.21 18.31 17.39 18.38 17.57 18.38C17.75 18.38 17.93 18.32 18.07 18.18C18.34 17.91 18.35 17.47 18.08 17.19ZM13.5 16.24C13.11 16.24 12.79 16.55 12.79 16.94L12.79 19.3C12.79 19.68 13.11 20 13.5 20C13.88 20 14.2 19.68 14.2 19.3L14.2 16.94C14.2 16.55 13.88 16.24 13.5 16.24ZM19.3 12.9L16.94 12.9C16.55 12.9 16.24 13.21 16.24 13.6C16.24 13.99 16.55 14.3 16.94 14.3L19.3 14.3C19.68 14.3 20 13.99 20 13.6C20 13.21 19.68 12.9 19.3 12.9ZM18.69 3.33C18.52 3.16 18.35 3.01 18.17 2.88L18.14 2.85C18.12 2.83 18.1 2.81 18.07 2.79C17.36 2.27 16.57 2 15.74 2C14.45 2 13.1 2.66 11.84 3.91C11.83 3.93 11.82 3.94 11.81 3.95L11.75 4.02L11.69 4.07C11.67 4.08 11.66 4.09 11.65 4.11C10.4 5.36 9.73 6.71 9.73 8.01C9.73 8.56 9.86 9.12 10.12 9.65C10.29 10 10.71 10.15 11.06 9.98C11.41 9.81 11.55 9.39 11.39 9.04C11.22 8.7 11.14 8.35 11.14 8.01C11.14 7.1 11.65 6.1 12.63 5.12L12.71 5.05C12.73 5.02 12.76 5 12.78 4.97L12.85 4.89C13.83 3.92 14.83 3.41 15.74 3.41C16.25 3.41 16.74 3.57 17.19 3.89C17.2 3.9 17.22 3.92 17.23 3.93L17.32 3.99C17.44 4.09 17.57 4.2 17.69 4.32C18.29 4.92 18.59 5.57 18.59 6.26C18.59 7.17 18.08 8.17 17.11 9.15L17.02 9.22C17 9.24 16.97 9.26 16.95 9.29L16.88 9.37C15.98 10.27 15.02 10.77 14.12 10.82C13.73 10.85 13.44 11.18 13.46 11.57C13.48 11.94 13.79 12.23 14.16 12.23C14.18 12.23 14.19 12.23 14.21 12.23C15.46 12.15 16.74 11.5 17.89 10.35C17.9 10.34 17.92 10.33 17.93 10.31L17.98 10.25L18.05 10.19C18.06 10.18 18.07 10.17 18.08 10.16C19.34 8.9 20 7.55 20 6.26C20 5.18 19.56 4.2 18.69 3.33ZM11.88 12.35C11.71 12 11.29 11.85 10.94 12.02C10.59 12.18 10.44 12.6 10.61 12.95C10.78 13.3 10.86 13.65 10.86 13.99C10.86 14.9 10.34 15.9 9.37 16.88L9.29 16.95C9.26 16.97 9.24 17 9.22 17.02L9.15 17.11C8.17 18.08 7.17 18.59 6.26 18.59C5.75 18.59 5.26 18.43 4.81 18.11C4.79 18.1 4.78 18.08 4.76 18.07L4.68 18.01C4.55 17.91 4.43 17.8 4.31 17.68C3.71 17.08 3.41 16.43 3.41 15.74C3.41 14.83 3.92 13.83 4.89 12.85L4.97 12.78C5 12.76 5.02 12.73 5.05 12.71L5.12 12.63C6.05 11.7 6.99 11.19 7.84 11.14C8.23 11.12 8.53 10.78 8.5 10.39C8.48 10.01 8.15 9.71 7.76 9.74C6.53 9.81 5.3 10.45 4.11 11.65C4.09 11.66 4.08 11.67 4.07 11.69L4.02 11.75L3.95 11.81C3.94 11.82 3.93 11.83 3.91 11.84C2.66 13.1 2 14.44 2 15.74C2 16.82 2.44 17.8 3.31 18.67C3.48 18.84 3.65 18.99 3.83 19.12L3.86 19.15C3.88 19.17 3.9 19.19 3.93 19.21C4.64 19.73 5.43 20 6.26 20C7.55 20 8.9 19.34 10.16 18.08C10.17 18.07 10.18 18.06 10.19 18.05L10.25 17.98L10.31 17.93C10.33 17.92 10.34 17.9 10.35 17.89C11.6 16.64 12.26 15.29 12.26 13.99C12.26 13.44 12.14 12.88 11.88 12.35Z" />
</svg>
