<svg viewBox="0 0 20 19">
	<path d="M7.37 12.66C7.21 12.66 7.05 12.6 6.93 12.47C6.68 12.23 6.68 11.83 6.93 11.59L12.08 6.43C12.33 6.19 12.73 6.19 12.97 6.43C13.22 6.68 13.22 7.08 12.97 7.32L7.82 12.47C7.7 12.6 7.53 12.66 7.37 12.66ZM13.28 10.41C14.22 10.24 15.18 9.68 16.08 8.78L16.32 8.53C17.23 7.62 17.79 6.63 17.95 5.67C18.13 4.53 17.76 3.45 16.86 2.55C15.96 1.65 14.88 1.27 13.75 1.46C12.8 1.61 11.82 2.18 10.91 3.08L10.66 3.33C9.78 4.21 9.22 5.16 9.04 6.07C8.97 6.41 9.2 6.74 9.54 6.81C9.88 6.88 10.21 6.65 10.27 6.31C10.4 5.64 10.84 4.92 11.54 4.22L11.79 3.98L11.79 3.97C12.52 3.25 13.26 2.81 13.96 2.7C14.69 2.58 15.35 2.82 15.97 3.44C17.56 5.03 16.32 6.76 15.43 7.64L15.18 7.89C14.47 8.61 13.74 9.05 13.06 9.17C12.72 9.23 12.49 9.56 12.55 9.9C12.61 10.2 12.87 10.42 13.17 10.42C13.21 10.42 13.25 10.41 13.28 10.41ZM6.16 17.45C7.13 17.29 8.12 16.73 9.03 15.82L9.28 15.58L9.28 15.58C10.17 14.68 10.74 13.72 10.9 12.79C10.96 12.44 10.74 12.12 10.4 12.06C10.05 11.99 9.73 12.22 9.67 12.56C9.54 13.24 9.1 13.98 8.39 14.69L8.14 14.93L8.14 14.93C7.26 15.82 5.53 17.06 3.93 15.47C3.31 14.85 3.07 14.19 3.19 13.46C3.31 12.77 3.75 12.02 4.47 11.29L4.72 11.04C5.42 10.34 6.14 9.91 6.81 9.78C7.15 9.71 7.37 9.38 7.31 9.04C7.24 8.7 6.91 8.48 6.57 8.54C5.65 8.72 4.7 9.28 3.83 10.16L3.58 10.41C2.67 11.32 2.11 12.3 1.95 13.25C1.77 14.38 2.14 15.46 3.04 16.36C3.8 17.11 4.67 17.5 5.6 17.5C5.79 17.5 5.97 17.48 6.16 17.45Z" />
</svg>
