<svg viewBox="0 0 16 22">
	<path d="M10.69 10.33L5.51 10.33C5.21 10.33 4.96 10.58 4.96 10.88C4.96 11.19 5.21 11.44 5.51 11.44L10.69 11.44C11 11.44 11.25 11.19 11.25 10.88C11.25 10.58 11 10.33 10.69 10.33ZM10.69 12.55L5.51 12.55C5.21 12.55 4.96 12.79 4.96 13.1C4.96 13.41 5.21 13.66 5.51 13.66L10.69 13.66C11 13.66 11.25 13.41 11.25 13.1C11.25 12.79 11 12.55 10.69 12.55ZM10.69 14.77L5.51 14.77C5.21 14.77 4.96 15.01 4.96 15.32C4.96 15.63 5.21 15.87 5.51 15.87L10.69 15.87C11 15.87 11.25 15.63 11.25 15.32C11.25 15.01 11 14.77 10.69 14.77ZM10.95 4L11.89 2.62C12.07 2.36 12 2.02 11.75 1.85C11.49 1.67 11.15 1.74 10.98 1.99L9.9 3.57C9.33 3.4 8.73 3.3 8.1 3.3C7.48 3.3 6.88 3.4 6.31 3.57L5.23 1.99C5.06 1.74 4.71 1.67 4.46 1.85C4.21 2.02 4.14 2.36 4.32 2.62L5.26 4C3.32 5.03 2 7.06 2 9.4L2 14.58C2 17.94 4.74 20.68 8.1 20.68C11.47 20.68 14.21 17.94 14.21 14.58L14.21 9.4C14.21 7.06 12.88 5.03 10.95 4ZM13.1 14.58C13.1 17.33 10.86 19.57 8.1 19.57C5.35 19.57 3.11 17.33 3.11 14.58L3.11 9.4C3.11 6.65 5.35 4.41 8.1 4.41C8.49 4.41 8.87 4.46 9.24 4.54L8.53 5.58C8.39 5.54 8.25 5.52 8.1 5.52C7.19 5.52 6.44 6.27 6.44 7.19C6.44 8.1 7.19 8.85 8.1 8.85C9.02 8.85 9.77 8.1 9.77 7.19C9.77 6.82 9.65 6.48 9.45 6.2L10.32 4.93C11.96 5.74 13.1 7.44 13.1 9.4L13.1 14.58ZM8.66 7.19C8.66 7.49 8.41 7.74 8.1 7.74C7.8 7.74 7.55 7.49 7.55 7.19C7.55 6.88 7.8 6.63 8.1 6.63C8.41 6.63 8.66 6.88 8.66 7.19Z" />
</svg>
