<svg viewBox="0 0 22 22">
	<path d="M4.15 15.78C2.96 15.78 2 16.75 2 17.94C2 19.12 2.96 20.09 4.15 20.09C4.55 20.09 4.88 19.76 4.88 19.36C4.88 18.96 4.55 18.63 4.15 18.63C3.77 18.63 3.46 18.32 3.46 17.94C3.46 17.55 3.77 17.24 4.15 17.24C4.53 17.24 4.85 17.55 4.85 17.94C4.85 18.34 5.17 18.67 5.57 18.67C5.98 18.67 6.3 18.34 6.3 17.94C6.3 16.75 5.34 15.78 4.15 15.78ZM8.64 4.29L19.95 4.29C20.35 4.29 20.68 3.97 20.68 3.56C20.68 3.16 20.35 2.83 19.95 2.83L8.64 2.83C8.24 2.83 7.91 3.16 7.91 3.56C7.91 3.97 8.24 4.29 8.64 4.29ZM4.15 8.6C2.96 8.6 2 9.56 2 10.75C2 11.94 2.96 12.9 4.15 12.9C4.55 12.9 4.88 12.58 4.88 12.17C4.88 11.77 4.55 11.44 4.15 11.44C3.77 11.44 3.46 11.13 3.46 10.75C3.46 10.37 3.77 10.06 4.15 10.06C4.53 10.06 4.85 10.37 4.85 10.75C4.85 11.15 5.17 11.48 5.57 11.48C5.98 11.48 6.3 11.15 6.3 10.75C6.3 9.56 5.34 8.6 4.15 8.6ZM19.95 10.02L8.64 10.02C8.24 10.02 7.91 10.35 7.91 10.75C7.91 11.15 8.24 11.48 8.64 11.48L19.95 11.48C20.35 11.48 20.68 11.15 20.68 10.75C20.68 10.35 20.35 10.02 19.95 10.02ZM19.95 17.21L8.64 17.21C8.24 17.21 7.91 17.53 7.91 17.94C7.91 18.34 8.24 18.67 8.64 18.67L19.95 18.67C20.35 18.67 20.68 18.34 20.68 17.94C20.68 17.53 20.35 17.21 19.95 17.21ZM4.15 1.41C2.96 1.41 2 2.38 2 3.56C2 4.75 2.96 5.71 4.15 5.71C4.55 5.71 4.88 5.39 4.88 4.99C4.88 4.58 4.55 4.26 4.15 4.26C3.77 4.26 3.46 3.94 3.46 3.56C3.46 3.18 3.77 2.87 4.15 2.87C4.53 2.87 4.85 3.18 4.85 3.56C4.85 3.97 5.17 4.29 5.57 4.29C5.98 4.29 6.3 3.97 6.3 3.56C6.3 2.38 5.34 1.41 4.15 1.41Z" />
</svg>
