<svg viewBox="0 0 15 20">
	<path d="M7.78 1C4.04 1 1 4.04 1 7.78C1 11.28 6.57 18.05 7.2 18.81C7.34 18.98 7.56 19.08 7.78 19.08C8 19.08 8.21 18.98 8.36 18.81C8.99 18.05 14.56 11.28 14.56 7.78C14.56 4.04 11.52 1 7.78 1ZM7.78 17.13C5.9 14.77 2.51 10.03 2.51 7.78C2.51 4.87 4.87 2.51 7.78 2.51C10.69 2.51 13.05 4.87 13.05 7.78C13.05 10.03 9.65 14.77 7.78 17.13ZM7.78 4.01C5.7 4.01 4.01 5.7 4.01 7.78C4.01 9.86 5.7 11.55 7.78 11.55C8.8 11.55 9.76 11.14 10.48 10.41C10.77 10.11 10.76 9.63 10.46 9.34C10.16 9.05 9.69 9.06 9.4 9.36C8.97 9.8 8.39 10.04 7.78 10.04C6.53 10.04 5.52 9.03 5.52 7.78C5.52 6.53 6.53 5.52 7.78 5.52C9.03 5.52 10.04 6.53 10.04 7.78C10.04 8.2 10.38 8.53 10.79 8.53C11.21 8.53 11.55 8.2 11.55 7.78C11.55 5.7 9.86 4.01 7.78 4.01Z" />
</svg>
