<svg viewBox="0 0 18 17">
	<path d="M12.29 12.5L12.29 13.76C12.29 15.14 11.17 16.26 9.79 16.26L3.5 16.26C2.12 16.26 1 15.14 1 13.76L1 2.74C1 1.36 2.12 0.24 3.5 0.24L9.79 0.24C11.17 0.24 12.29 1.36 12.29 2.74L12.29 3.99C12.29 4.34 12.01 4.62 11.66 4.62C11.32 4.62 11.04 4.34 11.04 3.99L11.04 2.74C11.04 2.05 10.48 1.49 9.79 1.49L3.5 1.49C2.81 1.49 2.25 2.05 2.25 2.74L2.25 13.76C2.25 14.45 2.81 15.01 3.5 15.01L9.79 15.01C10.48 15.01 11.04 14.45 11.04 13.76L11.04 12.5C11.04 12.16 11.32 11.88 11.66 11.88C12.01 11.88 12.29 12.16 12.29 12.5ZM16.55 7.17L15.15 5.77C14.91 5.53 14.51 5.53 14.27 5.77C14.02 6.02 14.02 6.41 14.27 6.66L15.26 7.65L7.75 7.65C7.41 7.65 7.13 7.93 7.13 8.28C7.13 8.63 7.41 8.91 7.75 8.91L15.26 8.91L14.27 9.9C14.02 10.15 14.02 10.54 14.27 10.79C14.39 10.91 14.55 10.97 14.71 10.97C14.87 10.97 15.03 10.91 15.15 10.79L16.55 9.39C17.16 8.78 17.16 7.78 16.55 7.17Z" />
</svg>
