<svg viewBox="0 0 27 27">
	<path d="M3.5 23.75L3.5 4.25C3.5 3.83 3.83 3.5 4.25 3.5L15.5 3.5L15.5 6.5C15.5 7.33 16.17 8 17 8L20 8L20 10.25L21.5 10.25L21.5 7.25C21.5 7.05 21.42 6.86 21.28 6.72L16.78 2.22C16.64 2.08 16.45 2 16.25 2L4.25 2C3.01 2 2 3.01 2 4.25L2 23.75C2 24.99 3.01 26 4.25 26L9.5 26L9.5 24.5L4.25 24.5C3.83 24.5 3.5 24.16 3.5 23.75ZM24.5 17L23 17L23 18.5L24.5 18.5L24.5 20L21.5 20L21.5 15.5L26 15.5C26 14.67 25.33 14 24.5 14L21.5 14C20.67 14 20 14.67 20 15.5L20 20C20 20.83 20.67 21.5 21.5 21.5L24.5 21.5C25.33 21.5 26 20.83 26 20L26 18.5C26 17.67 25.33 17 24.5 17ZM16.25 14C14.59 14 13.25 15.34 13.25 17L13.25 18.5C13.25 20.16 14.59 21.5 16.25 21.5C17.91 21.5 19.25 20.16 19.25 18.5L19.25 17C19.25 15.34 17.91 14 16.25 14ZM17.75 18.5C17.75 19.33 17.08 20 16.25 20C15.42 20 14.75 19.33 14.75 18.5L14.75 17C14.75 16.17 15.42 15.5 16.25 15.5C17.08 15.5 17.75 16.17 17.75 17L17.75 18.5ZM9.5 14L8 14L8 20.75C8 21.16 8.33 21.5 8.75 21.5L12.5 21.5L12.5 20L9.5 20L9.5 14Z" />
</svg>
