<svg viewBox="0 0 22 21">
	<path d="M15.75 20.75C15.21 20.75 14.71 20.55 14.34 20.17C13.96 19.79 13.75 19.29 13.75 18.76L13.76 15.13C13.76 14.58 14.08 14.1 14.59 13.89C15.09 13.68 15.66 13.8 16.05 14.18C16.05 14.18 16.05 14.18 16.05 14.19L16.37 14.51C16.68 14.82 16.67 15.33 16.36 15.64C16.08 15.91 15.66 15.94 15.36 15.74L15.36 18.76C15.36 18.9 15.43 18.99 15.47 19.04C15.51 19.08 15.61 19.15 15.75 19.15L15.75 19.15L18.75 19.15L17.81 18.22C17.2 17.6 17.15 16.63 17.7 15.96C18.97 14.4 19.66 12.43 19.64 10.42C19.63 9.98 19.99 9.61 20.43 9.61C20.87 9.61 21.23 9.96 21.24 10.4C21.26 12.79 20.44 15.12 18.94 16.97C18.91 17.01 18.91 17.05 18.94 17.08L20.32 18.46C20.71 18.84 20.82 19.42 20.61 19.92C20.41 20.42 19.92 20.75 19.38 20.75L15.75 20.75C15.75 20.75 15.75 20.75 15.75 20.75ZM11.09 20.71C11.53 20.71 11.89 20.35 11.89 19.9C11.88 19.47 11.52 19.11 11.09 19.11C11.08 19.11 11.08 19.11 11.08 19.11C9.06 19.13 7.1 18.44 5.54 17.17C4.87 16.62 3.9 16.67 3.29 17.29L2.35 18.22L2.35 15.22C2.35 15.08 2.42 14.98 2.46 14.94C2.51 14.9 2.6 14.83 2.74 14.83L2.74 14.83L5.76 14.83C5.56 15.14 5.59 15.55 5.86 15.83C6.17 16.14 6.68 16.15 6.99 15.84L7.31 15.53C7.31 15.52 7.32 15.52 7.32 15.52C7.7 15.14 7.82 14.56 7.61 14.06C7.4 13.55 6.91 13.23 6.37 13.23L2.74 13.23C2.74 13.23 2.74 13.23 2.74 13.23C2.21 13.23 1.71 13.43 1.33 13.81C0.96 14.19 0.75 14.69 0.75 15.22L0.75 18.85C0.75 19.39 1.08 19.88 1.58 20.09C2.08 20.3 2.66 20.18 3.04 19.8L4.42 18.42C4.45 18.39 4.5 18.39 4.53 18.42C6.35 19.9 8.64 20.71 11 20.71C11.03 20.71 11.06 20.71 11.09 20.71ZM20.65 7.16C21.03 6.78 21.24 6.28 21.24 5.75L21.24 2.11C21.23 1.57 20.91 1.08 20.41 0.87C19.9 0.67 19.33 0.78 18.94 1.17L17.57 2.55C17.54 2.58 17.49 2.58 17.46 2.55C15.64 1.07 13.34 0.25 10.99 0.25C10.96 0.25 10.93 0.25 10.89 0.25C10.45 0.26 10.1 0.62 10.1 1.06C10.11 1.5 10.46 1.85 10.9 1.85L10.91 1.85C10.94 1.85 10.96 1.85 10.99 1.85C12.98 1.85 14.91 2.54 16.45 3.79C17.12 4.34 18.09 4.29 18.7 3.68L19.64 2.74L19.64 5.75C19.64 5.89 19.57 5.98 19.52 6.02C19.48 6.07 19.39 6.14 19.25 6.14C19.25 6.14 19.25 6.14 19.25 6.14L16.23 6.14C16.43 5.83 16.4 5.41 16.13 5.14C15.82 4.82 15.31 4.82 15 5.12L14.68 5.44C14.67 5.44 14.67 5.44 14.67 5.44C14.28 5.83 14.17 6.4 14.38 6.91C14.59 7.41 15.07 7.74 15.62 7.74L19.25 7.74L19.25 7.74C19.78 7.74 20.28 7.53 20.65 7.16ZM1.56 11.39C2 11.39 2.35 11.03 2.35 10.59C2.33 8.57 3.02 6.6 4.29 5.04C4.84 4.37 4.79 3.4 4.17 2.79L3.24 1.85L6.24 1.85L6.24 1.85C6.38 1.85 6.47 1.92 6.52 1.97C6.56 2.01 6.63 2.1 6.63 2.24L6.63 5.27C6.32 5.07 5.91 5.1 5.63 5.36C5.32 5.67 5.31 6.18 5.62 6.5L5.93 6.82C5.94 6.82 5.94 6.82 5.94 6.82C6.32 7.21 6.9 7.32 7.4 7.12C7.9 6.91 8.23 6.42 8.23 5.88L8.23 2.24C8.23 1.71 8.03 1.21 7.65 0.83C7.27 0.46 6.77 0.25 6.24 0.25C6.24 0.25 6.24 0.25 6.24 0.25L2.61 0.25C2.07 0.25 1.58 0.58 1.37 1.08C1.16 1.59 1.28 2.16 1.66 2.55L3.04 3.92C3.07 3.95 3.07 4 3.05 4.03C1.54 5.88 0.73 8.21 0.75 10.6C0.75 11.04 1.11 11.39 1.55 11.39L1.56 11.39Z" />
</svg>
