<svg viewBox="0 0 86 22">
	<path d="M 63.613281 4.1621094 C 63.008488 4.1410949 62.390438 4.1478454 61.757812 4.1835938 C 56.720742 4.4682279 50.869424 6.6057705 44.169922 11.558594 C 38.034413 15.301883 34.188437 16.513051 31.625 16.503906 C 29.059035 16.494752 27.521184 15.40328 25.507812 13.765625 C 23.494442 12.12797 21.142866 9.9696458 17.458984 8.6816406 C 13.775102 7.3936355 8.8482711 7.0167653 1.6894531 8.5332031 L 2.3105469 11.466797 C 9.1017289 10.028235 13.391069 10.43762 16.46875 11.513672 C 19.546431 12.589729 21.502355 14.373202 23.615234 16.091797 C 25.728114 17.810392 28.137137 19.491498 31.615234 19.503906 C 35.093332 19.516316 39.383038 17.997391 45.751953 14.109375 L 45.808594 14.074219 L 45.863281 14.035156 C 52.263836 9.2834513 57.581861 7.4233104 61.927734 7.1777344 C 66.273608 6.9321583 69.714584 8.2711995 72.482422 10.203125 C 74.534219 11.635261 76.176394 13.393447 77.4375 15.041016 A 4.025 4.025 0 0 0 76.794922 17.216797 A 4.025 4.025 0 0 0 80.820312 21.240234 A 4.025 4.025 0 0 0 84.845703 17.216797 A 4.025 4.025 0 0 0 80.820312 13.191406 A 4.025 4.025 0 0 0 79.902344 13.302734 C 78.477177 11.430203 76.591224 9.4137382 74.199219 7.7441406 C 71.395138 5.7869244 67.846834 4.3092106 63.613281 4.1621094 z " />
</svg>
