<svg viewBox="0 0 24 19">
	<path d="M21.28 11.04C21.71 11.04 22.06 10.69 22.06 10.26L22.06 5.13C22.06 3.4 20.65 2 18.92 2L5.13 2C3.41 2 2 3.4 2 5.13L2 14.17C2 15.9 3.41 17.3 5.13 17.3L18.92 17.3C20.65 17.3 22.06 15.9 22.06 14.17C22.06 13.74 21.71 13.39 21.28 13.39C20.84 13.39 20.49 13.74 20.49 14.17C20.49 15.03 19.79 15.74 18.92 15.74L5.13 15.74C4.27 15.74 3.57 15.03 3.57 14.17L3.57 5.3L10.37 9.52C10.88 9.84 11.46 10 12.03 10C12.6 10 13.17 9.84 13.68 9.52L20.49 5.3L20.49 10.26C20.49 10.69 20.84 11.04 21.28 11.04ZM12.86 8.2C12.35 8.51 11.71 8.51 11.2 8.2L4.22 3.86C4.48 3.67 4.79 3.57 5.13 3.57L18.92 3.57C19.26 3.57 19.58 3.67 19.84 3.86L12.86 8.2Z" />
</svg>
