<svg viewBox="0 0 22 18">
	<path d="M18.58 10.02L16.13 10.02C16.13 10.02 16.13 10.02 16.13 10.02C15.24 10.02 14.47 10.54 14.16 11.35C14.12 11.46 14.07 11.59 14.02 11.75L8.87 11.75C8.66 11.75 8.46 11.84 8.31 11.99L6.96 13.38C6.66 13.68 6.66 14.17 6.96 14.48L8.34 15.87C8.48 16.02 8.69 16.11 8.9 16.11L11.45 16.11C11.88 16.11 12.24 15.76 12.24 15.32C12.24 14.89 11.88 14.54 11.45 14.54L9.23 14.54L8.62 13.92L9.2 13.32L14.61 13.32C14.97 13.32 15.28 13.07 15.37 12.72C15.43 12.46 15.51 12.21 15.63 11.91C15.7 11.72 15.89 11.59 16.13 11.59C16.13 11.59 16.13 11.59 16.13 11.59L18.58 11.59C18.8 11.59 18.99 11.71 19.08 11.9C19.29 12.38 19.54 13.11 19.54 13.91C19.55 14.71 19.29 15.46 19.08 15.94C19 16.14 18.8 16.27 18.59 16.27C18.59 16.27 18.59 16.27 18.59 16.27L16.11 16.27C15.89 16.27 15.69 16.13 15.6 15.92C15.51 15.7 15.43 15.44 15.36 15.14C15.26 14.72 14.83 14.46 14.41 14.56C13.99 14.66 13.73 15.08 13.83 15.51C13.92 15.89 14.02 16.22 14.15 16.52C14.48 17.32 15.25 17.84 16.11 17.84L18.59 17.84C18.59 17.84 18.59 17.84 18.59 17.84C19.43 17.84 20.19 17.34 20.52 16.57C20.79 15.95 21.12 14.98 21.11 13.9C21.11 12.83 20.79 11.87 20.51 11.26C20.18 10.51 19.42 10.02 18.58 10.02ZM17.93 13.12C18.37 13.12 18.72 13.48 18.72 13.91C18.72 14.34 18.37 14.7 17.93 14.7C17.5 14.7 17.15 14.34 17.15 13.91C17.15 13.48 17.5 13.12 17.93 13.12ZM17.97 0.4L4.14 0.4C2.41 0.4 1 1.81 1 3.54L1 12.61C1 14.35 2.41 15.76 4.14 15.76L4.42 15.76C4.85 15.76 5.2 15.4 5.2 14.97C5.2 14.54 4.85 14.18 4.42 14.18L4.14 14.18C3.28 14.18 2.57 13.48 2.57 12.61L2.57 3.71L9.4 7.95C9.91 8.27 10.48 8.43 11.06 8.43C11.63 8.43 12.21 8.27 12.72 7.95L19.54 3.71L19.54 7.9C19.54 8.33 19.9 8.69 20.33 8.69C20.76 8.69 21.11 8.33 21.11 7.9L21.11 3.54C21.11 1.81 19.71 0.4 17.97 0.4ZM11.89 6.62C11.38 6.94 10.74 6.94 10.23 6.62L3.23 2.27C3.49 2.08 3.8 1.97 4.14 1.97L17.97 1.97C18.31 1.97 18.63 2.08 18.89 2.27L11.89 6.62Z" />
</svg>
