<svg viewBox="0 0 39 35">
	<path d="M32.3 7.24L31.6 7.24L31.6 7.24C31.6 4.35 29.14 2 26.12 2L7.48 2C4.46 2 2 4.35 2 7.24L2 17.65C2 20.54 4.46 22.89 7.48 22.89L7.48 24.29C7.48 26.8 9.63 28.85 12.27 28.85L17.55 28.85C18.31 28.85 18.92 28.26 18.92 27.54C18.92 26.81 18.31 26.23 17.55 26.23L12.27 26.23C11.14 26.23 10.22 25.36 10.22 24.29L10.22 13.08L19.76 18.72C20.53 19.18 21.41 19.41 22.28 19.41C23.15 19.41 24.03 19.18 24.8 18.72L34.34 13.08L34.34 19.62C34.34 20.34 34.95 20.92 35.71 20.92C36.47 20.92 37.08 20.34 37.08 19.62L37.08 11.8C37.08 9.28 34.93 7.24 32.3 7.24ZM4.74 17.65L4.74 7.24C4.74 5.79 5.97 4.62 7.48 4.62L26.12 4.62C27.63 4.62 28.86 5.79 28.86 7.24L28.86 7.24L12.27 7.24C9.63 7.24 7.48 9.28 7.48 11.8L7.48 20.27C5.97 20.27 4.74 19.1 4.74 17.65ZM23.36 16.49C22.71 16.88 21.86 16.88 21.2 16.49L10.87 10.39C11.23 10.06 11.73 9.86 12.27 9.86L32.3 9.86C32.84 9.86 33.33 10.06 33.69 10.39L23.36 16.49ZM35.88 24.75C37.48 26.29 37.48 28.79 35.88 30.32L32.85 33.24C32.58 33.5 32.23 33.63 31.87 33.63C31.52 33.63 31.17 33.5 30.91 33.25C30.37 32.74 30.37 31.91 30.9 31.39L33.55 28.85L23.03 28.85C22.28 28.85 21.66 28.26 21.66 27.54C21.66 26.81 22.28 26.23 23.03 26.23L33.55 26.23L30.9 23.68C30.37 23.17 30.37 22.34 30.91 21.83C31.44 21.32 32.31 21.32 32.85 21.84L35.88 24.75Z" />
</svg>
