<svg viewBox="0 0 501.05 524">
	<path d="M454.73,392.36l-1.81-.52c-26.47-7.12-35.42-13.93-47.2-18.42-41.8-15.92-52.67-27.4-55.45-32.83A6.28,6.28,0,0,1,350,340l-.27-36.53c22.33-29.88,38.29-67.16,38.35-105.77,0,0,15.65-60.95-1.88-101.36-16.76-38.61-60.58-39.47-64.4-39.47h-.29S318.86,33.09,347.33,16c4.78-2.86-22.53-10-60.28-10C229.4,6,147.43,22.59,118.19,96.2,100,142,113.45,209.34,113.45,209.34l0,0c2.84,34.44,17.77,67.29,37.84,94.17L151.05,340c-.09.19-.17.41-.27.59C148,346,137.12,357.5,95.33,373.42c-11.78,4.49-20.74,11.3-47.21,18.42l-1.81.52A58.51,58.51,0,0,0,6,447.89V518H495.05V447.89A58.52,58.52,0,0,0,454.73,392.36ZM138,104.08a102.83,102.83,0,0,1,25.37-37.46c10.07-9.45,22.49-17.35,36.93-23.49C231,30.07,264.4,27.34,287.05,27.34c7.31,0,14,.27,19.9.71a64,64,0,0,0-3.28,7.61c-4.25,11.82-3.64,21-3.34,23.59l1.87,19.63,19.66-.68a63.13,63.13,0,0,1,19.84,3.92c12.1,4.51,20.25,11.94,24.92,22.72,3.46,7.93,5.55,18,6.27,29.68l-7.58-11.83-8.07-12.58-14.57,3.28c-.47.1-45.56,10.15-92.14,10.15-46.29,0-89.9-10-90.32-10.11l-15.65-3.66-7.83,14-5.56,10C132.45,122.34,134.74,112.34,138,104.08Zm-3.71,93.41a157.66,157.66,0,0,1,2.94-30.82l18.1-32.47s45.68,10.68,95.18,10.68,96.83-10.68,96.83-10.68l13.81,21.54a153.19,153.19,0,0,1,5.57,41.75c0,35.13-16,73.5-43.85,105.26-12.25,14-26,25.63-39.67,33.78-12.23,7.25-23.85,11.25-32.69,11.25s-20.46-4-32.69-11.25c-13.72-8.15-27.44-19.81-39.69-33.78C150.29,271,134.31,232.63,134.31,197.49ZM473.72,496.66H27.33V447.89a37.17,37.17,0,0,1,25.33-35.16l1.19-.35A204.42,204.42,0,0,0,93.66,397.5c3.43-1.62,6.39-3.06,9.26-4.16,23.89-9.09,56.81-23.46,66.83-43,.38-.77.66-1.39.82-1.77l1.78-3.93,0-4.52.09-12.33c25.68,25.41,55,41.31,78.05,41.31s52.37-15.9,78.06-41.31l.09,12.33,0,4.52,1.78,3.93c.14.35.43,1,.82,1.74,10,19.54,42.93,33.92,66.84,43,2.86,1.08,5.81,2.51,9.25,4.14a203.89,203.89,0,0,0,39.81,14.87l1.19.36a37.19,37.19,0,0,1,25.33,35.16v48.77Z" />
</svg>
