<svg viewBox="0 0 24 21">
	<path d="M22.18 10.18C22.63 10.18 23 9.82 23 9.37L23 5.27C23 3.47 21.53 2 19.72 2L5.28 2C3.47 2 2 3.47 2 5.27L2 13.46C2 15.26 3.47 16.73 5.28 16.73L11.68 16.73L11.68 18.36L8.81 18.36C8.35 18.36 7.99 18.73 7.99 19.18C7.99 19.63 8.35 20 8.81 20L16.19 20C16.64 20 17.01 19.63 17.01 19.18C17.01 18.73 16.64 18.36 16.19 18.36L13.32 18.36L13.32 16.73L19.72 16.73C21.53 16.73 23 15.26 23 13.46C23 13.01 22.63 12.64 22.18 12.64C21.73 12.64 21.36 13.01 21.36 13.46C21.36 14.36 20.62 15.09 19.72 15.09L5.28 15.09C4.38 15.09 3.64 14.36 3.64 13.46L3.64 5.27C3.64 4.37 4.38 3.64 5.28 3.64L19.72 3.64C20.62 3.64 21.36 4.37 21.36 5.27L21.36 9.37C21.36 9.82 21.73 10.18 22.18 10.18Z" />
</svg>
