<svg viewBox="0 0 22 18">
	<path d="M19.74 14.31L2.47 14.31C1.66 14.31 1 13.65 1 12.84L1 2.32C1 1.5 1.66 0.84 2.47 0.84L19.74 0.84C20.55 0.84 21.21 1.5 21.21 2.32L21.21 12.84C21.21 13.65 20.55 14.31 19.74 14.31ZM2.47 2.11C2.36 2.11 2.26 2.2 2.26 2.32L2.26 12.84C2.26 12.96 2.36 13.05 2.47 13.05L19.74 13.05C19.85 13.05 19.95 12.96 19.95 12.84L19.95 2.32C19.95 2.2 19.85 2.11 19.74 2.11L2.47 2.11ZM14.69 17.68L7.53 17.68C7.18 17.68 6.89 17.4 6.89 17.05C6.89 16.7 7.18 16.42 7.53 16.42L14.69 16.42C15.03 16.42 15.32 16.7 15.32 17.05C15.32 17.4 15.03 17.68 14.69 17.68ZM11.11 17.68C10.76 17.68 10.47 17.4 10.47 17.05L10.47 13.68C10.47 13.34 10.76 13.05 11.11 13.05C11.45 13.05 11.74 13.34 11.74 13.68L11.74 17.05C11.74 17.4 11.45 17.68 11.11 17.68ZM17.63 8.21L15.53 8.21C15.18 8.21 14.9 7.93 14.9 7.58C14.9 7.23 15.18 6.95 15.53 6.95L17.63 6.95C17.98 6.95 18.26 7.23 18.26 7.58C18.26 7.93 17.98 8.21 17.63 8.21ZM17.63 10.11L15.95 10.11C15.37 10.11 14.9 9.63 14.9 9.05L14.9 6.11C14.9 5.53 15.37 5.05 15.95 5.05L17.63 5.05C17.98 5.05 18.26 5.34 18.26 5.69C18.26 6.03 17.98 6.32 17.63 6.32L16.16 6.32L16.16 8.84L17.63 8.84C17.98 8.84 18.26 9.13 18.26 9.47C18.26 9.82 17.98 10.11 17.63 10.11ZM9.21 10.11C8.86 10.11 8.58 9.82 8.58 9.47L8.58 5.69C8.58 5.34 8.86 5.05 9.21 5.05C9.56 5.05 9.84 5.34 9.84 5.69L9.84 9.47C9.84 9.82 9.56 10.11 9.21 10.11ZM7.11 10.11L5 10.11C4.65 10.11 4.37 9.82 4.37 9.47L4.37 5.69C4.37 5.34 4.65 5.05 5 5.05C5.35 5.05 5.63 5.34 5.63 5.69L5.63 8.84L7.11 8.84C7.45 8.84 7.74 9.13 7.74 9.47C7.74 9.82 7.45 10.11 7.11 10.11ZM12.37 10.11C12.09 10.11 11.84 9.92 11.76 9.64L10.71 5.85C10.61 5.52 10.81 5.17 11.15 5.08C11.48 4.98 11.83 5.18 11.92 5.52L12.37 7.11L12.81 5.52C12.91 5.18 13.26 4.98 13.59 5.08C13.93 5.17 14.12 5.52 14.03 5.86L12.98 9.64C12.9 9.92 12.65 10.11 12.37 10.11L12.37 10.11Z" />
</svg>
