<svg viewBox="0 0 43 42">
	<path d="M40.53 18.98C38.28 16.7 35.7 14.94 32.91 13.63C32.95 13.29 32.99 12.96 32.99 12.62C32.99 6.22 27.83 1 21.5 1C15.17 1 10.01 6.22 10.01 12.62C10.01 12.96 10.09 13.29 10.09 13.63C7.3 14.94 4.72 16.75 2.47 19.02C1.84 19.61 1.84 20.62 2.47 21.25C2.76 21.55 3.18 21.72 3.59 21.72C4.01 21.72 4.38 21.55 4.72 21.25C6.51 19.4 8.59 17.93 10.84 16.79C11.46 18.39 12.38 19.78 13.59 20.96C11.63 21.88 9.8 23.15 8.22 24.75C7.59 25.38 7.59 26.39 8.22 26.98C8.51 27.31 8.92 27.44 9.3 27.44C9.67 27.44 10.09 27.27 10.42 26.98C12.25 25.13 14.42 23.86 16.75 23.1C18.21 23.78 19.83 24.2 21.54 24.2C23.25 24.2 24.87 23.78 26.33 23.1C28.62 23.86 30.83 25.13 32.66 26.98C33.28 27.57 34.28 27.57 34.87 26.98C35.49 26.35 35.49 25.34 34.87 24.75C33.28 23.15 31.45 21.88 29.5 20.96C30.7 19.78 31.62 18.39 32.24 16.79C34.41 17.93 36.49 19.4 38.28 21.21C38.91 21.8 39.91 21.8 40.49 21.21C41.16 20.58 41.16 19.57 40.53 18.98ZM21.5 21.04C16.92 21.04 13.17 17.25 13.17 12.62C13.17 7.99 16.92 4.2 21.5 4.2C26.08 4.2 29.83 7.99 29.83 12.62C29.83 17.25 26.08 21.04 21.5 21.04ZM13.88 30.51C13.25 31.15 13.25 32.16 13.88 32.75C14.17 33.04 14.59 33.21 15 33.21C15.42 33.21 15.79 33.04 16.13 32.75C19.13 29.71 24 29.71 26.95 32.75C27.58 33.38 28.58 33.38 29.16 32.75C29.79 32.11 29.79 31.1 29.16 30.51C24.91 26.22 18.09 26.22 13.88 30.51ZM21.5 35.44C20 35.44 18.75 36.7 18.75 38.22C18.75 39.78 20 41 21.5 41C23.04 41 24.25 39.74 24.25 38.22C24.25 36.66 23.04 35.44 21.5 35.44ZM25.66 8.41C25.04 7.78 24.08 7.78 23.46 8.41L21.5 10.35L19.54 8.37C18.92 7.74 17.92 7.74 17.34 8.37C16.75 9 16.71 10.01 17.34 10.6L19.29 12.58L17.34 14.56C16.71 15.19 16.71 16.2 17.34 16.79C17.63 17.08 18.04 17.25 18.46 17.25C18.88 17.25 19.25 17.08 19.58 16.79L21.54 14.81L23.5 16.79C23.79 17.08 24.21 17.25 24.62 17.25C25.04 17.25 25.41 17.08 25.75 16.79C26.37 16.16 26.37 15.15 25.75 14.56L23.79 12.58L25.75 10.6C26.29 10.01 26.29 9 25.66 8.41Z" />
</svg>
