<svg viewBox="0 0 22 21">
	<path d="M11.14 17.08C10.91 17.08 10.69 16.97 10.56 16.78L9.28 14.92C9.28 14.91 9.28 14.91 9.28 14.91C8.66 13.98 8.33 12.89 8.33 11.77L8.33 4.81C8.33 3.26 9.59 2 11.14 2C12.69 2 13.95 3.26 13.95 4.81L13.95 11.77C13.95 12.89 13.62 13.98 13 14.91C13 14.91 13 14.91 13 14.92L11.72 16.78C11.59 16.97 11.37 17.08 11.14 17.08ZM10.45 14.13L11.14 15.14L11.83 14.13C12.3 13.42 12.54 12.61 12.54 11.77L12.54 4.81C12.54 4.04 11.92 3.41 11.14 3.41C10.36 3.41 9.73 4.04 9.73 4.81L9.73 11.77C9.73 12.61 9.98 13.42 10.45 14.13L10.45 14.13ZM20 19.3C20 18.91 19.68 18.59 19.29 18.59L2.7 18.59C2.31 18.59 2 18.91 2 19.3C2 19.68 2.31 20 2.7 20L19.29 20C19.68 20 20 19.68 20 19.3ZM15.38 15.22C15.2 15.22 15.02 15.16 14.89 15.02C14.61 14.75 14.6 14.3 14.88 14.03L16.57 12.3C16.84 12.02 17.29 12.02 17.57 12.29C17.84 12.56 17.85 13.01 17.58 13.28L15.88 15.01C15.74 15.15 15.56 15.22 15.38 15.22ZM16.56 17.56L19.46 16.86C19.84 16.77 20.07 16.39 19.98 16.01C19.89 15.64 19.51 15.4 19.13 15.5L16.23 16.19C15.85 16.28 15.62 16.67 15.71 17.04C15.79 17.36 16.08 17.58 16.4 17.58C16.45 17.58 16.51 17.57 16.56 17.56ZM18.24 10.71C18.24 11.19 18.63 11.59 19.12 11.59C19.6 11.59 20 11.19 20 10.71C20 10.22 19.6 9.83 19.12 9.83C18.63 9.83 18.24 10.22 18.24 10.71ZM7.11 15.02C7.39 14.75 7.39 14.3 7.12 14.03L5.42 12.3C5.15 12.02 4.71 12.02 4.43 12.29C4.15 12.56 4.15 13.01 4.42 13.28L6.12 15.01C6.25 15.15 6.44 15.22 6.62 15.22C6.8 15.22 6.97 15.16 7.11 15.02L7.11 15.02ZM6.28 17.04C6.37 16.67 6.14 16.28 5.77 16.19L2.87 15.5C2.49 15.4 2.11 15.64 2.02 16.01C1.93 16.39 2.16 16.77 2.54 16.86L5.44 17.56C5.49 17.57 5.55 17.58 5.6 17.58C5.92 17.58 6.21 17.36 6.28 17.04ZM2.88 9.83C2.39 9.83 2 10.22 2 10.71C2 11.19 2.39 11.59 2.88 11.59C3.36 11.59 3.76 11.19 3.76 10.71C3.76 10.22 3.36 9.83 2.88 9.83Z" />
</svg>
