<svg viewBox="0 0 42 29">
	<path d="M37.45 15.08C35.3 15.08 33.5 16.64 33.12 18.69L25.76 18.69C25.38 16.64 23.58 15.08 21.43 15.08C19.27 15.08 17.48 16.64 17.1 18.69L9.74 18.69C9.36 16.64 7.56 15.08 5.41 15.08C2.98 15.08 1 17.06 1 19.49C1 21.92 2.98 23.9 5.41 23.9C7.27 23.9 8.87 22.73 9.51 21.09L17.33 21.09C17.97 22.73 19.56 23.9 21.43 23.9C23.29 23.9 24.89 22.73 25.53 21.09L33.35 21.09C33.99 22.73 35.59 23.9 37.45 23.9C39.88 23.9 41.86 21.92 41.86 19.49C41.86 17.06 39.88 15.08 37.45 15.08ZM5.41 21.49C4.3 21.49 3.4 20.59 3.4 19.49C3.4 18.39 4.3 17.49 5.41 17.49C6.51 17.49 7.41 18.39 7.41 19.49C7.41 20.59 6.51 21.49 5.41 21.49ZM21.43 21.49C20.32 21.49 19.43 20.59 19.43 19.49C19.43 18.39 20.32 17.49 21.43 17.49C22.53 17.49 23.43 18.39 23.43 19.49C23.43 20.59 22.53 21.49 21.43 21.49ZM37.45 21.49C36.35 21.49 35.45 20.59 35.45 19.49C35.45 18.39 36.35 17.49 37.45 17.49C38.56 17.49 39.46 18.39 39.46 19.49C39.46 20.59 38.56 21.49 37.45 21.49ZM9.41 10.28L7.01 10.28L7.01 0.66L2.2 0.66L2.2 3.07L4.6 3.07L4.6 10.28L2.2 10.28L2.2 12.68L9.41 12.68L9.41 10.28ZM25.03 10.28L20.23 10.28L20.23 8.96L25.03 6.16L25.03 0.66L17.82 0.66L17.82 3.07L22.63 3.07L22.63 4.78L17.82 7.58L17.82 12.68L25.03 12.68L25.03 10.28ZM17.82 25.9L25.03 25.9L25.03 28.3L17.82 28.3L17.82 25.9ZM40.66 0.66L33.45 0.66L33.45 3.07L38.25 3.07L38.25 5.47L34.65 5.47L34.65 7.87L38.25 7.87L38.25 10.28L33.45 10.28L33.45 12.68L40.66 12.68L40.66 0.66Z" />
</svg>