<svg viewBox="0 0 19 19">
	<path d="M17.1 1.9L6.76 1.9C4.13 1.9 2 4.03 2 6.66C2 9.28 4.13 11.41 6.76 11.41L8.93 11.41C9.27 11.41 9.55 11.14 9.55 10.8C9.55 10.46 9.27 10.18 8.93 10.18L6.76 10.18C4.81 10.18 3.23 8.6 3.23 6.66C3.23 4.71 4.81 3.13 6.76 3.13L10.77 3.13L10.77 17C10.77 17.33 11.05 17.61 11.39 17.61C11.73 17.61 12 17.33 12 17L12 3.13L14.15 3.13L14.15 17C14.15 17.33 14.43 17.61 14.76 17.61C15.1 17.61 15.38 17.33 15.38 17L15.38 3.13L17.1 3.13C17.44 3.13 17.71 2.85 17.71 2.51C17.71 2.17 17.44 1.9 17.1 1.9Z" />
</svg>
