<svg viewBox="0 0 42 42">
	<path d="M17.1 29.51C16.24 29.51 15.54 28.82 15.54 27.95L15.54 13.9C15.54 13.03 16.24 12.33 17.1 12.33C17.96 12.33 18.66 13.03 18.66 13.9L18.66 27.95C18.66 28.82 17.96 29.51 17.1 29.51ZM26.47 27.95L26.47 13.9C26.47 13.03 25.77 12.33 24.91 12.33C24.05 12.33 23.35 13.03 23.35 13.9L23.35 27.95C23.35 28.82 24.05 29.51 24.91 29.51C25.77 29.51 26.47 28.82 26.47 27.95ZM31.35 38.11C32.09 37.67 32.32 36.71 31.87 35.97C31.43 35.23 30.47 34.99 29.73 35.44C27.11 37.03 24.09 37.87 21 37.87C11.7 37.87 4.13 30.3 4.13 21C4.13 11.7 11.7 4.13 21 4.13C30.3 4.13 37.87 11.7 37.87 21C37.87 24.33 36.88 27.57 35.01 30.36C34.53 31.08 34.73 32.05 35.44 32.53C36.16 33.01 37.13 32.82 37.61 32.1C39.82 28.79 41 24.95 41 21C41 15.66 38.92 10.64 35.14 6.87C31.36 3.09 26.34 1.01 21 1.01C15.66 1.01 10.64 3.09 6.87 6.87C3.09 10.64 1.01 15.66 1.01 21C1.01 26.34 3.09 31.36 6.87 35.14C10.64 38.92 15.66 41 21 41C24.66 41 28.24 40 31.35 38.11Z" />
</svg>
