<svg viewBox="0 0 22 21">
	<path d="M19.67 15.03L16.21 12.11C16.04 11.97 15.84 11.9 15.64 11.9C15.17 11.9 14.73 12.29 14.73 12.85L14.73 17.68C14.73 18.23 15.16 18.6 15.61 18.6C15.82 18.6 16.03 18.52 16.21 18.35L17.02 17.57L17.96 19.59C18.08 19.85 18.33 20 18.59 20C18.7 20 18.8 19.98 18.9 19.93C19.25 19.75 19.4 19.31 19.23 18.94L18.28 16.92L18.41 16.86L19.33 16.63C20.03 16.45 20.24 15.51 19.67 15.03ZM16.13 16.42L16.13 13.94L17.95 15.47C17.9 15.49 17.85 15.51 17.81 15.53L16.45 16.2C16.33 16.26 16.23 16.33 16.13 16.42ZM17.89 2L4.11 2C2.95 2 2 2.99 2 4.21L2 16.43C2 18.05 3.26 19.37 4.81 19.37L12.58 19.37C12.97 19.37 13.28 19.04 13.28 18.64C13.28 18.23 12.97 17.9 12.58 17.9L4.81 17.9C4.04 17.9 3.41 17.24 3.41 16.43L3.41 6.45L18.59 6.45L18.59 11.94C18.59 12.35 18.91 12.67 19.3 12.67C19.68 12.67 20 12.35 20 11.94L20 4.21C20 2.99 19.05 2 17.89 2ZM15.04 3.47C15.43 3.47 15.75 3.8 15.75 4.21C15.75 4.61 15.43 4.94 15.04 4.94C14.66 4.94 14.34 4.61 14.34 4.21C14.34 3.8 14.66 3.47 15.04 3.47ZM18.56 4.21C18.56 4.61 18.24 4.94 17.86 4.94C17.47 4.94 17.15 4.61 17.15 4.21C17.15 3.8 17.47 3.47 17.86 3.47C18.24 3.47 18.56 3.8 18.56 4.21ZM3.41 4.21C3.41 3.8 3.72 3.47 4.11 3.47L13.05 3.47C12.98 3.7 12.93 3.95 12.93 4.21C12.93 4.48 12.98 4.74 13.07 4.98L3.41 4.98L3.41 4.21ZM13.43 13.46L13.43 13.81C13.43 14.84 12.7 15.68 11.74 15.82L11.74 16.25C11.74 16.65 11.42 16.98 11.03 16.98C10.65 16.98 10.33 16.65 10.33 16.25L10.33 15.84C9.89 15.82 9.48 15.64 9.16 15.32C8.83 14.98 8.64 14.52 8.64 14.02C8.64 13.62 8.96 13.29 9.35 13.29C9.73 13.29 10.05 13.62 10.05 14.02C10.05 14.22 10.2 14.37 10.4 14.37L11.44 14.37C11.77 14.37 12.02 14.13 12.02 13.81L12.02 13.46C12.02 13.13 11.76 12.86 11.44 12.86L10.8 12.86C9.71 12.86 8.82 11.92 8.82 10.78L8.82 10.68C8.82 10.12 9.03 9.6 9.41 9.22C9.66 8.95 9.98 8.77 10.33 8.68L10.33 8.18C10.33 7.78 10.65 7.45 11.03 7.45C11.42 7.45 11.74 7.78 11.74 8.18L11.74 8.66C12.56 8.81 13.18 9.55 13.18 10.43C13.18 10.84 12.86 11.17 12.48 11.17C12.09 11.17 11.77 10.84 11.77 10.43C11.77 10.22 11.59 10.1 11.41 10.1L10.8 10.1C10.47 10.1 10.23 10.35 10.23 10.68L10.23 10.78C10.23 11.11 10.48 11.38 10.8 11.38L11.44 11.38C12.54 11.38 13.43 12.31 13.43 13.46Z" />
</svg>
