<svg viewBox="0 0 17 17">
	<path d="M16.5 13.83C16.48 13.21 16.22 12.62 15.77 12.19C14.88 11.33 14.14 10.84 13.44 10.64C12.47 10.36 11.57 10.61 10.76 11.4C10.76 11.4 10.76 11.4 10.76 11.4L9.9 12.25C9.37 11.95 8.33 11.29 7.21 10.16L7.12 10.08C6 8.96 5.34 7.92 5.04 7.38L5.89 6.53C5.89 6.53 5.89 6.53 5.89 6.53C6.68 5.72 6.93 4.82 6.65 3.85C6.45 3.14 5.95 2.4 5.1 1.52C4.67 1.07 4.08 0.8 3.46 0.78C2.83 0.76 2.23 0.98 1.76 1.4L1.74 1.41C1.74 1.42 1.73 1.43 1.72 1.44C0.79 2.37 0.3 3.67 0.31 5.2C0.33 7.8 1.75 10.77 4.13 13.15C4.58 13.6 5.09 14.05 5.65 14.48C5.93 14.69 6.33 14.64 6.54 14.36C6.75 14.08 6.7 13.68 6.42 13.47C5.91 13.08 5.44 12.67 5.03 12.26C2.88 10.11 1.59 7.47 1.58 5.19C1.57 4.01 1.93 3.03 2.6 2.34L2.61 2.34C3.07 1.93 3.76 1.95 4.19 2.4C5.83 4.09 5.71 4.9 4.99 5.64L3.82 6.82C3.63 7.01 3.58 7.29 3.69 7.52C3.72 7.59 4.44 9.18 6.23 10.98L6.31 11.06C8.11 12.85 9.7 13.57 9.76 13.6C10 13.71 10.28 13.66 10.47 13.47L11.65 12.3C12.39 11.58 13.19 11.46 14.89 13.1C15.33 13.53 15.36 14.22 14.95 14.68L14.94 14.69C14.26 15.36 13.29 15.71 12.12 15.71C12.12 15.71 12.11 15.71 12.1 15.71C11.16 15.71 10.08 15.45 8.97 14.97C8.65 14.84 8.28 14.98 8.14 15.31C8.01 15.63 8.15 16 8.47 16.14C9.76 16.69 10.97 16.97 12.09 16.98C12.1 16.98 12.11 16.98 12.12 16.98C13.64 16.98 14.93 16.49 15.85 15.57C15.86 15.56 15.86 15.56 15.87 15.55L15.89 15.53C16.31 15.06 16.53 14.46 16.5 13.83Z" />
</svg>
