<svg viewBox="0 0 512 512">
	<path d="M299.55,512a210.74,210.74,0,0,1-126.06-41.43l-12.06-8.91,123.12-166.9V87.11h15C416.7,87.11,512,182.41,512,299.55S416.7,512,299.55,512Zm-95.82-57.15A180.84,180.84,0,0,0,299.55,482C400.15,482,482,400.15,482,299.55c0-95.55-73.83-174.18-167.45-181.83V304.63Z" />
	<path d="M98.46,448.65l-12.07-8.91A212.46,212.46,0,0,1,51.5,130.05l9.8-11.36L232.77,266.58ZM64.89,161.41A182.45,182.45,0,0,0,92.5,406.19l99.62-135Z" />
	<path d="M239.41,209.78,80.58,72.8l9.79-11.36A176.86,176.86,0,0,1,224.41,0h15ZM123.47,70.17l85.94,74.12V30.77A146.78,146.78,0,0,0,123.47,70.17Z" />
</svg>
