<svg viewBox="0 0 22 19">
	<path d="M2.84 18.13L20.06 18.13C21.07 18.13 21.89 17.31 21.89 16.29L21.89 2.84C21.89 1.82 21.07 1 20.06 1L2.84 1C1.82 1 1 1.82 1 2.84L1 16.29C1 17.31 1.82 18.13 2.84 18.13ZM2.22 2.84C2.22 2.5 2.5 2.22 2.84 2.22L20.06 2.22C20.39 2.22 20.67 2.5 20.67 2.84L20.67 16.29C20.67 16.63 20.39 16.91 20.06 16.91L2.84 16.91C2.5 16.91 2.22 16.63 2.22 16.29L2.22 2.84ZM4.06 14.46L4.82 14.46C5.07 15.17 5.75 15.68 6.55 15.68C7.35 15.68 8.03 15.17 8.28 14.46L18.83 14.46C19.17 14.46 19.44 14.19 19.44 13.85C19.44 13.51 19.17 13.24 18.83 13.24L8.28 13.24C8.03 12.52 7.35 12.01 6.55 12.01C5.75 12.01 5.07 12.52 4.82 13.24L4.06 13.24C3.72 13.24 3.45 13.51 3.45 13.85C3.45 14.19 3.72 14.46 4.06 14.46L4.06 14.46ZM6.55 13.24C6.89 13.24 7.16 13.51 7.16 13.85C7.16 14.19 6.89 14.46 6.55 14.46C6.21 14.46 5.94 14.19 5.94 13.85C5.94 13.51 6.21 13.24 6.55 13.24ZM8.68 10.7C8.86 10.81 9.08 10.82 9.27 10.72L14.17 8.28C14.38 8.17 14.51 7.96 14.51 7.73C14.51 7.5 14.38 7.29 14.17 7.18L9.27 4.74C9.08 4.64 8.86 4.65 8.68 4.76C8.5 4.87 8.39 5.07 8.39 5.28L8.39 10.18C8.39 10.39 8.5 10.59 8.68 10.7L8.68 10.7ZM9.61 6.27L12.53 7.73L9.61 9.19L9.61 6.27Z" />
</svg>
