<svg viewBox="0 0 89 30">
	<path d="M 83.798828 2.5410156 C 81.181249 2.5410156 79.043477 4.5737092 78.867188 7.1464844 C 67.094724 9.8984795 62.204286 16.692504 58.642578 21.269531 C 56.470304 24.061045 54.926131 25.759871 52.568359 25.96875 C 50.212452 26.177464 46.338932 24.795452 39.826172 20.070312 L 39.8125 20.060547 C 33.08161 15.072585 27.205062 12.923939 22.150391 12.638672 C 17.092097 12.3532 12.919602 13.961733 9.7167969 16.195312 C 3.3111862 20.662472 0.53320314 27.619141 0.53320312 27.619141 L 3.3105469 28.75 C 3.3105469 28.75 5.901704 22.512138 11.433594 18.654297 C 14.199538 16.725377 17.638528 15.389612 21.982422 15.634766 C 26.326316 15.879919 31.641002 17.736114 38.039062 22.480469 L 38.044922 22.484375 L 38.050781 22.488281 C 44.788681 27.379101 49.159881 29.282526 52.833984 28.957031 C 56.508087 28.631535 58.77954 25.977314 61.009766 23.111328 C 64.670385 18.407193 68.602761 12.430945 79.560547 10.007812 C 80.42372 11.455454 81.990455 12.435547 83.798828 12.435547 C 86.530828 12.435547 88.744141 10.220281 88.744141 7.4882812 C 88.744141 4.7552813 86.530828 2.5410156 83.798828 2.5410156 z " />
</svg>
