<svg viewBox="0 0 35 34">
	<path d="M33.28 31.93L25.42 31.93C30.66 29.12 34.25 23.6 34.25 17.25C34.25 8.1 26.78 0.62 17.62 0.62C8.47 0.62 1 8.1 1 17.25C1 26.4 8.47 33.87 17.62 33.87C17.64 33.87 17.66 33.87 17.68 33.87C17.68 33.87 17.69 33.87 17.69 33.87L33.28 33.87C33.81 33.87 34.25 33.44 34.25 32.9C34.25 32.36 33.81 31.93 33.28 31.93ZM2.95 17.25C2.95 9.16 9.53 2.57 17.62 2.57C25.72 2.57 32.3 9.16 32.3 17.25C32.3 25.34 25.72 31.93 17.62 31.93C9.53 31.93 2.95 25.34 2.95 17.25ZM17.62 12.38C19.77 12.38 21.52 10.63 21.52 8.48C21.52 6.33 19.77 4.59 17.62 4.59C15.48 4.59 13.73 6.33 13.73 8.48C13.73 10.63 15.48 12.38 17.62 12.38ZM17.62 6.53C18.7 6.53 19.57 7.41 19.57 8.48C19.57 9.56 18.7 10.43 17.62 10.43C16.55 10.43 15.68 9.56 15.68 8.48C15.68 7.41 16.55 6.53 17.62 6.53ZM26.39 21.15C28.54 21.15 30.29 19.4 30.29 17.25C30.29 15.1 28.54 13.35 26.39 13.35C24.24 13.35 22.5 15.1 22.5 17.25C22.5 19.4 24.24 21.15 26.39 21.15ZM26.39 15.3C27.47 15.3 28.34 16.18 28.34 17.25C28.34 18.32 27.47 19.2 26.39 19.2C25.32 19.2 24.44 18.32 24.44 17.25C24.44 16.18 25.32 15.3 26.39 15.3ZM21.52 26.02C21.52 23.87 19.77 22.12 17.62 22.12C15.48 22.12 13.73 23.87 13.73 26.02C13.73 28.17 15.48 29.91 17.62 29.91C19.77 29.91 21.52 28.17 21.52 26.02ZM15.68 26.02C15.68 24.94 16.55 24.07 17.62 24.07C18.7 24.07 19.57 24.94 19.57 26.02C19.57 27.09 18.7 27.97 17.62 27.97C16.55 27.97 15.68 27.09 15.68 26.02ZM8.86 13.35C6.71 13.35 4.96 15.1 4.96 17.25C4.96 19.4 6.71 21.15 8.86 21.15C11.01 21.15 12.75 19.4 12.75 17.25C12.75 15.1 11.01 13.35 8.86 13.35ZM8.86 19.2C7.78 19.2 6.91 18.32 6.91 17.25C6.91 16.18 7.78 15.3 8.86 15.3C9.93 15.3 10.81 16.18 10.81 17.25C10.81 18.32 9.93 19.2 8.86 19.2ZM17.62 14.33C16.01 14.33 14.7 15.64 14.7 17.25C14.7 18.86 16.01 20.17 17.62 20.17C19.24 20.17 20.55 18.86 20.55 17.25C20.55 15.64 19.24 14.33 17.62 14.33ZM17.62 18.22C17.09 18.22 16.65 17.79 16.65 17.25C16.65 16.71 17.09 16.28 17.62 16.28C18.16 16.28 18.6 16.71 18.6 17.25C18.6 17.79 18.16 18.22 17.62 18.22Z" />
</svg>
