<svg viewBox="0 0 21 25">
	<path d="M15.77 22.36C15.51 21.9 14.93 21.73 14.47 21.98C13.24 22.66 11.84 23.01 10.43 23.01C5.79 23.01 2.01 19.24 2.01 14.6C2.01 14.07 1.59 13.64 1.06 13.64C0.53 13.64 0.1 14.07 0.1 14.6C0.1 17.36 1.18 19.95 3.13 21.9C5.08 23.85 7.67 24.93 10.43 24.93C12.16 24.93 13.88 24.49 15.39 23.66C15.85 23.41 16.02 22.83 15.77 22.36ZM17.74 7.3C15.79 5.35 13.19 4.27 10.43 4.27L6.93 4.27L9.1 2.08C9.47 1.7 9.47 1.1 9.1 0.73C8.72 0.35 8.11 0.36 7.74 0.73L5.29 3.21C4.19 4.32 4.18 6.13 5.27 7.25L7.69 9.72C7.87 9.91 8.12 10.01 8.37 10.01C8.61 10.01 8.85 9.92 9.04 9.74C9.42 9.37 9.42 8.76 9.05 8.39L6.91 6.19L10.43 6.19C15.07 6.19 18.85 9.96 18.85 14.6C18.85 16.05 18.47 17.49 17.76 18.74C17.5 19.2 17.66 19.79 18.12 20.05C18.27 20.13 18.43 20.17 18.59 20.17C18.92 20.17 19.25 20 19.42 19.69C20.3 18.14 20.76 16.38 20.76 14.6C20.76 11.84 19.69 9.25 17.74 7.3Z" />
</svg>
