<svg viewBox="0 0 36 40">
	<path d="M17.77 1.97C14.9 1.97 12.57 4.31 12.57 7.2C12.57 10.08 14.9 12.42 17.77 12.42C20.64 12.42 22.96 10.08 22.96 7.2L22.96 7.2C22.96 4.31 20.63 1.98 17.77 1.97ZM17.77 10.2C16.12 10.2 14.78 8.86 14.78 7.2C14.78 5.54 16.12 4.2 17.77 4.2C19.41 4.2 20.75 5.54 20.75 7.2L20.75 7.2C20.75 8.86 19.41 10.2 17.77 10.2ZM18.68 13.73L16.84 13.73C12.57 13.73 9.1 17.22 9.1 21.52L9.1 21.86C9.1 22.47 9.59 22.97 10.21 22.97L25.32 22.97C25.93 22.97 26.43 22.47 26.43 21.86L26.43 21.52C26.43 17.22 22.96 13.73 18.68 13.73L18.68 13.73ZM11.37 20.74C11.76 18 14.09 15.96 16.85 15.96L18.69 15.96C21.44 15.96 23.78 18 24.16 20.74L11.37 20.74ZM16.66 26.2L16.66 30.59C14.79 31.2 13.77 33.23 14.38 35.11C14.99 36.99 17 38.02 18.87 37.41C20.74 36.79 21.77 34.77 21.16 32.89C20.8 31.8 19.95 30.94 18.87 30.59L18.87 26.2L16.66 26.2ZM17.77 35.36C17.02 35.36 16.41 34.75 16.41 33.99C16.41 33.24 17.02 32.63 17.77 32.63C18.51 32.63 19.12 33.24 19.12 33.99L19.12 33.99C19.12 34.75 18.51 35.36 17.77 35.36ZM32.69 28.31C31.6 27.21 29.94 26.94 28.56 27.64L25.48 24.54L23.92 26.11L26.98 29.22C26.1 30.98 26.8 33.14 28.56 34.03C30.32 34.92 32.46 34.21 33.34 32.44C34.03 31.07 33.77 29.4 32.69 28.31ZM31.13 31.81C30.6 32.33 29.75 32.33 29.22 31.8C28.7 31.27 28.7 30.41 29.23 29.88C29.75 29.35 30.6 29.35 31.13 29.88C31.65 30.41 31.65 31.27 31.13 31.8L31.13 31.81ZM6.97 27.64C5.21 26.75 3.07 27.47 2.19 29.24C1.31 31.01 2.02 33.16 3.78 34.05C5.54 34.94 7.68 34.22 8.56 32.45C9.07 31.43 9.07 30.23 8.55 29.22L11.63 26.12L10.07 24.55L6.97 27.64ZM6.32 31.8C5.79 32.33 4.93 32.32 4.41 31.79C3.88 31.26 3.88 30.4 4.41 29.87C4.94 29.35 5.79 29.35 6.32 29.87C6.84 30.4 6.84 31.27 6.32 31.8Z" />
</svg>
