<svg viewBox="0 0 27 22">
	<path d="M22.63 20.17L4.74 20.17C3.23 20.17 2 18.93 2 17.41L2 4.77C2 3.24 3.23 2 4.74 2L22.63 2C24.14 2 25.36 3.24 25.36 4.77L25.36 17.41C25.36 18.93 24.14 20.17 22.63 20.17ZM4.74 3.84C4.23 3.84 3.82 4.26 3.82 4.77L3.82 17.41C3.82 17.91 4.23 18.33 4.74 18.33L22.63 18.33C23.13 18.33 23.54 17.91 23.54 17.41L23.54 4.77C23.54 4.26 23.13 3.84 22.63 3.84L4.74 3.84ZM21.71 5.74L17.06 5.74L17.06 7.58L19.89 7.58L19.89 10.49L21.71 10.49L21.71 5.74ZM10.26 14.59L7.47 14.59L7.47 11.69L5.65 11.69L5.65 16.44L10.26 16.44L10.26 14.59Z" />
</svg>
