<svg viewBox="0 0 21 21">
	<path d="M18.96 0.26C18.42 0.26 6.31 0.26 5.56 0.26C3.05 0.26 1 2.31 1 4.83C1 7.04 2.59 8.92 4.72 9.31L2.3 17.81C2.3 17.82 2.3 17.83 2.29 17.83C1.98 19.07 2.92 20.26 4.19 20.26L6.72 20.26C7.61 20.26 8.39 19.66 8.61 18.79L9.3 16.35L10.89 16.35C11.49 16.35 12.01 15.94 12.16 15.36L12.81 12.75C13.01 11.93 12.39 11.13 11.54 11.13L10.78 11.13L11.27 9.39C11.61 9.39 17.13 9.39 17.22 9.39C18.07 9.39 18.81 8.85 19.08 8.05L20.82 2.84C21.24 1.57 20.3 0.26 18.96 0.26ZM7.35 18.45C7.35 18.45 7.35 18.46 7.35 18.47C7.28 18.76 7.02 18.96 6.72 18.96L4.19 18.96C3.77 18.96 3.46 18.57 3.56 18.16L6.05 9.39L9.91 9.39L7.35 18.45ZM11.54 12.44L10.89 15.05L9.67 15.05L10.41 12.44L11.54 12.44ZM5.56 8.09C4.5 8.09 3.55 7.57 2.96 6.78L6.87 6.78C7.23 6.78 7.52 6.49 7.52 6.13C7.52 5.77 7.23 5.48 6.87 5.48L2.37 5.48C2.33 5.27 2.3 5.05 2.3 4.83C2.3 4.6 2.33 4.38 2.37 4.17L6.87 4.17C7.23 4.17 7.52 3.88 7.52 3.52C7.52 3.16 7.23 2.87 6.87 2.87L2.96 2.87C3.55 2.08 4.5 1.56 5.56 1.56L17.12 1.56L14.94 8.09L5.56 8.09L5.56 8.09ZM19.58 2.42L17.84 7.64C17.75 7.91 17.5 8.09 17.22 8.09L16.32 8.09L18.49 1.56L18.96 1.56C19.41 1.56 19.72 2 19.58 2.42Z" />
</svg>
