<svg viewBox="0 0 22 17">
	<path d="M19.75 14.4L2.47 14.4C1.66 14.4 1 13.74 1 12.93L1 1.56C1 0.74 1.66 0.08 2.47 0.08L19.75 0.08C20.56 0.08 21.23 0.74 21.23 1.56L21.23 12.93C21.23 13.74 20.56 14.4 19.75 14.4ZM2.47 1.35C2.36 1.35 2.26 1.44 2.26 1.56L2.26 12.93C2.26 13.05 2.36 13.14 2.47 13.14L19.75 13.14C19.87 13.14 19.96 13.05 19.96 12.93L19.96 1.56C19.96 1.44 19.87 1.35 19.75 1.35L2.47 1.35ZM20.59 11.46L1.63 11.46C1.28 11.46 1 11.17 1 10.82C1 10.48 1.28 10.19 1.63 10.19L20.59 10.19C20.94 10.19 21.23 10.48 21.23 10.82C21.23 11.17 20.94 11.46 20.59 11.46ZM13.85 16.93L8.37 16.93C8.12 16.93 7.89 16.78 7.79 16.54C7.69 16.31 7.75 16.03 7.93 15.85C8.8 14.98 8.99 13.7 8.99 13.69C9.04 13.34 9.36 13.1 9.7 13.15C10.05 13.19 10.29 13.51 10.25 13.86C10.24 13.91 10.12 14.75 9.62 15.67L12.59 15.67C12.09 14.76 11.97 13.91 11.96 13.86C11.91 13.51 12.15 13.19 12.5 13.15C12.85 13.1 13.16 13.34 13.21 13.68C13.22 13.72 13.41 14.92 14.21 15.78C14.38 15.89 14.48 16.08 14.48 16.3C14.48 16.65 14.2 16.93 13.85 16.93L13.85 16.93ZM13.85 8.09C13.71 8.09 13.56 8.04 13.44 7.93C13.18 7.71 13.14 7.31 13.37 7.04L14.28 5.98L13.37 4.92C13.14 4.65 13.17 4.25 13.44 4.03C13.7 3.8 14.1 3.83 14.33 4.09L15.59 5.57C15.8 5.8 15.8 6.15 15.59 6.39L14.33 7.87C14.21 8.01 14.03 8.09 13.85 8.09L13.85 8.09ZM8.37 8.09C8.2 8.09 8.02 8.01 7.89 7.87L6.63 6.39C6.43 6.15 6.43 5.81 6.63 5.57L7.89 4.09C8.12 3.83 8.52 3.8 8.78 4.03C9.05 4.25 9.08 4.65 8.85 4.92L7.94 5.98L8.85 7.04C9.08 7.31 9.05 7.71 8.79 7.93C8.67 8.04 8.52 8.09 8.37 8.09L8.37 8.09ZM10.48 9.35C10.43 9.35 10.39 9.34 10.34 9.33C10 9.26 9.79 8.92 9.86 8.58L11.13 3.1C11.21 2.76 11.54 2.55 11.89 2.63C12.23 2.7 12.44 3.04 12.36 3.38L11.1 8.86C11.03 9.15 10.77 9.35 10.48 9.35L10.48 9.35Z" />
</svg>
