<svg viewBox="0 0 24 21">
	<path d="M19.24 4.98L18.85 4.98L18.85 4.98C18.85 3.34 17.45 2 15.73 2L5.12 2C3.4 2 2 3.34 2 4.98L2 10.91C2 12.55 3.4 13.89 5.12 13.89L5.12 14.69C5.12 16.12 6.34 17.28 7.84 17.28L10.85 17.28C11.28 17.28 11.63 16.95 11.63 16.53C11.63 16.12 11.28 15.79 10.85 15.79L7.84 15.79C7.2 15.79 6.68 15.29 6.68 14.69L6.68 8.31L12.11 11.52C12.55 11.78 13.05 11.91 13.54 11.91C14.04 11.91 14.54 11.78 14.98 11.52L20.41 8.31L20.41 12.03C20.41 12.44 20.75 12.77 21.19 12.77C21.62 12.77 21.97 12.44 21.97 12.03L21.97 7.58C21.97 6.15 20.74 4.98 19.24 4.98ZM3.56 10.91L3.56 4.98C3.56 4.16 4.26 3.49 5.12 3.49L15.73 3.49C16.59 3.49 17.29 4.16 17.29 4.98L17.29 4.98L7.84 4.98C6.34 4.98 5.12 6.15 5.12 7.58L5.12 12.4C4.26 12.4 3.56 11.73 3.56 10.91ZM14.16 10.25C13.78 10.47 13.3 10.47 12.93 10.25L7.05 6.77C7.26 6.59 7.54 6.47 7.84 6.47L19.24 6.47C19.55 6.47 19.83 6.59 20.04 6.77L14.16 10.25ZM21.28 14.95C22.19 15.82 22.19 17.25 21.28 18.12L19.56 19.78C19.4 19.93 19.2 20 19 20C18.8 20 18.6 19.93 18.45 19.78C18.15 19.49 18.15 19.02 18.45 18.73L19.96 17.28L13.97 17.28C13.54 17.28 13.19 16.95 13.19 16.53C13.19 16.12 13.54 15.79 13.97 15.79L19.96 15.79L18.45 14.34C18.15 14.05 18.15 13.58 18.45 13.29C18.76 13 19.25 13 19.56 13.29L21.28 14.95Z" />
</svg>
