<svg viewBox="0 0 21 21">
	<path d="M11.1 12.89L13.04 10.96L7.34 10.96C6.96 10.96 6.64 10.65 6.64 10.26C6.64 9.87 6.96 9.56 7.34 9.56L12.97 9.56L11.1 7.7C10.83 7.43 10.83 6.98 11.1 6.71C11.37 6.43 11.82 6.43 12.09 6.7L14.21 8.81C14.61 9.21 14.83 9.73 14.83 10.3C14.83 10.86 14.61 11.39 14.21 11.79L12.09 13.89C11.96 14.03 11.78 14.09 11.6 14.09C11.42 14.09 11.24 14.02 11.1 13.89C10.83 13.61 10.83 13.17 11.1 12.89ZM17.34 4.41C15.64 2.86 13.39 2 11 2C8.61 2 6.36 2.86 4.66 4.41C2.94 5.98 2 8.07 2 10.3C2 12.03 2.57 13.68 3.65 15.08L2.05 19.03C1.94 19.3 2.01 19.6 2.21 19.8C2.35 19.93 2.52 20 2.7 20C2.8 20 2.9 19.98 2.99 19.94L7.51 17.95C8.62 18.38 9.79 18.59 11 18.59C12.52 18.59 14.02 18.24 15.34 17.57C15.68 17.39 15.82 16.97 15.65 16.62C15.47 16.28 15.05 16.14 14.7 16.31C13.58 16.89 12.3 17.19 11 17.19C9.87 17.19 8.79 16.97 7.77 16.54C7.6 16.46 7.39 16.46 7.22 16.54L4 17.95L5.11 15.23C5.2 14.98 5.16 14.71 4.99 14.51C3.95 13.29 3.41 11.84 3.41 10.3C3.41 6.5 6.81 3.41 11 3.41C15.19 3.41 18.59 6.5 18.59 10.3C18.59 11.61 18.19 12.88 17.42 13.98C17.2 14.3 17.28 14.73 17.59 14.96C17.91 15.18 18.35 15.1 18.57 14.78C19.51 13.45 20 11.89 20 10.3C20 8.07 19.06 5.98 17.34 4.41Z" />
</svg>
