<svg viewBox="0 0 27 27">
	<path d="M26 9.73C26 9.45 25.94 9.18 25.84 8.92C25.84 8.92 25.84 8.92 25.84 8.92L23.49 3.3C23.16 2.51 22.4 2 21.55 2L6.45 2C5.6 2 4.83 2.51 4.5 3.3L2.16 8.92C2.05 9.18 2 9.45 2 9.73L2 12.64C2 13.18 2.2 13.67 2.54 14.05C2.2 14.42 2 14.91 2 15.45L2 18.26C2 18.8 2.2 19.3 2.54 19.67C2.2 20.04 2 20.54 2 21.08L2 23.89C2 25.05 2.95 26 4.11 26L23.89 26C25.05 26 26 25.05 26 23.89L26 21.08C26 20.54 25.79 20.04 25.46 19.67C25.79 19.3 26 18.8 26 18.26L26 15.45C26 14.91 25.79 14.42 25.46 14.05C25.79 13.67 26 13.18 26 12.64L26 9.73ZM5.8 3.84C5.91 3.57 6.17 3.41 6.45 3.41L21.55 3.41C21.83 3.41 22.09 3.57 22.19 3.84L23.77 7.62L4.22 7.62L5.8 3.84ZM24.59 23.89C24.59 24.28 24.28 24.59 23.89 24.59L4.11 24.59C3.72 24.59 3.41 24.28 3.41 23.89L3.41 21.08C3.41 20.69 3.72 20.37 4.11 20.37L23.89 20.37C24.28 20.37 24.59 20.69 24.59 21.08L24.59 23.89ZM24.59 18.26C24.59 18.65 24.28 18.97 23.89 18.97L4.11 18.97C3.72 18.97 3.41 18.65 3.41 18.26L3.41 15.45C3.41 15.06 3.72 14.75 4.11 14.75L23.89 14.75C24.28 14.75 24.59 15.06 24.59 15.45L24.59 18.26ZM24.59 12.64C24.59 13.03 24.28 13.34 23.89 13.34L4.11 13.34C3.72 13.34 3.41 13.03 3.41 12.64L3.41 9.73C3.41 9.34 3.72 9.03 4.11 9.03L23.89 9.03C24.28 9.03 24.59 9.34 24.59 9.73L24.59 12.64ZM22.48 21.78L9.73 21.78C9.34 21.78 9.03 22.1 9.03 22.48C9.03 22.87 9.34 23.19 9.73 23.19L22.48 23.19C22.87 23.19 23.19 22.87 23.19 22.48C23.19 22.1 22.87 21.78 22.48 21.78ZM22.48 10.44L9.73 10.44C9.34 10.44 9.03 10.75 9.03 11.14C9.03 11.53 9.34 11.84 9.73 11.84L22.48 11.84C22.87 11.84 23.19 11.53 23.19 11.14C23.19 10.75 22.87 10.44 22.48 10.44ZM5.51 10.44C5.13 10.44 4.81 10.75 4.81 11.14C4.81 11.53 5.13 11.94 5.51 11.94C5.9 11.94 6.22 11.53 6.22 11.14C6.22 10.75 5.9 10.44 5.51 10.44ZM22.48 16.15L9.73 16.15C9.34 16.15 9.03 16.47 9.03 16.86C9.03 17.25 9.34 17.56 9.73 17.56L22.48 17.56C22.87 17.56 23.19 17.25 23.19 16.86C23.19 16.47 22.87 16.15 22.48 16.15ZM5.51 16.15C5.9 16.15 6.22 16.47 6.22 16.86C6.22 17.25 5.9 17.56 5.51 17.56C5.13 17.56 4.81 17.25 4.81 16.86C4.81 16.47 5.13 16.15 5.51 16.15ZM5.51 21.78C5.9 21.78 6.22 22.1 6.22 22.48C6.22 22.87 5.9 23.19 5.51 23.19C5.13 23.19 4.81 22.87 4.81 22.48C4.81 22.1 5.13 21.78 5.51 21.78Z" />
</svg>
