<svg viewBox="0 0 23 23">
	<path d="M21.55 10.3L19.21 9.73C19.08 9.32 18.92 8.92 18.72 8.54L19.92 6.54C20.06 6.31 20.02 6.01 19.83 5.82L18.17 4.17C17.98 3.98 17.69 3.94 17.46 4.08L15.46 5.28C15.08 5.08 14.68 4.92 14.27 4.78L13.7 2.45C13.64 2.18 13.4 2 13.13 2L10.79 2C10.52 2 10.28 2.18 10.22 2.45L9.65 4.78C9.24 4.92 8.84 5.08 8.46 5.28L6.46 4.08C6.23 3.94 5.93 3.98 5.74 4.17L4.09 5.82C3.9 6.01 3.86 6.31 4 6.54L5.2 8.54C5 8.92 4.84 9.32 4.71 9.73L2.44 10.3C2.18 10.36 2 10.6 2 10.87L2 13.21C2 13.48 2.18 13.71 2.44 13.78L4.71 14.34C4.84 14.76 5 15.16 5.2 15.54L4 17.54C3.86 17.77 3.9 18.06 4.09 18.25L5.74 19.91C5.93 20.1 6.23 20.14 6.46 20L8.46 18.8C8.84 18.99 9.24 19.16 9.65 19.29L10.22 21.55C10.28 21.82 10.52 22 10.79 22L13.13 22C13.4 22 13.63 21.82 13.7 21.55L14.27 19.29C14.68 19.16 15.08 18.99 15.46 18.8L17.46 20C17.69 20.14 17.98 20.1 18.17 19.91L19.83 18.25C20.02 18.06 20.06 17.77 19.92 17.54L18.72 15.54C18.92 15.16 19.08 14.76 19.21 14.35L21.55 13.78C21.81 13.71 22 13.48 22 13.21L22 10.87C22 10.6 21.81 10.36 21.55 10.3ZM20.83 12.75L18.61 13.29C18.4 13.34 18.23 13.5 18.18 13.71C18.03 14.25 17.82 14.77 17.54 15.26C17.43 15.44 17.43 15.67 17.54 15.85L18.68 17.75L17.67 18.76L15.77 17.62C15.59 17.51 15.36 17.51 15.18 17.62C14.7 17.89 14.17 18.11 13.63 18.26C13.42 18.31 13.26 18.47 13.21 18.68L12.67 20.83L11.25 20.83L10.71 18.68C10.66 18.47 10.5 18.31 10.29 18.26C9.74 18.11 9.22 17.89 8.74 17.62C8.56 17.51 8.33 17.51 8.15 17.62L6.25 18.76L5.24 17.75L6.38 15.85C6.49 15.67 6.49 15.44 6.38 15.26C6.1 14.77 5.89 14.25 5.74 13.71C5.69 13.5 5.52 13.34 5.32 13.29L3.17 12.75L3.17 11.32L5.32 10.79C5.52 10.73 5.69 10.58 5.74 10.37C5.89 9.82 6.1 9.3 6.38 8.82C6.49 8.63 6.49 8.41 6.38 8.22L5.24 6.33L6.25 5.32L8.15 6.45C8.33 6.56 8.56 6.57 8.74 6.46C9.22 6.18 9.75 5.96 10.29 5.82C10.5 5.76 10.66 5.6 10.71 5.39L11.25 3.17L12.67 3.17L13.21 5.39C13.26 5.6 13.42 5.76 13.63 5.82C14.17 5.96 14.7 6.18 15.18 6.46C15.36 6.57 15.59 6.56 15.77 6.45L17.67 5.32L18.68 6.33L17.54 8.22C17.43 8.41 17.43 8.63 17.54 8.82C17.82 9.3 18.03 9.82 18.18 10.37C18.23 10.58 18.4 10.74 18.61 10.79L20.83 11.33L20.83 12.75ZM11.96 7.94C9.7 7.94 7.86 9.78 7.86 12.04C7.86 14.3 9.7 16.14 11.96 16.14C14.22 16.14 16.06 14.3 16.06 12.04C16.06 9.78 14.22 7.94 11.96 7.94ZM11.96 14.97C10.34 14.97 9.03 13.65 9.03 12.04C9.03 10.42 10.34 9.11 11.96 9.11C13.58 9.11 14.89 10.42 14.89 12.04C14.89 13.65 13.58 14.97 11.96 14.97Z" />
</svg>
