<svg viewBox="0 0 36 36">
	<path d="M15.81 0.41L1.98 0.41C1.21 0.41 0.59 1.03 0.59 1.79L0.59 15.62C0.59 16.38 1.21 17 1.98 17L15.81 17C16.57 17 17.19 16.38 17.19 15.62L17.19 1.79C17.19 1.03 16.57 0.41 15.81 0.41ZM14.42 14.24L3.36 14.24L3.36 3.17L14.42 3.17L14.42 14.24ZM35.15 19.32C34.63 19.11 34.03 19.22 33.64 19.62L19.81 33.45C19.41 33.85 19.29 34.44 19.51 34.96C19.72 35.48 20.23 35.81 20.79 35.81L34.62 35.81C35.38 35.81 36 35.19 36 34.43L36 20.6C36 20.04 35.66 19.53 35.15 19.32ZM33.23 33.05L24.13 33.05L33.23 23.94L33.23 33.05ZM27.7 17C32.28 17 36 13.28 36 8.7C36 4.13 32.28 0.41 27.7 0.41C23.13 0.41 19.4 4.13 19.4 8.7C19.4 13.28 23.13 17 27.7 17ZM27.7 3.17C30.75 3.17 33.23 5.65 33.23 8.7C33.23 11.75 30.75 14.24 27.7 14.24C24.65 14.24 22.17 11.75 22.17 8.7C22.17 5.65 24.65 3.17 27.7 3.17ZM16.79 21.58L10.85 27.51L16.79 33.45C17.33 33.99 17.33 34.87 16.79 35.41C16.24 35.95 15.37 35.95 14.83 35.41L8.89 29.47L2.95 35.41C2.42 35.95 1.54 35.95 1 35.41C0.46 34.87 0.46 33.99 1 33.45L6.94 27.51L1 21.58C0.46 21.04 0.46 20.16 1 19.62C1.54 19.08 2.42 19.08 2.95 19.62L8.89 25.56L14.83 19.62C15.37 19.08 16.24 19.08 16.79 19.62C17.33 20.16 17.33 21.04 16.79 21.58Z" />
</svg>
