<svg viewBox="0 0 37 40">
	<path d="M33.42 8.27L21.93 1.64C19.99 0.52 17.58 0.52 15.64 1.64L4.15 8.27C2.21 9.39 1 11.48 1 13.72L1 26.96C1 29.2 2.21 31.29 4.15 32.41L15.64 39.04C17.58 40.16 19.99 40.16 21.93 39.04L33.42 32.41C35.36 31.29 36.57 29.2 36.57 26.96L36.57 13.72C36.57 11.48 35.36 9.39 33.42 8.27ZM33.51 26.96C33.51 28.11 32.89 29.19 31.89 29.77L20.4 36.39C19.4 36.97 18.16 36.97 17.16 36.39L5.68 29.77C4.67 29.19 4.05 28.11 4.05 26.96L4.05 13.72C4.05 12.57 4.67 11.49 5.68 10.91L17.16 4.29C18.16 3.71 19.4 3.71 20.4 4.29L31.89 10.91C32.89 11.49 33.51 12.57 33.51 13.72L33.51 26.96ZM17.33 19.17L11.66 14.38C11.02 13.83 10.06 13.91 9.51 14.56C8.97 15.2 9.05 16.16 9.69 16.71L13.98 20.34L9.69 23.97C9.05 24.52 8.97 25.48 9.51 26.12C10.06 26.77 11.02 26.85 11.66 26.3L17.33 21.51C18.05 20.9 18.05 19.78 17.33 19.17ZM26.89 23.61L20.02 23.61C19.18 23.61 18.49 24.29 18.49 25.14C18.49 25.98 19.18 26.66 20.02 26.66L26.89 26.66C27.73 26.66 28.42 25.98 28.42 25.14C28.42 24.29 27.73 23.61 26.89 23.61Z" />
</svg>
