<svg viewBox="0 0 14 21">
	<path d="M11.53 1.79L2.68 1.79C2.29 1.79 1.97 2.1 1.97 2.49C1.97 2.87 2.29 3.18 2.68 3.18L11.53 3.18C11.92 3.18 12.23 2.87 12.23 2.49C12.23 2.1 11.92 1.79 11.53 1.79ZM11.53 18.2L2.68 18.2C2.29 18.2 1.97 18.52 1.97 18.9C1.97 19.28 2.29 19.6 2.68 19.6L11.53 19.6C11.92 19.6 12.23 19.28 12.23 18.9C12.23 18.52 11.92 18.2 11.53 18.2ZM10.83 5.96L8.65 3.8C8.24 3.4 7.71 3.18 7.14 3.18C6.57 3.18 6.04 3.4 5.63 3.8L3.45 5.96C3.18 6.24 3.18 6.68 3.46 6.95C3.74 7.22 4.18 7.21 4.46 6.94L6.4 5.02L6.4 14.07C6.4 14.45 6.71 14.76 7.1 14.76C7.5 14.76 7.81 14.45 7.81 14.07L7.81 4.95L9.82 6.94C9.96 7.08 10.14 7.15 10.32 7.15C10.5 7.15 10.68 7.08 10.82 6.95C11.1 6.68 11.1 6.24 10.83 5.96ZM10.82 14.44C10.54 14.17 10.1 14.17 9.82 14.45L7.64 16.61C7.51 16.74 7.33 16.81 7.14 16.81C6.95 16.81 6.77 16.74 6.64 16.61L4.46 14.45C4.18 14.17 3.74 14.17 3.46 14.44C3.18 14.71 3.18 15.15 3.45 15.43L5.63 17.59C6.04 17.99 6.57 18.2 7.14 18.2C7.71 18.2 8.24 17.99 8.65 17.59L10.83 15.43C11.1 15.15 11.1 14.71 10.82 14.44Z" />
</svg>
