<svg viewBox="0 0 100 100">
	<path d="m9.0041 1.9876c-5.4488-0.20396-7.9454 5.8987-6.9913 10.523 0.019179 26.401-0.047565 52.801 0.034467 79.202 0.32982 5.275 6.3177 7.0583 10.752 6.2744 26.312-0.0192 52.624 0.0476 78.936-0.0345 5.2751-0.32983 7.0583-6.3177 6.2744-10.752-0.01918-26.312 0.04757-52.624-0.03447-78.936-0.27876-4.8544-5.7047-7.044-9.9458-6.2759-26.342 2e-5 -52.684-4e-5 -79.026 3e-5zm11.625 13.607c19.849 0.0237 39.7-0.0474 59.547 0.0356 4.2385 0.59513 4.5708 5.666 4.2286 9.0494-0.02371 18.49 0.04744 36.983-0.03559 55.472-0.5951 4.2385-5.666 4.5707-9.0494 4.2286-18.49-0.0237-36.983 0.0475-55.472-0.0356-4.2385-0.59513-4.5708-5.666-4.2286-9.0494v-54.69c-0.08394-2.67 2.3404-5.0937 5.01-5.01z" fill="#008000" stroke-width=".26458" />
</svg>
