<svg viewBox="0 0 24 23">
	<path d="M9.34 21.41C9.05 21.41 8.76 21.32 8.51 21.14C8.51 21.14 8.51 21.14 8.5 21.14L7.11 20.12L5.72 21.14C5.72 21.14 5.72 21.14 5.72 21.14C5.22 21.5 4.55 21.5 4.05 21.14C3.55 20.77 3.35 20.15 3.54 19.56L4.07 17.94L2.68 16.93C2.18 16.57 1.97 15.93 2.16 15.34C2.35 14.75 2.9 14.35 3.51 14.35L5.24 14.35L5.77 12.74C5.96 12.16 6.5 11.77 7.11 11.77C7.73 11.77 8.27 12.16 8.46 12.74L8.98 14.35L10.72 14.35C11.33 14.35 11.87 14.75 12.06 15.34C12.25 15.93 12.05 16.57 11.55 16.93L10.15 17.94L10.69 19.56C10.88 20.15 10.68 20.77 10.18 21.14C9.93 21.32 9.63 21.41 9.34 21.41ZM7.11 18.51C7.41 18.51 7.7 18.6 7.94 18.78C7.94 18.78 7.95 18.78 7.95 18.78L9.04 19.59L8.63 18.31C8.44 17.73 8.64 17.09 9.14 16.73L10.27 15.92L8.88 15.92C8.26 15.92 7.72 15.54 7.53 14.97L7.11 13.67L6.69 14.97C6.51 15.54 5.97 15.92 5.35 15.92L3.96 15.92L5.08 16.73C5.58 17.09 5.79 17.73 5.6 18.31L5.18 19.59L6.28 18.78C6.28 18.78 6.28 18.78 6.28 18.78C6.53 18.6 6.81 18.51 7.11 18.51ZM10.72 15.92L10.72 15.92L10.72 15.92ZM19.38 21.41C19.09 21.41 18.8 21.32 18.55 21.14C18.55 21.14 18.55 21.14 18.54 21.14L17.15 20.12L15.76 21.14C15.76 21.14 15.76 21.14 15.76 21.14C15.26 21.5 14.59 21.5 14.09 21.14C13.59 20.77 13.39 20.15 13.58 19.56L14.11 17.94L12.72 16.93C12.22 16.57 12.01 15.93 12.2 15.34C12.39 14.75 12.93 14.35 13.55 14.35L15.28 14.35L15.81 12.74C16 12.16 16.54 11.77 17.15 11.77C17.77 11.77 18.31 12.16 18.5 12.74L19.02 14.35L20.76 14.35C21.14 14.35 21.5 14.5 21.76 14.77C22.03 15.05 22.18 15.43 22.17 15.82C22.16 16.26 21.8 16.6 21.37 16.59C20.98 16.58 20.67 16.29 20.61 15.92L18.92 15.92C18.3 15.92 17.76 15.54 17.57 14.97L17.15 13.67L16.73 14.97C16.54 15.54 16 15.92 15.39 15.92L14 15.92L15.12 16.73C15.62 17.09 15.83 17.73 15.64 18.31L15.22 19.59L16.32 18.78L16.32 18.78C16.57 18.6 16.85 18.51 17.15 18.51C17.45 18.51 17.74 18.6 17.98 18.78C17.98 18.78 17.99 18.78 17.99 18.78L19.08 19.59L18.76 18.6C18.62 18.19 18.85 17.74 19.26 17.61C19.67 17.47 20.12 17.7 20.25 18.11L20.72 19.56C20.92 20.15 20.72 20.77 20.22 21.14C19.97 21.32 19.67 21.41 19.38 21.41ZM20.6 15.79L20.6 15.79C20.6 15.79 20.6 15.79 20.6 15.79ZM14.36 11.65C14.07 11.65 13.78 11.56 13.53 11.38C13.53 11.38 13.53 11.37 13.52 11.37L12.13 10.35L10.74 11.37C10.74 11.37 10.74 11.38 10.74 11.38C10.24 11.74 9.57 11.74 9.07 11.37C8.57 11.01 8.37 10.39 8.56 9.8L9.09 8.17L7.7 7.17C7.2 6.81 6.99 6.17 7.18 5.57C7.37 4.98 7.92 4.59 8.53 4.59L10.26 4.59L10.79 2.97C10.98 2.39 11.52 2 12.13 2C12.75 2 13.29 2.39 13.48 2.97L14 4.59L15.74 4.59C16.35 4.59 16.89 4.98 17.08 5.57C17.27 6.17 17.07 6.81 16.57 7.17L15.17 8.17L15.7 9.8C15.9 10.39 15.7 11.01 15.2 11.37C14.95 11.55 14.65 11.65 14.36 11.65ZM12.13 8.75C12.43 8.75 12.72 8.84 12.96 9.01C12.96 9.01 12.97 9.02 12.97 9.02L14.06 9.82L13.65 8.55C13.46 7.96 13.66 7.33 14.16 6.97L15.29 6.16L13.9 6.16C13.28 6.16 12.74 5.78 12.55 5.21L12.13 3.91L11.71 5.21C11.53 5.78 10.98 6.16 10.37 6.16L8.98 6.16L10.1 6.97C10.6 7.33 10.81 7.96 10.62 8.55L10.2 9.82L11.3 9.02C11.3 9.02 11.3 9.01 11.3 9.01C11.55 8.84 11.83 8.75 12.13 8.75ZM15.74 6.16L15.74 6.16L15.74 6.16Z" />
</svg>
