<svg viewBox="0 0 23 23">
	<path d="M21.2 9.2C20.9 8.29 20.1 7.7 19.15 7.7L15.16 7.7C14.89 7.7 14.67 7.55 14.59 7.32L13.36 3.49C13.06 2.58 12.26 2 11.31 2C10.36 2 9.56 2.58 9.26 3.49L8.03 7.31C7.95 7.55 7.73 7.7 7.47 7.7L3.47 7.7C2.52 7.7 1.72 8.29 1.42 9.2C1.13 10.11 1.43 11.06 2.2 11.62L5.44 13.97C5.64 14.12 5.73 14.39 5.65 14.63L4.42 18.43C4.12 19.34 4.43 20.28 5.2 20.84C5.58 21.12 6.02 21.26 6.46 21.26C6.91 21.26 7.35 21.12 7.73 20.84L10.96 18.49C11.17 18.34 11.45 18.34 11.66 18.49L14.89 20.84C15.66 21.4 16.65 21.4 17.42 20.84C18.19 20.28 18.5 19.34 18.2 18.43L17.36 15.83C17.23 15.42 16.78 15.19 16.37 15.33C15.96 15.46 15.74 15.9 15.87 16.31L16.72 18.92C16.84 19.29 16.58 19.52 16.5 19.58C16.42 19.64 16.13 19.81 15.81 19.58L12.58 17.23C11.82 16.68 10.8 16.68 10.04 17.23L6.81 19.58C6.49 19.81 6.2 19.64 6.12 19.58C6.04 19.52 5.78 19.29 5.9 18.92L7.14 15.11C7.43 14.22 7.11 13.26 6.35 12.71L3.12 10.36C2.8 10.12 2.88 9.78 2.91 9.68C2.94 9.58 3.07 9.27 3.47 9.27L7.47 9.27C8.4 9.27 9.23 8.68 9.51 7.8L10.75 3.97C10.87 3.59 11.21 3.56 11.31 3.56C11.41 3.56 11.75 3.59 11.87 3.97L13.11 7.8C13.39 8.68 14.22 9.27 15.16 9.27L19.15 9.27C19.55 9.27 19.68 9.58 19.71 9.68C19.74 9.78 19.82 10.12 19.5 10.36L17.29 11.96C16.95 12.21 16.87 12.7 17.12 13.05C17.37 13.4 17.86 13.48 18.21 13.22L20.42 11.62C21.19 11.06 21.49 10.11 21.2 9.2Z" />
</svg>
