<svg viewBox="0 0 24 24">
	<path d="M21.7 16.3C22.14 16.3 22.5 15.94 22.5 15.5L22.5 9.85C22.5 8.22 21.17 6.89 19.54 6.89C17.9 6.89 16.57 8.22 16.57 9.85L16.57 19.54C16.57 21.17 17.9 22.5 19.54 22.5C21.17 22.5 22.5 21.17 22.5 19.54C22.5 19.09 22.14 18.74 21.7 18.74C21.26 18.74 20.9 19.09 20.9 19.54C20.9 20.29 20.29 20.9 19.54 20.9C18.79 20.9 18.18 20.29 18.18 19.54L18.18 9.85C18.18 9.1 18.79 8.49 19.54 8.49C20.29 8.49 20.9 9.1 20.9 9.85L20.9 15.5C20.9 15.94 21.26 16.3 21.7 16.3ZM4.96 9.33C3.33 9.33 2 10.66 2 12.29L2 19.54C2 21.17 3.33 22.5 4.96 22.5C6.6 22.5 7.93 21.17 7.93 19.54L7.93 12.29C7.93 10.66 6.6 9.33 4.96 9.33ZM6.32 19.54C6.32 20.29 5.71 20.9 4.96 20.9C4.21 20.9 3.6 20.29 3.6 19.54L3.6 12.29C3.6 11.54 4.21 10.93 4.96 10.93C5.71 10.93 6.32 11.54 6.32 12.29L6.32 19.54ZM12.25 2C10.62 2 9.29 3.33 9.29 4.96L9.29 19.54C9.29 21.17 10.62 22.5 12.25 22.5C13.88 22.5 15.21 21.17 15.21 19.54L15.21 4.96C15.21 3.33 13.88 2 12.25 2ZM13.61 19.54C13.61 20.29 13 20.9 12.25 20.9C11.5 20.9 10.89 20.29 10.89 19.54L10.89 4.96C10.89 4.21 11.5 3.6 12.25 3.6C13 3.6 13.61 4.21 13.61 4.96L13.61 19.54Z" />
</svg>
