<svg viewBox="0 0 512 512">
	<path d="M467,17H45C20.2,17,0,37.2,0,62v292c0,24.8,20.2,45,45,45h145.3l-11,66H160c-8.3,0-15,6.7-15,15
		s6.7,15,15,15h192c8.3,0,15-6.7,15-15s-6.7-15-15-15h-19.3l-11-66H467c24.8,0,45-20.2,45-45V62C512,37.2,491.8,17,467,17z
		 M302.3,465h-92.6l11-66h70.6L302.3,465z M482,354c0,8.3-6.7,15-15,15c-10.7,0-409.4,0-422,0c-8.3,0-15-6.7-15-15V62
		c0-8.3,6.7-15,15-15h196v17c0,8.3,6.7,15,15,15s15-6.7,15-15V47h196c8.3,0,15,6.7,15,15V354z" />
	<path d="M208,209c-8.3,0-15,6.7-15,15v49h-34v-97c0-8.3-6.7-15-15-15s-15,6.7-15,15v97H95V128
		c0-8.3-6.7-15-15-15s-15,6.7-15,15v160c0,8.3,6.7,15,15,15h128c8.3,0,15-6.7,15-15v-64C223,215.7,216.3,209,208,209z" />
	<path d="M360,121c-48,0-87,39-87,87c0,23.6,9.5,45.1,24.8,60.8c0.7,0.8,0.7,0.7,1.4,1.4
		c15.7,15.3,37.1,24.8,60.8,24.8c48,0,87-39,87-87S408,121,360,121z M415,193h-40v-40C394.4,158.3,409.7,173.6,415,193z M345,153
		v48.8l-34.5,34.5C292,203.9,309.2,162.8,345,153z M331.7,257.5l34.5-34.5H415C405.2,258.8,364,276,331.7,257.5z" />
</svg>
