<svg viewBox="0 0 21 22">
	<path d="M10.75 2.67C8.49 2.66 6.31 3.54 4.68 5.12L4.68 2.67C4.68 2.3 4.38 2 4.01 2C3.64 2 3.34 2.3 3.34 2.67L3.34 6.69C3.34 6.98 3.52 7.23 3.8 7.32L7.81 8.66C8.17 8.78 8.55 8.59 8.66 8.24C8.78 7.89 8.59 7.51 8.24 7.39L5.27 6.4C8.01 3.42 12.65 3.22 15.64 5.96C18.62 8.7 18.82 13.34 16.08 16.33C13.34 19.31 8.7 19.51 5.71 16.77C3.88 15.09 3.03 12.6 3.44 10.15C3.51 9.78 3.26 9.43 2.9 9.37C2.53 9.31 2.19 9.55 2.12 9.91C2.12 9.92 2.12 9.92 2.12 9.92C2.04 10.4 2 10.89 2 11.37C2.01 16.18 5.9 20.07 10.7 20.08C15.51 20.09 19.42 16.21 19.43 11.4C19.45 6.59 15.56 2.68 10.75 2.67Z" />
</svg>
