<svg viewBox="0 0 18 23">
	<path d="M14.19 2.27C12.86 1.79 11.1 1.52 9.24 1.52C7.38 1.52 5.63 1.79 4.3 2.27C2.4 2.95 2 3.84 2 4.45L2 18.4C2 19.01 2.4 19.9 4.3 20.58C5.63 21.07 7.38 21.33 9.24 21.33C10.33 21.33 11.42 21.24 12.5 21.04C15.03 20.55 16.49 19.59 16.49 18.4L16.49 4.45C16.49 3.84 16.09 2.95 14.19 2.27ZM4.63 3.18C5.86 2.74 7.49 2.49 9.24 2.49C10.99 2.49 12.63 2.74 13.85 3.18C15.07 3.62 15.51 4.13 15.51 4.45C15.51 4.78 15.07 5.28 13.85 5.73L13.85 5.73C12.63 6.17 10.99 6.41 9.24 6.41C7.49 6.41 5.86 6.17 4.63 5.73C3.41 5.28 2.98 4.78 2.98 4.45C2.98 4.13 3.41 3.62 4.63 3.18ZM15.51 18.4C15.51 18.66 15.24 18.97 14.76 19.26C14.17 19.6 13.33 19.89 12.31 20.08C11.3 20.27 10.27 20.36 9.24 20.36C7.49 20.36 5.85 20.11 4.63 19.67C3.41 19.23 2.97 18.72 2.97 18.4L2.97 15.26C3.39 15.53 3.83 15.75 4.3 15.92C5.63 16.4 7.38 16.66 9.24 16.66C11.1 16.66 12.86 16.4 14.18 15.92C14.65 15.75 15.1 15.53 15.51 15.26L15.51 18.4L15.51 18.4ZM15.51 13.73C15.51 14.05 15.08 14.56 13.85 15C12.63 15.44 10.99 15.69 9.24 15.69C7.49 15.69 5.85 15.44 4.63 15C3.41 14.56 2.97 14.05 2.97 13.73L2.97 10.62C3.39 10.9 3.83 11.12 4.3 11.28C5.63 11.76 7.38 12.02 9.24 12.02C11.1 12.02 12.86 11.76 14.18 11.28C14.65 11.12 15.1 10.9 15.51 10.62L15.51 13.73L15.51 13.73ZM15.51 9.09C15.51 9.42 15.08 9.92 13.85 10.36L13.85 10.36C12.63 10.81 10.99 11.05 9.24 11.05C7.49 11.05 5.85 10.81 4.63 10.36C3.41 9.92 2.97 9.42 2.97 9.09L2.97 5.99C3.39 6.26 3.83 6.48 4.3 6.64C5.63 7.12 7.38 7.39 9.24 7.39C11.1 7.39 12.86 7.12 14.18 6.64C14.65 6.48 15.1 6.26 15.51 5.99L15.51 9.09ZM10.36 8.65L8.12 8.65C7.86 8.65 7.64 8.87 7.64 9.14C7.64 9.41 7.86 9.62 8.12 9.62L10.36 9.62C10.63 9.62 10.85 9.41 10.85 9.14C10.85 8.87 10.63 8.65 10.36 8.65ZM10.36 13.23L8.12 13.23C7.86 13.23 7.64 13.44 7.64 13.71C7.64 13.98 7.86 14.2 8.12 14.2L10.36 14.2C10.63 14.2 10.85 13.98 10.85 13.71C10.85 13.44 10.63 13.23 10.36 13.23ZM10.36 17.95L8.12 17.95C7.86 17.95 7.64 18.16 7.64 18.43C7.64 18.7 7.86 18.92 8.12 18.92L10.36 18.92C10.63 18.92 10.85 18.7 10.85 18.43C10.85 18.16 10.63 17.95 10.36 17.95Z" />
</svg>
