<svg viewBox="0 0 27 23">
	<path d="M24.87 2L3.12 2C2.51 2 2 2.51 2 3.14L2 16.71C2 17.33 2.51 17.85 3.12 17.85L12.12 17.85L12.12 20.48L8.7 20.48L8.7 22L19.3 22L19.3 20.48L15.87 20.48L15.87 17.85L24.87 17.85C25.49 17.85 26 17.33 26 16.71L26 3.14C26 2.51 25.49 2 24.87 2ZM24.5 16.33L3.5 16.33L3.5 3.52L24.5 3.52L24.5 16.33ZM11.99 11.44L8.29 9.95L11.99 8.51L11.99 6.98L6.68 9.32L6.68 10.61L11.99 12.95L11.99 11.44ZM15.51 5.86L14.4 5.86L12.48 13.98L13.57 13.98L15.51 5.86ZM21.32 9.33L16 7L16 8.5L19.71 9.96L16 11.44L16 12.96L21.32 10.61L21.32 9.33Z" />
</svg>
