<svg viewBox="0 0 21 19">
	<path d="M17.86 0.26L2.53 0.26C1.24 0.26 0.18 1.32 0.18 2.61L0.18 15.58C0.18 17.31 1.59 18.71 3.31 18.71L11.76 18.71C12.19 18.71 12.55 18.36 12.55 17.93C12.55 17.5 12.19 17.15 11.76 17.15L3.31 17.15C2.45 17.15 1.75 16.45 1.75 15.58L1.75 4.99L18.65 4.99L18.65 7.85C18.65 8.28 19 8.63 19.43 8.63C19.86 8.63 20.21 8.28 20.21 7.85L20.21 2.61C20.21 1.32 19.16 0.26 17.86 0.26ZM14.7 1.83C15.13 1.83 15.48 2.18 15.48 2.61C15.48 3.04 15.13 3.39 14.7 3.39C14.27 3.39 13.91 3.04 13.91 2.61C13.91 2.18 14.27 1.83 14.7 1.83ZM18.61 2.61C18.61 3.04 18.26 3.39 17.83 3.39C17.39 3.39 17.04 3.04 17.04 2.61C17.04 2.18 17.39 1.83 17.83 1.83C18.26 1.83 18.61 2.18 18.61 2.61ZM1.75 2.61C1.75 2.18 2.1 1.83 2.53 1.83L12.48 1.83C12.4 2.07 12.35 2.33 12.35 2.61C12.35 2.9 12.4 3.17 12.5 3.43L1.75 3.43L1.75 2.61ZM17.04 14.33C16.61 14.33 16.26 13.98 16.26 13.55C16.26 13.12 16.61 12.77 17.04 12.77C17.48 12.77 17.83 13.12 17.83 13.55C17.83 13.98 17.48 14.33 17.04 14.33ZM19.61 10.92C19.89 11.53 20.21 12.47 20.21 13.54C20.21 14.62 19.89 15.58 19.62 16.2C19.29 16.97 18.53 17.46 17.7 17.46C17.7 17.46 17.7 17.46 17.69 17.46L15.22 17.45C14.37 17.45 13.6 16.94 13.28 16.15C13.15 15.85 13.05 15.52 12.96 15.14C12.86 14.72 13.12 14.3 13.54 14.2C13.96 14.1 14.38 14.36 14.48 14.78C14.55 15.08 14.63 15.33 14.72 15.55C14.81 15.76 15.01 15.89 15.23 15.89L17.7 15.9L17.7 15.9C17.91 15.9 18.1 15.77 18.19 15.58C18.4 15.09 18.65 14.35 18.65 13.55C18.65 12.75 18.4 12.03 18.18 11.56C18.1 11.36 17.91 11.25 17.69 11.25L15.25 11.25C15.25 11.25 15.25 11.25 15.25 11.25C15.01 11.25 14.82 11.37 14.75 11.56C14.63 11.86 14.55 12.11 14.49 12.37C14.4 12.72 14.09 12.97 13.73 12.97L8.35 12.97L7.77 13.56L8.37 14.18L10.59 14.18C11.02 14.18 11.37 14.53 11.37 14.96C11.37 15.39 11.02 15.74 10.59 15.74L8.05 15.74C7.84 15.74 7.64 15.66 7.49 15.51L6.12 14.11C5.82 13.81 5.82 13.33 6.12 13.02L7.46 11.64C7.61 11.49 7.81 11.4 8.02 11.4L13.14 11.4C13.2 11.25 13.25 11.11 13.29 11C13.6 10.2 14.36 9.68 15.24 9.68L15.25 9.68L17.69 9.68C18.52 9.68 19.28 10.17 19.61 10.92Z" />
</svg>
