<svg viewBox="0 0 22 22">
	<path d="M21.24 14.73C21.24 13.74 20.43 12.93 19.44 12.93C19.23 12.93 19.03 12.97 18.84 13.04L18.84 12.33C18.84 12.08 18.79 11.83 18.69 11.61C18.79 11.06 18.84 10.5 18.84 9.94C18.84 7.53 17.91 5.27 16.21 3.57C14.51 1.88 12.25 0.86 9.85 0.86C7.45 0.86 5.19 1.88 3.49 3.57C1.79 5.27 0.77 7.53 0.77 9.94C0.77 12.01 1.57 14.03 2.88 15.63C4.11 17.13 5.81 18.21 7.69 18.67C7.74 18.75 7.8 18.82 7.86 18.89L8.97 20.54C9.3 21.03 9.86 21.33 10.46 21.33C12.22 21.33 17.16 21.33 19.45 21.33L19.45 21.33C19.93 21.33 20.38 21.14 20.72 20.8C21.06 20.47 21.24 20.02 21.24 19.54L21.24 14.73ZM7.41 17.34C4.26 16.3 1.97 13.31 1.97 9.94C1.97 5.64 5.55 2.06 9.85 2.06C14.15 2.06 17.64 5.64 17.64 9.94C17.64 10.17 17.63 10.4 17.61 10.63C17.43 10.57 17.24 10.54 17.04 10.54C16.83 10.54 16.63 10.57 16.44 10.64L16.44 9.94C16.44 8.94 15.64 8.14 14.64 8.14C14.32 8.14 14.01 8.23 13.75 8.38C13.13 6.83 11.61 5.74 9.85 5.74C7.53 5.74 5.65 7.62 5.65 9.94C5.65 12.25 7.53 14.13 9.85 14.13C10.05 14.13 10.25 14.12 10.45 14.09L10.45 15.93L10.45 16.39C10.11 16.05 9.66 15.86 9.18 15.86C8.69 15.86 8.24 16.05 7.9 16.39C7.64 16.65 7.47 16.98 7.41 17.34ZM12.85 9.94L12.85 10.64C12.66 10.57 12.46 10.54 12.25 10.54C11.25 10.54 10.45 11.34 10.45 12.33L10.45 12.87C10.25 12.91 10.05 12.93 9.85 12.93C8.2 12.93 6.85 11.59 6.85 9.94C6.85 8.28 8.2 6.94 9.85 6.94C11.5 6.94 12.85 8.28 12.85 9.94ZM19.87 19.96C19.76 20.07 19.61 20.13 19.45 20.13C17.16 20.13 12.22 20.13 10.46 20.13C10.26 20.13 10.08 20.03 9.97 19.87C8.72 18.02 8.81 18.14 8.75 18.08C8.19 17.52 9.04 16.68 9.6 17.24L10.62 18.26C10.8 18.43 11.05 18.48 11.28 18.39C11.5 18.3 11.65 18.08 11.65 17.84L11.65 17.13L11.65 15.93L11.65 12.33C11.65 12 11.92 11.73 12.25 11.73C12.58 11.73 12.85 12 12.85 12.33L12.85 15.93C12.85 16.26 13.12 16.53 13.45 16.53C13.78 16.53 14.05 16.26 14.05 15.93L14.05 9.94C14.05 9.61 14.31 9.34 14.64 9.34C14.98 9.34 15.24 9.61 15.24 9.94L15.24 15.93C15.24 16.26 15.51 16.53 15.84 16.53C16.18 16.53 16.44 16.26 16.44 15.93L16.44 12.33C16.44 12 16.71 11.73 17.04 11.73C17.37 11.73 17.64 12 17.64 12.33L17.64 15.93C17.64 16.26 17.91 16.53 18.24 16.53C18.57 16.53 18.84 16.26 18.84 15.93L18.84 14.73C18.84 14.4 19.11 14.13 19.44 14.13C19.77 14.13 20.04 14.4 20.04 14.73L20.04 19.54C20.04 19.7 19.98 19.85 19.87 19.96ZM9.85 9.34C10.18 9.34 10.45 9.6 10.45 9.94C10.45 10.27 10.18 10.54 9.85 10.54C9.52 10.54 9.25 10.27 9.25 9.94C9.25 9.6 9.52 9.34 9.85 9.34Z" />
</svg>
