<svg viewBox="0 0 512 512">
	<path d="M256,160a96,96,0,1,0,96,96A96.11,96.11,0,0,0,256,160Zm0,160a64,64,0,1,1,64-64A64.06,64.06,0,0,1,256,320Z" />
	<path d="M496,240H447.2C439.46,146.88,365.12,72.54,272,64.8V16a16,16,0,0,0-32,0V64.8C146.88,72.54,72.54,146.91,64.8,240H16a16,16,0,0,0,0,32H64.8c7.74,93.12,82.08,167.46,175.2,175.2V496a16,16,0,0,0,32,0V447.2c93.12-7.74,167.46-82.08,175.2-175.2H496a16,16,0,0,0,0-32ZM256,416c-88.22,0-160-71.78-160-160S167.78,96,256,96s160,71.78,160,160S344.22,416,256,416Z" />
</svg>
