<svg viewBox="0 0 23 21">
	<path d="M15.45 14.39C15.88 14.39 16.22 14.73 16.22 15.16C16.22 15.58 15.88 15.92 15.45 15.92C15.03 15.92 14.68 15.58 14.68 15.16C14.68 14.73 15.03 14.39 15.45 14.39ZM12.38 9.01L7 9.01C6.57 9.01 6.23 9.35 6.23 9.78C6.23 10.2 6.57 10.54 7 10.54L12.38 10.54C12.8 10.54 13.14 10.2 13.14 9.78C13.14 9.35 12.8 9.01 12.38 9.01ZM10.53 11.7L7 11.7C6.57 11.7 6.23 12.04 6.23 12.47C6.23 12.89 6.57 13.23 7 13.23L10.53 13.23C10.96 13.23 11.3 12.89 11.3 12.47C11.3 12.04 10.96 11.7 10.53 11.7ZM21.06 11.34C21.42 11.26 21.68 10.95 21.68 10.58L21.68 8.62C21.68 6.93 20.3 5.55 18.6 5.55L5.07 5.55C4.85 5.55 4.63 5.57 4.43 5.62C4.52 5.57 4.63 5.54 4.74 5.51L16.76 2.82C17.38 2.69 18.02 3.01 18.28 3.59C18.45 3.98 18.9 4.16 19.29 3.99C19.68 3.81 19.86 3.36 19.68 2.97C19.13 1.72 17.76 1.03 16.43 1.32C16.43 1.32 16.43 1.32 16.42 1.32L4.4 4.01C3.72 4.17 3.11 4.55 2.67 5.09C2.24 5.64 2 6.32 2 7.01L2 10.58C2 10.95 2.26 11.26 2.62 11.34C3.15 11.44 3.54 11.92 3.54 12.47C3.54 13.01 3.15 13.49 2.62 13.6C2.26 13.67 2 13.98 2 14.35L2 16.31C2 18 3.38 19.38 5.07 19.38L18.6 19.38C20.3 19.38 21.68 18 21.68 16.31L21.68 14.35C21.68 13.98 21.42 13.67 21.06 13.6C20.53 13.49 20.14 13.01 20.14 12.47C20.14 11.92 20.53 11.44 21.06 11.34ZM20.14 10.04C19.22 10.47 18.6 11.41 18.6 12.47C18.6 13.52 19.22 14.46 20.14 14.9L20.14 16.31C20.14 17.16 19.45 17.84 18.6 17.84L16.22 17.84C16.22 17.42 15.88 17.08 15.45 17.08C15.03 17.08 14.68 17.42 14.68 17.84L5.07 17.84C4.23 17.84 3.54 17.16 3.54 16.31L3.54 14.9C4.46 14.46 5.07 13.52 5.07 12.47C5.07 11.41 4.46 10.47 3.54 10.04L3.54 8.62C3.54 7.78 4.23 7.09 5.07 7.09L14.68 7.09C14.68 7.51 15.03 7.86 15.45 7.86C15.88 7.86 16.22 7.51 16.22 7.09L18.6 7.09C19.45 7.09 20.14 7.78 20.14 8.62L20.14 10.04ZM15.45 9.01C15.88 9.01 16.22 9.35 16.22 9.78C16.22 10.2 15.88 10.54 15.45 10.54C15.03 10.54 14.68 10.2 14.68 9.78C14.68 9.35 15.03 9.01 15.45 9.01ZM15.45 11.7C15.88 11.7 16.22 12.04 16.22 12.47C16.22 12.89 15.88 13.23 15.45 13.23C15.03 13.23 14.68 12.89 14.68 12.47C14.68 12.04 15.03 11.7 15.45 11.7Z" />
</svg>
