<svg viewBox="0 0 512 327.37">
	<path d="M435.44,306.43a50,50,0,0,1,48.41-37.33h.1a27.88,27.88,0,0,0,19.9-8.19A27.54,27.54,0,0,0,512,241.27V86.09a27.55,27.55,0,0,0-8.15-19.64A27.86,27.86,0,0,0,484,58.27h-.13a50,50,0,0,1-48.41-37.34A27.94,27.94,0,0,0,408.48,0H107.3a27.91,27.91,0,0,0-27,21.13A50,50,0,0,1,31.8,58.8c-.86,0-1.72,0-2.57-.06A27.81,27.81,0,0,0,0,86.52V241.91A27.83,27.83,0,0,0,29.24,269.7c.84-.05,1.7-.07,2.56-.07a50.09,50.09,0,0,1,48.31,37A28,28,0,0,0,107,327.37H408.48A27.91,27.91,0,0,0,435.44,306.43Zm-326.76-9.07h0A80.16,80.16,0,0,0,31.8,239.62l-1.79,0V88.79c.6,0,1.2,0,1.79,0A79.94,79.94,0,0,0,109,30H406.81A80.06,80.06,0,0,0,482,88.26V239.11a80.05,80.05,0,0,0-75.18,58.25Z" />
	<path d="M384.83,169.39a15,15,0,0,0-15-15H271.09a15,15,0,0,0,0,30h98.74A15,15,0,0,0,384.83,169.39Z" />
	<path d="M384.83,225.8a15,15,0,0,0-15-15H152.69a15,15,0,1,0,0,30H369.83A15,15,0,0,0,384.83,225.8Z" />
	<path d="M229.68,128.57a46,46,0,1,0-46,46A46,46,0,0,0,229.68,128.57Zm-62,0a16,16,0,1,1,16,16A16,16,0,0,1,167.69,128.57Z" />
</svg>
