<svg viewBox="0 0 21 17">
	<path d="M15.74 1.67L5.46 1.67C3.55 1.67 2 3.22 2 5.13L2 12.17C2 14.08 3.55 15.63 5.46 15.63L15.74 15.63C17.65 15.63 19.2 14.08 19.2 12.17L19.2 5.13C19.2 3.22 17.65 1.67 15.74 1.67ZM18.19 12.17C18.19 13.52 17.1 14.62 15.74 14.62L5.46 14.62C4.11 14.62 3.01 13.52 3.01 12.17L3.01 5.13C3.01 3.78 4.11 2.68 5.46 2.68L15.74 2.68C17.1 2.68 18.19 3.78 18.19 5.13L18.19 12.17ZM12.21 8.72C12.49 8.72 12.72 8.49 12.72 8.21L12.72 7.31C12.72 7.03 12.49 6.8 12.21 6.8C11.93 6.8 11.71 7.03 11.71 7.31L11.71 8.21C11.71 8.49 11.93 8.72 12.21 8.72ZM10.6 8.75C10.88 8.75 11.1 8.53 11.1 8.25L11.1 7.34C11.1 7.06 10.88 6.84 10.6 6.84C10.32 6.84 10.1 7.06 10.1 7.34L10.1 8.25C10.1 8.53 10.32 8.75 10.6 8.75ZM8.99 8.75C9.27 8.75 9.49 8.53 9.49 8.25L9.49 7.34C9.49 7.06 9.27 6.84 8.99 6.84C8.71 6.84 8.48 7.06 8.48 7.34L8.48 8.25C8.48 8.53 8.71 8.75 8.99 8.75ZM15.07 4.96L6.13 4.96C5.85 4.96 5.63 5.18 5.63 5.46L5.63 10.13C5.63 10.41 5.85 10.63 6.13 10.63L7.44 10.63L7.44 11.84C7.44 12.12 7.67 12.35 7.95 12.35L13.25 12.35C13.53 12.35 13.76 12.12 13.76 11.84L13.76 10.63L15.07 10.63C15.35 10.63 15.57 10.41 15.57 10.13L15.57 5.46C15.57 5.18 15.35 4.96 15.07 4.96ZM14.56 9.62L13.25 9.62C12.98 9.62 12.75 9.85 12.75 10.13L12.75 11.34L8.45 11.34L8.45 10.13C8.45 9.85 8.22 9.62 7.95 9.62L6.64 9.62L6.64 5.96L14.56 5.96L14.56 9.62Z" />
</svg>
