<svg viewBox="0 0 27 27">
	<path d="M20.75 2L7.25 2C4.35 2 2 4.35 2 7.25L2 20.75C2 23.65 4.35 26 7.25 26L20.75 26C23.65 26 26 23.65 26 20.75L26 7.25C26 4.35 23.65 2 20.75 2ZM24.5 20.75C24.5 22.82 22.82 24.5 20.75 24.5L7.25 24.5C5.18 24.5 3.5 22.82 3.5 20.75L3.5 7.25C3.5 5.18 5.18 3.5 7.25 3.5L20.75 3.5C22.82 3.5 24.5 5.18 24.5 7.25L24.5 20.75ZM8.75 8.88L8.75 6.5L7.25 6.5L7.25 8.88C6.08 9.31 5.49 10.61 5.92 11.77C6.14 12.39 6.63 12.88 7.25 13.11L7.25 21.5L8.75 21.5L8.75 13.11C9.92 12.69 10.52 11.4 10.1 10.23C9.87 9.6 9.38 9.11 8.75 8.88ZM14.75 14.89L14.75 14.88L14.75 6.5L13.25 6.5L13.25 14.88C12.08 15.31 11.49 16.61 11.92 17.77C12.14 18.39 12.63 18.88 13.25 19.11L13.25 21.5L14.75 21.5L14.75 19.11C15.91 18.68 16.51 17.39 16.08 16.22C15.85 15.61 15.37 15.12 14.75 14.89ZM20.75 10.39L20.75 10.38L20.75 6.5L19.25 6.5L19.25 10.38C18.08 10.81 17.49 12.11 17.92 13.27C18.14 13.89 18.63 14.38 19.25 14.61L19.25 21.5L20.75 21.5L20.75 14.61C21.91 14.18 22.51 12.89 22.08 11.72C21.85 11.11 21.37 10.62 20.75 10.39Z" />
</svg>
