<svg viewBox="0 0 37 37">
	<path d="M26.25 20.22C26.31 20.94 25.77 21.57 25.05 21.62C24.33 21.68 23.7 21.14 23.64 20.42C23.55 19.24 23.39 18.15 23.26 17.43C21.82 17.25 18.97 16.92 16.72 16.92C14.48 16.92 11.71 17.24 10.31 17.43C10.12 18.5 9.85 20.41 9.85 22.28C9.85 24.16 10.12 26.07 10.31 27.14C11.65 27.33 14.27 27.65 16.52 27.65C17.25 27.65 17.83 28.23 17.83 28.96C17.83 29.68 17.25 30.26 16.52 30.26C13.12 30.26 9.15 29.62 8.99 29.59C8.45 29.51 8.03 29.1 7.92 28.58C7.89 28.45 7.23 25.4 7.23 22.28C7.23 19.17 7.89 16.11 7.92 15.99C8.03 15.46 8.46 15.05 9 14.97C9.18 14.94 13.39 14.3 16.72 14.3C20.05 14.3 24.39 14.94 24.57 14.97C25.11 15.05 25.54 15.46 25.66 15.99C25.67 16.07 26.07 17.95 26.25 20.22L26.25 20.22ZM30.27 9.07L22.3 9.07L31.65 4.48C32.3 4.16 32.57 3.38 32.25 2.73C31.93 2.08 31.15 1.82 30.5 2.13L19.08 7.73L14 2.41C13.51 1.88 12.68 1.86 12.15 2.36C11.63 2.86 11.61 3.69 12.11 4.21L16.74 9.07L7.23 9.07C4.35 9.07 2 11.41 2 14.3L2 30.26C2 33.15 4.35 35.5 7.23 35.5L16.52 35.5C17.25 35.5 17.83 34.91 17.83 34.19C17.83 33.47 17.25 32.88 16.52 32.88L7.23 32.88C5.79 32.88 4.62 31.71 4.62 30.26L4.62 14.3C4.62 12.86 5.79 11.68 7.23 11.68L30.27 11.68C31.71 11.68 32.88 12.86 32.88 14.3L32.88 14.43L29.61 14.43C28.89 14.43 28.3 15.02 28.3 15.74C28.3 16.46 28.89 17.05 29.61 17.05L32.88 17.05L32.88 19.01L29.61 19.01C28.89 19.01 28.3 19.6 28.3 20.32C28.3 21.04 28.89 21.63 29.61 21.63L34.19 21.63C34.91 21.63 35.5 21.04 35.5 20.32L35.5 14.3C35.5 11.41 33.15 9.07 30.27 9.07L30.27 9.07ZM34.19 24.25C33.47 24.25 32.88 24.83 32.88 25.55L32.88 28.63C32.88 28.66 32.87 29.29 31.62 31.31C31.49 31.52 31.37 31.71 31.25 31.9C31.13 31.71 31 31.52 30.88 31.31C29.62 29.29 29.61 28.66 29.61 28.63L29.61 25.55C29.61 24.83 29.02 24.25 28.3 24.25C27.58 24.25 26.99 24.83 26.99 25.55L26.99 28.63C26.99 29.23 27.17 30.3 28.66 32.71C29.42 33.93 30.17 34.93 30.2 34.97C30.45 35.3 30.83 35.5 31.25 35.5C31.66 35.5 32.05 35.3 32.29 34.97C32.33 34.93 33.07 33.93 33.83 32.71C35.33 30.3 35.5 29.23 35.5 28.63L35.5 25.55C35.5 24.83 34.91 24.25 34.19 24.25L34.19 24.25ZM24.38 24.25L19.14 24.25C18.42 24.25 17.83 24.83 17.83 25.55C17.83 26.28 18.42 26.86 19.14 26.86L20.45 26.86L20.45 34.19C20.45 34.91 21.04 35.5 21.76 35.5C22.48 35.5 23.07 34.91 23.07 34.19L23.07 26.86L24.38 26.86C25.1 26.86 25.68 26.28 25.68 25.55C25.68 24.83 25.1 24.25 24.38 24.25Z" />
</svg>
