<svg viewBox="0 0 27 24">
	<path d="M14 10.19C16.25 10.19 18.08 8.35 18.08 6.1C18.08 3.84 16.25 2 14 2C11.75 2 9.92 3.84 9.92 6.1C9.92 8.35 11.75 10.19 14 10.19ZM14 3.41C15.47 3.41 16.67 4.62 16.67 6.1C16.67 7.57 15.47 8.78 14 8.78C12.53 8.78 11.33 7.57 11.33 6.1C11.33 4.62 12.53 3.41 14 3.41ZM22.25 10.19C23.67 10.19 24.83 9.03 24.83 7.6C24.83 6.17 23.67 5.01 22.25 5.01C20.83 5.01 19.67 6.17 19.67 7.6C19.67 9.03 20.83 10.19 22.25 10.19ZM22.25 6.42C22.89 6.42 23.42 6.95 23.42 7.6C23.42 8.25 22.89 8.78 22.25 8.78C21.6 8.78 21.08 8.25 21.08 7.6C21.08 6.95 21.6 6.42 22.25 6.42ZM22.82 11.79L21.73 11.79C20.45 11.79 19.34 12.55 18.84 13.65C17.8 12.51 16.31 11.79 14.65 11.79L13.34 11.79C11.69 11.79 10.2 12.51 9.16 13.65C8.66 12.55 7.55 11.79 6.27 11.79L5.18 11.79C3.43 11.79 2 13.22 2 14.97L2 20.11C2 20.87 2.62 21.49 3.38 21.49L7.68 21.49C7.75 22.33 8.45 23 9.31 23L18.69 23C19.54 23 20.25 22.33 20.32 21.49L24.57 21.49C25.36 21.49 26 20.85 26 20.06L26 14.97C26 13.22 24.57 11.79 22.82 11.79L22.82 11.79ZM3.41 14.97C3.41 14 4.2 13.21 5.18 13.21L6.27 13.21C7.25 13.21 8.05 14 8.05 14.97L8.05 15.45C7.57 16.69 7.67 17.43 7.67 20.08L3.41 20.08L3.41 14.97ZM18.92 21.35C18.92 21.48 18.81 21.59 18.69 21.59L9.31 21.59C9.18 21.59 9.08 21.48 9.08 21.35L9.08 17.49C9.08 15.13 10.99 13.21 13.34 13.21L14.65 13.21C17.01 13.21 18.92 15.13 18.92 17.49L18.92 21.35ZM24.59 20.06C24.59 20.09 24.85 20.08 20.33 20.08C20.33 17.41 20.42 16.69 19.95 15.45L19.95 14.97C19.95 14 20.75 13.21 21.73 13.21L22.82 13.21C23.8 13.21 24.59 14 24.59 14.97L24.59 20.06ZM5.75 10.19C7.17 10.19 8.33 9.03 8.33 7.6C8.33 6.17 7.17 5.01 5.75 5.01C4.33 5.01 3.17 6.17 3.17 7.6C3.17 9.03 4.33 10.19 5.75 10.19ZM5.75 6.42C6.4 6.42 6.92 6.95 6.92 7.6C6.92 8.25 6.4 8.78 5.75 8.78C5.1 8.78 4.58 8.25 4.58 7.6C4.58 6.95 5.1 6.42 5.75 6.42Z" />
</svg>
