<svg viewBox="0 0 21 21">
	<path d="M18.57 13.43C17.98 12.9 17.25 12.45 16.42 12.08C16.07 11.92 15.65 12.08 15.49 12.44C15.34 12.79 15.5 13.21 15.85 13.36C16.55 13.68 17.15 14.05 17.64 14.48C18.25 15.01 18.59 15.78 18.59 16.59L18.59 17.89C18.59 18.28 18.28 18.59 17.89 18.59L4.11 18.59C3.72 18.59 3.41 18.28 3.41 17.89L3.41 16.59C3.41 15.78 3.75 15.01 4.36 14.48C5.07 13.86 7.14 12.41 11 12.41C13.87 12.41 16.2 10.07 16.2 7.2C16.2 4.33 13.87 2 11 2C8.13 2 5.8 4.33 5.8 7.2C5.8 8.88 6.59 10.37 7.83 11.33C5.57 11.82 4.16 12.78 3.43 13.43C2.52 14.22 2 15.38 2 16.59L2 17.89C2 19.05 2.95 20 4.11 20L17.89 20C19.05 20 20 19.05 20 17.89L20 16.59C20 15.38 19.48 14.22 18.57 13.43ZM7.2 7.2C7.2 5.11 8.91 3.41 11 3.41C13.09 3.41 14.8 5.11 14.8 7.2C14.8 9.3 13.09 11 11 11C8.91 11 7.2 9.3 7.2 7.2Z" />
</svg>
