<svg  viewBox="0 0 511 510.9" >

		<path  d="M295.9,334.9c-12.5-8.7-25.8-15.8-39.8-21.2c18.6-16.9,30.9-40.5,33-67c28.2-27.5,65.1-42.5,104.7-42.5
		c30.9,0,60.6,9.3,85.8,26.9c9,6.3,21.5,4.1,27.8-5c6.3-9,4.1-21.5-5-27.8c-12.5-8.7-25.9-15.8-39.8-21.2
		c20.5-18.6,33.4-45.5,33.4-75.3C496,45.7,450.4,0,394.2,0c-56.1,0-101.8,45.7-101.8,101.8c0,29.7,12.8,56.5,33.1,75.1
		c-2.8,1.1-5.6,2.2-8.3,3.4c-12.5,5.5-24.2,12.3-35.2,20.2c-15.1-37.4-51.7-63.9-94.5-63.9c-56.1,0-101.8,45.7-101.8,101.8
		c0,29.6,12.7,56.3,33,74.9c-54.1,20.3-98,63.9-115.9,119.4c-5.9,18.4-2.8,38,8.6,53.6c11.4,15.6,29,24.6,48.4,24.6h173.6
		c11,0,20-8.9,20-20c0-11-8.9-20-20-20H59.9c-6.5,0-12.3-3-16.1-8.2c-3.8-5.2-4.8-11.7-2.9-17.9c19.7-61.3,79.9-104.2,146.3-104.2
		c30.9,0,60.6,9.3,85.8,26.9c9,6.3,21.5,4.1,27.8-5C307.1,353.7,304.9,341.2,295.9,334.9 M394.2,39.9c34.1,0,61.9,27.8,61.9,61.9
		c0,34.1-27.8,61.9-61.9,61.9c-34.1,0-61.9-27.8-61.9-61.9C332.4,67.7,360.1,39.9,394.2,39.9 M187.7,176.5
		c34.1,0,61.9,27.8,61.9,61.9c0,34.1-27.8,61.9-61.9,61.9s-61.9-27.8-61.9-61.9C125.8,204.3,153.6,176.5,187.7,176.5 M511,416.1
		c0,11-8.9,20-20,20h-54.9V491c0,11-8.9,20-20,20c-11,0-20-8.9-20-20v-54.9h-54.9c-11,0-20-8.9-20-20c0-11,8.9-20,20-20h54.9v-54.9
		c0-11,8.9-20,20-20c11,0,20,8.9,20,20v54.9H491C502.1,396.2,511,405.1,511,416.1" />
</svg>
