<svg viewBox="0 0 512 512">
	<path d="M310.58,240.71a98.54,98.54,0,0,0,37.68-77.46c0-54.5-44.53-98.84-99.26-98.84s-99.26,44.34-99.26,98.84a97.31,97.31,0,0,0,.57,10.58,79.06,79.06,0,0,0-38-9.67c-43.69,0-79.23,35.4-79.23,78.92a78.55,78.55,0,0,0,25.11,57.56A97.28,97.28,0,0,0,0,389.62v91.77A30.64,30.64,0,0,0,30.61,512H356.19a35.51,35.51,0,0,0,35.47-35.47V356.16a122.93,122.93,0,0,0-81.08-115.45ZM249,94.41c38.19,0,69.26,30.88,69.26,68.84S287.19,232.09,249,232.09s-69.26-30.88-69.26-68.84S210.81,94.41,249,94.41ZM112.33,194.16a48.93,48.93,0,0,1,47.86,60.47A123.53,123.53,0,0,0,125.6,290.2a49,49,0,1,1-13.27-96ZM30,481.39V389.62a67.21,67.21,0,0,1,67.13-67.13H111a122.74,122.74,0,0,0-4.69,33.67V476.53a35.22,35.22,0,0,0,.42,5.47H30.61A.66.66,0,0,1,30,481.39Zm331.66-4.86a5.54,5.54,0,0,1-5.47,5.47H141.8a5.54,5.54,0,0,1-5.47-5.47V356.16a92.83,92.83,0,0,1,92.72-92.73h39.89a92.83,92.83,0,0,1,92.72,92.73Z" />
	<path d="M497,42.36H469.43V15a15,15,0,0,0-30,0V42.36H411.86a15,15,0,0,0,0,30h27.57V99.72a15,15,0,0,0,30,0V72.36H497a15,15,0,0,0,0-30Z" />
</svg>
