<svg viewBox="0 0 22 21">
	<path d="M10.23 18.56L4.11 18.56C3.88 18.56 3.68 18.46 3.54 18.27C3.41 18.09 3.37 17.86 3.44 17.65C4.14 15.49 6.26 13.98 8.6 13.98C9.68 13.98 10.73 14.31 11.62 14.93C11.94 15.15 12.37 15.07 12.6 14.76C12.82 14.44 12.74 14 12.42 13.78C11.98 13.47 11.51 13.22 11.02 13.03C11.67 12.44 12.11 11.6 12.18 10.67C13.18 9.71 14.48 9.18 15.87 9.18C16.96 9.18 18.01 9.51 18.89 10.13C19.21 10.35 19.65 10.27 19.87 9.95C20.1 9.63 20.02 9.2 19.7 8.97C19.26 8.67 18.79 8.42 18.3 8.23C19.02 7.57 19.47 6.63 19.47 5.58C19.47 3.61 17.86 2 15.89 2C13.91 2 12.3 3.61 12.3 5.58C12.3 6.62 12.75 7.56 13.47 8.22C13.37 8.26 13.27 8.3 13.18 8.34C12.74 8.53 12.32 8.77 11.94 9.05C11.41 7.73 10.12 6.8 8.61 6.8C6.63 6.8 5.02 8.41 5.02 10.38C5.02 11.42 5.47 12.36 6.19 13.02C4.28 13.73 2.73 15.26 2.1 17.22C1.89 17.86 2 18.55 2.41 19.1C2.81 19.65 3.43 19.97 4.11 19.97L10.23 19.97C10.62 19.97 10.93 19.65 10.93 19.27C10.93 18.88 10.62 18.56 10.23 18.56ZM15.89 3.4C17.09 3.4 18.07 4.38 18.07 5.58C18.07 6.78 17.09 7.75 15.89 7.75C14.69 7.75 13.71 6.78 13.71 5.58C13.71 4.38 14.69 3.4 15.89 3.4ZM8.61 8.21C9.81 8.21 10.79 9.18 10.79 10.38C10.79 11.58 9.81 12.56 8.61 12.56C7.41 12.56 6.43 11.58 6.43 10.38C6.43 9.18 7.41 8.21 8.61 8.21ZM19.71 13.46C19.39 13.24 18.95 13.31 18.73 13.63L15.26 18.46C15.17 18.57 15.05 18.59 14.98 18.6C14.92 18.6 14.79 18.59 14.68 18.49L12.44 16.34C12.16 16.07 11.71 16.08 11.44 16.36C11.18 16.64 11.18 17.08 11.46 17.35L13.71 19.5C14.05 19.82 14.5 20 14.96 20C15 20 15.04 20 15.08 20C15.58 19.96 16.05 19.72 16.37 19.33C16.37 19.32 16.38 19.31 16.39 19.29L19.87 14.44C20.09 14.13 20.02 13.69 19.71 13.46Z" />
</svg>
