<svg viewBox="0 0 30 43">
	<path d="M2.06 42L28.12 42C28.76 42 28.41 42 29 42C29 42 28.99 40.6 28.97 39.66L28.97 39.66L28.97 28.17C28.97 26.88 27.93 25.83 26.66 25.83L24.94 25.83C24.49 23.82 23.59 22.11 22.3 20.81C21.49 20 20.55 19.38 19.51 18.96C21.75 17 23.2 13.62 23.2 10.57C23.2 7.79 22.44 5.62 20.94 4.1C19.59 2.73 17.7 2 15.49 2C13.28 2 11.39 2.73 10.04 4.1C8.54 5.62 7.78 7.79 7.78 10.57C7.78 13.62 9.24 17 11.47 18.96C10.43 19.38 9.49 20 8.68 20.81C7.39 22.11 6.49 23.83 6.04 25.83L4.32 25.83C3.05 25.83 2.01 26.88 2.01 28.17L2.01 39.66L2 40.15M15.49 4.34C17.19 4.34 19.85 4.92 20.66 8.32C19.48 8.17 18.81 7.83 18.28 7.56C17.76 7.3 17.18 7.01 16.46 7.18C15.89 7.31 15.47 7.64 15.07 7.96C14.34 8.55 13.28 9.4 10.13 9.57C10.52 5.05 13.6 4.34 15.49 4.34L15.49 4.34ZM10.2 11.91C14.13 11.7 15.59 10.53 16.5 9.8C16.63 9.7 16.8 9.56 16.91 9.5C17 9.54 17.14 9.61 17.25 9.66C17.93 10.01 19 10.54 20.89 10.7C20.86 12.42 20.23 14.34 19.18 15.84C18.12 17.38 16.77 18.27 15.49 18.27C14.21 18.27 12.87 17.38 11.8 15.84C10.99 14.68 10.43 13.28 10.2 11.91ZM14.87 20.67L16.11 20.67C19.31 20.67 21.65 22.57 22.56 25.83L8.42 25.83C9.33 22.57 11.67 20.67 14.87 20.67ZM4.32 39.66L4.32 28.17L26.66 28.17L26.66 39.66L4.32 39.66ZM15.49 32.08C16.13 32.08 16.65 32.6 16.65 33.25C16.65 33.9 16.13 34.42 15.49 34.42C14.85 34.42 14.34 33.9 14.34 33.25C14.34 32.6 14.85 32.08 15.49 32.08Z" />
</svg>
