<svg viewBox="0 0 39 39">
	<path d="M35.91 19.28C34.74 18.32 32.89 18.23 31.67 19.54L28.66 22.78C28.27 21.52 27.1 20.61 25.72 20.61L20.34 20.61C19.93 20.61 19.8 20.45 19.09 19.91C16.38 17.55 12.32 17.56 9.63 19.93L7.65 21.67C6.76 21.2 5.72 21.19 4.83 21.64L2.56 22.77C2.06 23.03 1.85 23.64 2.1 24.15L8.26 36.47C8.51 36.97 9.13 37.18 9.63 36.92L11.9 35.79C13.02 35.23 13.64 34.09 13.6 32.93L25.72 32.93C27.97 32.93 30.12 31.85 31.46 30.05L36.39 23.48C37.34 22.21 37.19 20.34 35.91 19.28ZM10.98 33.95L9.63 34.63L4.4 24.15L5.75 23.47C6.25 23.22 6.87 23.42 7.12 23.93L11.44 32.58C11.7 33.08 11.49 33.7 10.98 33.95ZM34.75 22.25L29.82 28.82C28.86 30.11 27.33 30.87 25.72 30.87L12.89 30.87L9.04 23.18L10.98 21.47C12.92 19.77 15.83 19.77 17.76 21.47C18.9 22.47 19.6 22.66 20.34 22.66L25.72 22.66C26.29 22.66 26.75 23.12 26.75 23.69C26.75 24.26 26.29 24.72 25.72 24.72L20.48 24.72C19.92 24.72 19.46 25.18 19.46 25.74C19.46 26.31 19.92 26.77 20.48 26.77L26.41 26.77C27.26 26.77 28.08 26.41 28.66 25.79L33.18 20.94C33.59 20.49 34.22 20.53 34.61 20.87C35.02 21.23 35.06 21.84 34.75 22.25ZM23.56 9C24.26 8.27 24.7 7.27 24.7 6.17C24.7 3.91 22.87 2 20.59 2C18.33 2 16.42 3.91 16.42 6.17C16.42 7.24 16.84 8.24 17.6 9.01C15.72 10.06 14.37 12.08 14.37 14.45L14.37 15.48C14.37 16.05 14.83 16.51 15.4 16.51L25.72 16.51C26.29 16.51 26.75 16.05 26.75 15.48L26.75 14.45C26.75 12.13 25.47 10.08 23.56 9ZM20.59 4.05C21.71 4.05 22.64 5.02 22.64 6.17C22.64 7.3 21.72 8.23 20.59 8.23C19.44 8.23 18.47 7.29 18.47 6.17C18.47 5.04 19.46 4.05 20.59 4.05ZM16.42 14.45C16.42 12.19 18.33 10.28 20.59 10.28C22.86 10.28 24.7 12.15 24.7 14.45L16.42 14.45Z" />
</svg>
