<svg viewBox="0 0 24 21">
	<path d="M18.28 10.51C20.33 8.71 20.5 5.62 18.65 3.62C16.96 1.78 14.12 1.47 12.04 2.89C9.78 1.34 6.65 1.86 5.06 4.07C3.59 6.09 3.91 8.85 5.8 10.51C3.45 11.71 1.99 14.08 2 16.67L2 18.76C2 19.15 2.32 19.46 2.72 19.46L21.36 19.46C21.76 19.46 22.08 19.15 22.08 18.76L22.08 16.67C22.09 14.08 20.62 11.71 18.28 10.51ZM14.91 3.4C16.88 3.4 18.49 4.96 18.49 6.89C18.49 8.26 17.67 9.5 16.38 10.07C16.32 10.09 16.27 10.11 16.21 10.14C16.04 10.21 15.85 10.26 15.67 10.3C15.63 10.31 15.6 10.31 15.56 10.32C15.35 10.36 15.14 10.38 14.93 10.38C14.83 10.38 14.74 10.38 14.64 10.37C14.61 10.37 14.57 10.37 14.53 10.36C14.13 10.31 13.73 10.2 13.36 10.02C13.35 10.02 13.33 10.02 13.32 10.01C13.25 9.98 13.18 9.95 13.11 9.91C13.12 9.91 13.12 9.9 13.13 9.89C13.45 9.48 13.71 9.02 13.89 8.53L13.92 8.47C14 8.24 14.06 8 14.11 7.75C14.11 7.72 14.12 7.68 14.12 7.64C14.17 7.4 14.19 7.15 14.19 6.89C14.19 6.64 14.17 6.39 14.12 6.15C14.12 6.11 14.11 6.08 14.11 6.04C14.06 5.79 14 5.55 13.92 5.32L13.89 5.26C13.71 4.77 13.45 4.31 13.13 3.9C13.12 3.89 13.12 3.88 13.11 3.88C13.66 3.57 14.28 3.4 14.91 3.4ZM5.58 6.89C5.58 4.97 7.18 3.41 9.15 3.4C10.08 3.4 10.97 3.75 11.64 4.37C11.68 4.41 11.72 4.45 11.76 4.49C11.88 4.62 12 4.75 12.1 4.89C12.13 4.94 12.16 4.98 12.19 5.03C12.29 5.18 12.38 5.33 12.45 5.5C12.47 5.54 12.48 5.58 12.5 5.62C12.57 5.8 12.63 5.99 12.68 6.18C12.68 6.2 12.68 6.22 12.69 6.24C12.78 6.67 12.78 7.12 12.69 7.55C12.68 7.58 12.68 7.6 12.68 7.62C12.63 7.81 12.57 8 12.5 8.18C12.48 8.22 12.47 8.26 12.45 8.3C12.38 8.46 12.29 8.62 12.19 8.77C12.16 8.81 12.13 8.86 12.1 8.9C12 9.04 11.88 9.18 11.76 9.3C11.72 9.34 11.68 9.38 11.64 9.42C11.35 9.69 11.01 9.91 10.65 10.07C10.59 10.1 10.53 10.12 10.47 10.14C10.3 10.21 10.12 10.26 9.94 10.3C9.89 10.31 9.84 10.32 9.8 10.32C9.6 10.36 9.41 10.38 9.21 10.38L9.13 10.38C8.93 10.38 8.73 10.36 8.54 10.32C8.49 10.32 8.45 10.31 8.4 10.3C8.22 10.26 8.04 10.21 7.87 10.14C7.81 10.12 7.75 10.09 7.69 10.07C6.41 9.51 5.59 8.26 5.58 6.89ZM14.91 18.06L3.43 18.06L3.43 16.67C3.42 14.3 4.95 12.19 7.25 11.41C8.48 11.91 9.86 11.91 11.09 11.41C11.33 11.49 11.57 11.59 11.79 11.71C11.94 11.78 12.08 11.87 12.22 11.95C12.31 12.01 12.41 12.06 12.5 12.13C12.64 12.22 12.77 12.33 12.9 12.43C12.98 12.5 13.06 12.57 13.14 12.64C13.26 12.75 13.37 12.87 13.47 12.98C13.55 13.07 13.63 13.16 13.7 13.25C13.79 13.36 13.88 13.48 13.96 13.61C14.04 13.71 14.1 13.82 14.16 13.93C14.23 14.05 14.3 14.17 14.36 14.29C14.42 14.42 14.47 14.56 14.52 14.69C14.57 14.81 14.62 14.92 14.66 15.04C14.71 15.2 14.74 15.37 14.78 15.54C14.8 15.63 14.83 15.73 14.84 15.83C14.88 16.11 14.91 16.39 14.91 16.67L14.91 18.06L14.91 18.06ZM20.64 18.06L16.34 18.06L16.34 16.67C16.34 16.45 16.33 16.23 16.31 16.02C16.3 15.95 16.29 15.89 16.28 15.83C16.27 15.68 16.24 15.52 16.21 15.37C16.2 15.31 16.19 15.24 16.17 15.18C16.14 15.02 16.1 14.87 16.05 14.71C16.04 14.66 16.02 14.61 16.01 14.56C15.81 13.94 15.52 13.34 15.14 12.8L15.12 12.76C14.99 12.58 14.86 12.41 14.72 12.24L14.72 12.24C14.57 12.06 14.42 11.89 14.25 11.74C14.26 11.74 14.27 11.74 14.28 11.74C14.49 11.76 14.69 11.78 14.89 11.78L14.93 11.78C15.12 11.78 15.31 11.76 15.5 11.74C15.56 11.74 15.61 11.72 15.67 11.72C15.83 11.69 15.98 11.66 16.12 11.63C16.17 11.62 16.21 11.61 16.25 11.59C16.45 11.54 16.64 11.48 16.83 11.41C19.12 12.19 20.65 14.3 20.64 16.67L20.64 18.06L20.64 18.06Z" />
</svg>
