<svg viewBox="0 0 512 512">
	<path d="M309.6,395l-70.3-15.3V359c3.7-5.3,7.1-12.1,10.7-19.1c2.7-5.2,6.7-13.2,8.3-15.1
			c11.4-11.2,23.6-25.1,27.4-43.4c3.8-18.3-1-27.6-3.7-31.3c0-12.9,0-36.3-4.5-53.5c-0.5-20.8-4.6-33.1-14.3-43.7
			c-7.3-7.9-17.7-9.7-26-11.1c-2.7-0.4-6.7-1.1-7.9-1.7c-14-7.8-28.2-11.6-45.8-12c-35.5,1.3-79.2,24-93.8,64.5
			c-4.2,11.5-4.2,28.7-3.8,48.4l0,7.8c-2.6,5-7.3,14.4-3.6,32.6c3.8,18.4,15.9,32.3,27.3,43.3c1.8,2,5.9,10,8.6,15.3
			c3.6,7,7,13.7,10.7,19v20.8l-70.3,15.3C29.2,401.4,8,427.7,8,457.6V496c0,8.8,7.2,16,16,16h320c8.8,0,16-7.2,16-16v-38.4
			C360,427.7,338.8,401.4,309.6,395z M328,480H40v-22.4c0-14.9,10.6-28.1,25.2-31.3l82.9-18c7.4-1.6,12.6-8.1,12.6-15.6v-39.3
			c0-4.1-1.9-8.4-4.7-11.4c-2.1-2.2-6.7-11.2-9.4-16.6c-5.1-9.9-9.4-18.4-14.6-23.5c-8.4-8.2-16.4-17.1-18.4-27
			c-1.5-7.3-0.6-9,0.7-11.6c1.4-2.8,3.6-7.2,3.6-13.2l-0.1-9.8c-0.2-11.2-0.6-30.1,1.9-37c9.7-27,40.7-42.5,63.9-43.4
			c11.5,0.3,20.5,2.7,30.1,8c5.8,3.2,12.4,4.3,18.1,5.3c2.9,0.5,7.1,1,7.8,1.2c2.5,2.8,5.7,6.2,5.9,24.5c0,1.4,0.2,2.9,0.6,4.3
			c3.8,13,3.8,35.8,3.8,46.7c0,6,2.2,10.3,3.6,13.2c1.3,2.7,2.2,4.4,0.7,11.7c-2,9.9-10,18.8-18.4,27c-5.2,5.1-9.5,13.6-14.5,23.5
			c-2.7,5.4-7.3,14.4-9.3,16.6c-3.1,3-4.8,7.1-4.8,11.4v39.3c0,7.5,5.2,14,12.6,15.6l82.9,18c14.6,3.2,25.2,16.3,25.2,31.3V480z" />
	<path d="M360,0c-57.4,0-109.2,34.1-131.8,86.8c-3.5,8.1,0.3,17.5,8.4,21c8.1,3.4,17.5-0.3,21-8.4
			C275.2,58.5,315.4,32,360,32c61.8,0,112,50.2,112,112c0,68.9-61.2,124.4-133.8,109.8c-8.7-1.8-17.1,3.8-18.8,12.5
			s3.9,17.1,12.5,18.8c9.5,1.9,18.9,2.9,28.1,2.9c79.4,0,144-64.6,144-144S439.4,0,360,0z" />
	<path d="M419.3,180.7L376,137.4V80c0-8.8-7.2-16-16-16s-16,7.2-16,16v64c0,4.3,1.7,8.3,4.7,11.3l48,48
			c3.1,3.1,7.2,4.7,11.3,4.7s8.2-1.6,11.3-4.7C425.6,197.1,425.6,186.9,419.3,180.7z" />
</svg>
