<svg viewBox="0 0 29 32">
	<path d="M1 1L1 31.42L28.03 31.42L28.03 1L1 1ZM4.73 29.63L2.78 29.63L2.78 27.74L4.73 27.74L4.73 29.63L4.73 29.63ZM4.73 25.95L2.78 25.95L2.78 24.17L4.73 24.17L4.73 25.95L4.73 25.95ZM4.73 22.39L2.78 22.39L2.78 20.61L4.73 20.61L4.73 22.39L4.73 22.39ZM4.73 18.83L2.78 18.83L2.78 17.04L4.73 17.04L4.73 18.83L4.73 18.83ZM4.73 15.26L2.78 15.26L2.78 13.48L4.73 13.48L4.73 15.26L4.73 15.26ZM4.73 11.7L2.78 11.7L2.78 9.91L4.73 9.91L4.73 11.7L4.73 11.7ZM4.73 8.13L2.78 8.13L2.78 6.35L4.73 6.35L4.73 8.13L4.73 8.13ZM4.73 4.57L2.78 4.57L2.78 2.78L4.73 2.78L4.73 4.57L4.73 4.57ZM22.51 29.63L6.52 29.63L6.52 17.04L22.51 17.04L22.51 29.63L22.51 29.63ZM22.51 15.26L6.52 15.26L6.52 2.78L22.51 2.78L22.51 15.26L22.51 15.26ZM26.25 29.63L24.3 29.63L24.3 27.74L26.25 27.74L26.25 29.63ZM26.25 25.95L24.3 25.95L24.3 24.17L24.3 24.17L26.25 24.17L26.25 25.95ZM26.25 22.39L24.3 22.39L24.3 20.61L26.25 20.61L26.25 22.39ZM26.25 18.83L24.3 18.83L24.3 17.04L26.25 17.04L26.25 18.83ZM26.25 15.26L24.3 15.26L24.3 13.48L26.25 13.48L26.25 15.26ZM26.25 11.7L24.3 11.7L24.3 9.91L26.25 9.91L26.25 11.7ZM26.25 8.13L24.3 8.13L24.3 8.13L24.3 6.35L26.25 6.35L26.25 8.13ZM26.25 4.57L24.3 4.57L24.3 2.78L26.25 2.78L26.25 4.57L26.25 4.57Z" />
</svg>
