<svg viewBox="0 0 27 21">
	<path d="M11.08 14.66L11.08 14.66L11.08 14.66L11.08 14.66ZM11.08 7.34L11.08 14.66L17.62 11L11.08 7.34ZM12.49 9.7L14.81 11L12.49 12.3L12.49 9.7ZM24.59 2L24.59 3.24L22.64 3.24L22.64 2L21.24 2L21.24 4.95L6.76 4.95L6.76 2L5.35 2L5.35 3.24L3.41 3.24L3.41 2L2 2L2 20L3.41 20L3.41 18.24L5.35 18.24L5.35 20L6.76 20L6.76 17.05L21.24 17.05L21.24 20L22.64 20L22.64 18.24L24.59 18.24L24.59 20L26 20L26 2L24.59 2ZM5.35 16.87L3.41 16.87L3.41 14.83L5.35 14.83L5.35 16.87ZM5.35 13.47L3.41 13.47L3.41 11.42L5.35 11.42L5.35 13.47ZM5.35 10.06L3.41 10.06L3.41 8.01L5.35 8.01L5.35 10.06ZM5.35 6.65L3.41 6.65L3.41 4.61L5.35 4.61L5.35 6.65ZM21.24 15.68L6.76 15.68L6.76 6.31L21.24 6.31L21.24 15.68ZM24.59 16.87L22.64 16.87L22.64 14.83L24.59 14.83L24.59 16.87ZM24.59 13.47L22.64 13.47L22.64 11.42L24.59 11.42L24.59 13.47ZM24.59 10.06L22.64 10.06L22.64 8.01L24.59 8.01L24.59 10.06ZM24.59 6.65L22.64 6.65L22.64 4.61L24.59 4.61L24.59 6.65Z" />
</svg>
